<svg preserveAspectRatio="none" width="100%" height="100%" overflow="visible" style="display: block;" viewBox="0 0 22 14" fill="none" xmlns="http://www.w3.org/2000/svg">
<g id="Mastercard">
<path id="Left" d="M14.9541 0C18.5494 0 21.4647 3.04052 21.4648 6.79102C21.4648 10.5416 18.5495 13.582 14.9541 13.582C13.3421 13.582 11.8684 12.9694 10.7314 11.957C9.59453 12.9692 8.12156 13.582 6.50977 13.582C2.91441 13.582 0 10.5416 0 6.79102C0.000205758 3.0406 2.91454 1.19622e-05 6.50977 0C8.12114 0 9.59465 0.612357 10.7314 1.62402C11.8683 0.611993 13.3425 7.41094e-05 14.9541 0Z" fill="var(--fill-0, #ED0006)"/>
<path id="Right" d="M14.9569 6.36381e-05C18.5522 6.36381e-05 21.4675 3.04058 21.4677 6.79108C21.4677 10.5417 18.5523 13.5821 14.9569 13.5821C13.3452 13.582 11.8721 12.9692 10.7352 11.9571C12.1342 10.7115 13.0224 8.86009 13.0224 6.79108C13.0223 4.72181 12.1345 2.86964 10.7352 1.62409C11.872 0.612338 13.3456 0.000162554 14.9569 6.36381e-05Z" fill="var(--fill-0, #F9A000)"/>
<path id="Middle" d="M10.7314 1.62679C12.1308 2.8724 13.0195 4.72432 13.0195 6.79379C13.0194 8.86305 12.1307 10.7143 10.7314 11.9598C9.33252 10.7143 8.4444 8.86269 8.44429 6.79379C8.44429 4.72468 9.33237 2.87239 10.7314 1.62679Z" fill="var(--fill-0, #FF5E00)"/>
</g>
</svg>
