<svg preserveAspectRatio="none" width="100%" height="100%" overflow="visible" style="display: block;" viewBox="0 0 20 18" fill="none" xmlns="http://www.w3.org/2000/svg">
<g id="PayPal">
<path id="Vector" fill-rule="evenodd" clip-rule="evenodd" d="M2.28968 11.8911H0.805604C0.704046 11.8911 0.617673 11.9672 0.601836 12.0705L0.00159762 15.9949C-0.0103326 16.0724 0.0478228 16.1422 0.123994 16.1422H0.832508C0.934066 16.1422 1.02044 16.0661 1.03628 15.9625L1.19817 14.904C1.21378 14.8004 1.30037 14.7244 1.40172 14.7244H1.87152C2.84914 14.7244 3.41332 14.2365 3.56074 13.2698C3.62712 12.8469 3.56355 12.5146 3.37144 12.2818C3.16055 12.0263 2.78638 11.8911 2.28968 11.8911ZM2.46091 13.3244C2.37976 13.8736 1.97287 13.8736 1.57944 13.8736H1.35549L1.5126 12.8479C1.52193 12.786 1.57401 12.7403 1.63478 12.7403H1.73742C2.00542 12.7403 2.25825 12.7403 2.3889 12.8978C2.46673 12.9919 2.49063 13.1315 2.46091 13.3244ZM6.72597 13.3068H6.01528C5.95472 13.3068 5.9024 13.3525 5.89306 13.4145L5.86163 13.6194L5.81192 13.5452C5.65807 13.3149 5.31503 13.2379 4.97259 13.2379C4.18718 13.2379 3.51645 13.8513 3.3858 14.7117C3.31792 15.1409 3.41442 15.5513 3.65052 15.8375C3.86713 16.1006 4.17703 16.2103 4.54569 16.2103C5.17845 16.2103 5.52943 15.7907 5.52943 15.7907L5.4977 15.9944C5.48575 16.0723 5.54389 16.1421 5.61961 16.1421H6.25981C6.36164 16.1421 6.4475 16.066 6.46357 15.9624L6.84768 13.454C6.85983 13.3769 6.80189 13.3068 6.72597 13.3068ZM5.7353 14.7332C5.66671 15.1519 5.34445 15.4329 4.93352 15.4329C4.72715 15.4329 4.56216 15.3647 4.45631 15.2353C4.35127 15.1069 4.3113 14.924 4.34474 14.7204C4.40881 14.3053 4.73649 14.0151 5.1412 14.0151C5.34295 14.0151 5.50704 14.0842 5.61509 14.2147C5.72335 14.3465 5.76633 14.5304 5.7353 14.7332ZM9.79681 13.3067H10.511C10.611 13.3067 10.6694 13.4224 10.6125 13.507L8.23724 17.0426C8.19877 17.0999 8.13541 17.1339 8.06772 17.1339H7.35442C7.25399 17.1339 7.19535 17.0173 7.25349 16.9325L7.99311 15.8559L7.20649 13.4754C7.17928 13.3926 7.23853 13.3067 7.32389 13.3067H8.02565C8.11683 13.3067 8.19727 13.3684 8.22358 13.4584L8.64104 14.8962L9.62609 13.4C9.66465 13.3416 9.72872 13.3067 9.79681 13.3067Z" fill="var(--fill-0, #253B80)"/>
<path id="Vector_2" fill-rule="evenodd" clip-rule="evenodd" d="M17.5406 15.9951L18.1497 11.999C18.159 11.9369 18.2111 11.8913 18.2717 11.8911H18.9574C19.0331 11.8911 19.0912 11.9611 19.0793 12.0385L18.4786 15.9627C18.463 16.0663 18.3766 16.1424 18.2749 16.1424H17.6625C17.5868 16.1424 17.5286 16.0726 17.5406 15.9951ZM12.876 11.8913H11.3917C11.2904 11.8913 11.204 11.9674 11.1881 12.0707L10.5879 15.9951C10.5759 16.0726 10.6341 16.1424 10.7099 16.1424H11.4715C11.5423 16.1424 11.6029 16.0891 11.6139 16.0167L11.7842 14.9043C11.7999 14.8006 11.8865 14.7246 11.9878 14.7246H12.4574C13.4352 14.7246 13.9993 14.2367 14.1468 13.27C14.2134 12.8471 14.1494 12.5148 13.9574 12.282C13.7466 12.0265 13.3727 11.8913 12.876 11.8913ZM13.0473 13.3246C12.9663 13.8738 12.5594 13.8738 12.1657 13.8738H11.942L12.0994 12.8481C12.1087 12.7862 12.1603 12.7405 12.2213 12.7405H12.3239C12.5917 12.7405 12.8448 12.7405 12.9754 12.898C13.0533 12.9921 13.077 13.1317 13.0473 13.3246ZM17.3119 13.307H16.6017C16.5407 13.307 16.4889 13.3527 16.4797 13.4147L16.4483 13.6196L16.3984 13.5454C16.2445 13.3151 15.9017 13.2381 15.5592 13.2381C14.7738 13.2381 14.1033 13.8515 13.9727 14.7119C13.905 15.1411 14.0011 15.5515 14.2372 15.8377C14.4542 16.1008 14.7637 16.2105 15.1323 16.2105C15.7651 16.2105 16.116 15.7909 16.116 15.7909L16.0844 15.9946C16.0724 16.0725 16.1305 16.1423 16.2068 16.1423H16.8467C16.948 16.1423 17.0344 16.0662 17.0502 15.9626L17.4345 13.4542C17.4463 13.3771 17.3881 13.307 17.3119 13.307ZM16.3213 14.7334C16.2532 15.1521 15.9305 15.4331 15.5195 15.4331C15.3135 15.4331 15.1482 15.3649 15.0423 15.2355C14.9372 15.1071 14.8978 14.9242 14.9308 14.7206C14.9952 14.3055 15.3224 14.0153 15.7271 14.0153C15.929 14.0153 16.093 14.0844 16.2011 14.2149C16.3098 14.3467 16.3528 14.5306 16.3213 14.7334Z" fill="var(--fill-0, #179BD7)"/>
<path id="Vector_3" d="M7.78182 10.4887L7.96429 9.2937L7.55787 9.28397H5.6172L6.96588 0.465464C6.97 0.43884 6.98366 0.414017 7.00354 0.396392C7.02342 0.378767 7.04893 0.369053 7.07544 0.369053H10.3477C11.4341 0.369053 12.1838 0.60217 12.5752 1.06228C12.7587 1.27814 12.8756 1.50369 12.9321 1.75192C12.9914 2.01239 12.9925 2.32356 12.9345 2.7031L12.9303 2.7308V2.97398L13.1139 3.0812C13.2684 3.16573 13.3911 3.2625 13.4853 3.37331C13.6424 3.55786 13.7439 3.79241 13.7868 4.07049C13.8311 4.3565 13.8164 4.69682 13.7439 5.08211C13.6602 5.52532 13.5248 5.91133 13.342 6.22719C13.1738 6.51822 12.9596 6.75956 12.7054 6.94669C12.4625 7.12439 12.174 7.25933 11.8478 7.34569C11.5317 7.43051 11.1714 7.47338 10.7761 7.47338H10.5215C10.3394 7.47338 10.1624 7.541 10.0237 7.66227C9.88447 7.78602 9.79228 7.95502 9.76407 8.13998L9.74488 8.24757L9.42253 10.3538L9.40787 10.4312C9.40405 10.4557 9.39742 10.4679 9.38768 10.4762C9.37894 10.4837 9.36639 10.4887 9.35414 10.4887H7.78182Z" fill="var(--fill-0, #253B80)"/>
<path id="Vector_4" d="M13.2889 2.75918C13.2792 2.82357 13.2681 2.8894 13.2555 2.95703C12.8239 5.2418 11.3476 6.03109 9.46192 6.03109H8.50188C8.27131 6.03109 8.07699 6.20376 8.04104 6.43831L7.54947 9.65306L7.41028 10.5643C7.38688 10.7182 7.50207 10.8571 7.6527 10.8571H9.35557C9.55722 10.8571 9.72844 10.706 9.76018 10.501L9.77695 10.4117L10.0976 8.31365L10.1182 8.1986C10.1495 7.99284 10.3211 7.84175 10.5228 7.84175H10.7775C12.4272 7.84175 13.7188 7.15102 14.0962 5.15222C14.2539 4.31724 14.1723 3.62006 13.755 3.12972C13.6288 2.98186 13.4721 2.85918 13.2889 2.75918Z" fill="var(--fill-0, #179BD7)"/>
<path id="Vector_5" d="M12.8372 2.5731C12.7714 2.55331 12.7033 2.53532 12.6335 2.51914C12.5634 2.50331 12.4915 2.48928 12.4176 2.47705C12.1587 2.43388 11.8751 2.41337 11.5712 2.41337H9.00641C8.94325 2.41337 8.88329 2.42812 8.82957 2.45474C8.71127 2.51338 8.6234 2.62887 8.60211 2.77024L8.05641 6.33391L8.04074 6.43787C8.0767 6.20331 8.27102 6.03063 8.50159 6.03063H9.46163C11.3473 6.03063 12.8237 5.24099 13.2552 2.95659C13.2681 2.88896 13.2789 2.82313 13.2886 2.75874C13.1795 2.69901 13.0612 2.64793 12.9339 2.60439C12.9025 2.5936 12.8701 2.58318 12.8372 2.5731Z" fill="var(--fill-0, #222D65)"/>
<path id="Vector_6" d="M8.60206 2.7697C8.62334 2.62831 8.71132 2.51284 8.82951 2.45456C8.88364 2.42793 8.94329 2.41318 9.00636 2.41318H11.5713C11.8751 2.41318 12.1587 2.43369 12.4175 2.47686C12.4915 2.48909 12.5634 2.50312 12.6335 2.51895C12.7033 2.53514 12.7713 2.55313 12.8373 2.57291C12.87 2.58299 12.9025 2.59341 12.9342 2.60385C13.0615 2.64738 13.1798 2.69883 13.289 2.75818C13.4174 1.91385 13.288 1.33898 12.8453 0.81842C12.3573 0.245347 11.4764 0 10.3492 0H7.07683C6.84656 0 6.65023 0.172671 6.61458 0.407589L5.25164 9.31675C5.22473 9.493 5.35659 9.65207 5.52891 9.65207H7.54922L8.05646 6.33336L8.60206 2.7697Z" fill="var(--fill-0, #253B80)"/>
</g>
</svg>
