<svg width="21" height="20" viewBox="0 0 21 20" fill="none" xmlns="http://www.w3.org/2000/svg">
<path d="M10.5013 10.8385C10.9615 10.8385 11.3346 10.4654 11.3346 10.0052C11.3346 9.54497 10.9615 9.17188 10.5013 9.17188C10.0411 9.17188 9.66797 9.54497 9.66797 10.0052C9.66797 10.4654 10.0411 10.8385 10.5013 10.8385Z" fill="#FFEBDC"/>
<path d="M5.5013 10.8385C5.96154 10.8385 6.33464 10.4654 6.33464 10.0052C6.33464 9.54497 5.96154 9.17188 5.5013 9.17188C5.04106 9.17188 4.66797 9.54497 4.66797 10.0052C4.66797 10.4654 5.04106 10.8385 5.5013 10.8385Z" fill="#FFEBDC"/>
<path d="M15.5013 10.8385C15.9615 10.8385 16.3346 10.4654 16.3346 10.0052C16.3346 9.54497 15.9615 9.17188 15.5013 9.17188C15.0411 9.17188 14.668 9.54497 14.668 10.0052C14.668 10.4654 15.0411 10.8385 15.5013 10.8385Z" fill="#FFEBDC"/>
<path d="M10.5013 10.8385C10.9615 10.8385 11.3346 10.4654 11.3346 10.0052C11.3346 9.54497 10.9615 9.17188 10.5013 9.17188C10.0411 9.17188 9.66797 9.54497 9.66797 10.0052C9.66797 10.4654 10.0411 10.8385 10.5013 10.8385Z" stroke="black" stroke-linecap="round" stroke-linejoin="round"/>
<path d="M5.5013 10.8385C5.96154 10.8385 6.33464 10.4654 6.33464 10.0052C6.33464 9.54497 5.96154 9.17188 5.5013 9.17188C5.04106 9.17188 4.66797 9.54497 4.66797 10.0052C4.66797 10.4654 5.04106 10.8385 5.5013 10.8385Z" stroke="black" stroke-linecap="round" stroke-linejoin="round"/>
<path d="M15.5013 10.8385C15.9615 10.8385 16.3346 10.4654 16.3346 10.0052C16.3346 9.54497 15.9615 9.17188 15.5013 9.17188C15.0411 9.17188 14.668 9.54497 14.668 10.0052C14.668 10.4654 15.0411 10.8385 15.5013 10.8385Z" stroke="black" stroke-linecap="round" stroke-linejoin="round"/>
</svg>
