<svg width="191" height="124" viewBox="0 0 191 124" fill="none" xmlns="http://www.w3.org/2000/svg">
<mask id="path-1-outside-1_7076_9122" maskUnits="userSpaceOnUse" x="-0.443393" y="0.292433" width="191.122" height="113.86" fill="black">
<rect fill="white" x="-0.443393" y="0.292433" width="191.122" height="113.86"/>
<path d="M39.4273 58.5494V23.0294L46.2721 22.0674C51.1204 21.386 54.7805 23.0796 54.7805 29.8476C54.7805 35.5116 52.9742 37.4935 50.8352 38.6101V38.7061C53.3545 39.168 55.4934 40.6914 55.4934 46.6914C55.4934 53.8914 51.6908 56.8259 46.8425 57.5073L39.4273 58.5494ZM45.4165 37.3077L46.3196 37.1807C47.8407 36.967 48.8388 35.9147 48.8388 31.8347C48.8388 27.8027 48.0308 27.1002 46.3196 27.3407L45.4165 27.4677V37.3077ZM45.4165 52.9557L46.6048 52.7887C48.5061 52.5214 49.4092 50.8105 49.4092 46.7785C49.4092 42.3625 48.2209 41.1855 46.3196 41.4527L45.4165 41.5797V52.9557ZM57.7164 55.979V20.459L70.3126 18.6887V24.1127L63.8481 25.0213V33.7093L68.3637 33.0746V38.1626L63.8481 38.7973V49.8853L70.5502 48.9433V54.1753L57.7164 55.979ZM80.3216 53.1381C74.4275 53.9664 71.7181 49.5952 71.7181 36.2512C71.7181 22.9072 74.475 17.7677 80.274 16.9527C85.8829 16.1645 88.117 18.9705 88.212 29.4691L82.413 30.5241C82.318 24.1535 81.7951 22.451 80.274 22.6647C78.2301 22.952 77.9925 26.4894 77.9925 35.3694C77.9925 44.4894 78.2777 47.8573 80.3216 47.5701C81.9852 47.3363 82.4606 45.8775 82.6507 39.2267L88.4497 38.6517C88.117 45.9945 86.9762 52.2028 80.3216 53.1381ZM98.3343 50.6065C92.4878 51.4282 89.6358 46.933 89.6358 33.733C89.6358 20.533 92.4878 15.2362 98.3343 14.4145C104.181 13.5929 107.033 18.088 107.033 31.288C107.033 44.488 104.181 49.7849 98.3343 50.6065ZM98.3343 45.0385C100.426 44.7446 100.758 41.4818 100.758 32.1698C100.758 22.8578 100.426 19.8326 98.3343 20.1265C96.2904 20.4138 95.9577 23.5326 95.9577 32.8446C95.9577 42.1566 96.2904 45.3258 98.3343 45.0385ZM109.427 48.7116V13.1916L116.699 12.1695L119.504 33.8074L119.551 33.8007L122.356 11.3745L129.628 10.3524V45.8724L123.829 46.6874V30.7514C123.829 28.2074 123.877 25.7048 123.877 23.8328L123.782 23.8461C123.592 26.4648 123.259 29.3916 123.021 31.345L120.74 47.1217L117.555 47.5692L115.226 32.4886C114.941 30.4167 114.751 28.4754 114.465 25.2035L114.37 25.2168C114.418 26.2181 114.418 29.4821 114.418 32.0741V48.0101L109.427 48.7116ZM132.683 45.4432V9.92318L145.279 8.1529V13.5769L138.814 14.4854V23.1734L143.33 22.5388V27.6268L138.814 28.2614V39.3494L145.517 38.4075V43.6395L132.683 45.4432ZM10.1153 111.005C4.2688 111.827 1.41683 107.331 1.41683 94.1314C1.41683 80.9314 4.2688 75.6346 10.1153 74.8129C15.9619 73.9912 18.8139 78.4864 18.8139 91.6864C18.8139 104.886 15.9619 110.183 10.1153 111.005ZM10.1153 105.437C12.2068 105.143 12.5395 101.88 12.5395 92.5682C12.5395 83.2562 12.2068 80.231 10.1153 80.5249C8.07143 80.8122 7.7387 83.9309 7.7387 93.2429C7.7387 102.555 8.07143 105.724 10.1153 105.437ZM29.0033 108.35C23.0142 109.192 21.1129 105.811 21.1129 99.1873V73.6033L27.2446 72.7415V97.9415C27.2446 102.118 27.5774 103.367 29.1935 103.14C30.7621 102.919 31.1423 101.666 31.1423 97.4898V72.1938L36.9889 71.3721V96.8121C36.9889 103.532 34.9925 107.509 29.0033 108.35ZM39.9147 106.481V70.9609L47.1397 69.9455C51.9881 69.2641 55.7432 71.8563 55.7432 80.0163C55.7432 84.8643 54.4598 88.1647 52.4159 89.844L56.171 104.196L50.1343 105.045L47.0447 92.6148L45.9039 92.7752V105.639L39.9147 106.481ZM45.9039 88.1672L47.0447 88.0068C48.7083 87.773 49.6114 86.2061 49.6114 80.9741C49.6114 76.0781 48.7083 75.149 46.9971 75.3895L45.9039 75.5432V88.1672ZM64.5167 103.023V67.5033L71.7417 66.4879C76.5901 65.8065 80.3452 68.3988 80.3452 76.5588C80.3452 81.4068 79.0618 84.7071 77.0179 86.3864L80.773 100.739L74.7363 101.587L71.6466 89.1573L70.5059 89.3176V102.182L64.5167 103.023ZM70.5059 84.7096L71.6466 84.5492C73.3103 84.3154 74.2134 82.7485 74.2134 77.5165C74.2134 72.6205 73.3103 71.6914 71.5991 71.9319L70.5059 72.0856V84.7096ZM82.6665 100.473V64.9525L95.2627 63.1822V68.6062L88.7982 69.5148V78.2028L93.3138 77.5681V82.6561L88.7982 83.2908V94.3788L95.5003 93.4368V98.6688L82.6665 100.473ZM104.749 97.705C97.9992 98.6536 96.8108 94.1167 96.3355 87.6555L102.039 86.4218C102.515 91.395 103.038 92.7615 104.796 92.5144C106.175 92.3206 106.935 91.2057 106.935 89.0457C106.935 86.0217 104.796 84.3064 102.42 81.9524C99.8054 79.3438 96.9059 76.6313 96.9059 71.3513C96.9059 65.9753 99.5677 62.2412 104.511 61.5464C110.453 60.7114 112.211 64.2082 112.639 70.9161L106.888 72.2524C106.603 67.2045 105.89 66.7287 104.606 66.9091C103.465 67.0694 102.99 68.2402 102.99 69.8722C102.99 73.3762 105.034 75.105 107.316 77.2803C110.025 79.8275 112.972 82.1973 112.972 87.8613C112.972 93.5253 110.025 96.9635 104.749 97.705ZM115.16 95.9059V60.3859L127.756 58.6156V64.0396L121.291 64.9481V73.6361L125.807 73.0015V78.0895L121.291 78.7241V89.8121L127.994 88.8702V94.1022L115.16 95.9059ZM129.874 93.8379V58.3179L136.006 57.4561V87.7441L142.376 86.8489V92.0809L129.874 93.8379ZM144.079 91.8416V56.3216L150.21 55.4598V85.7478L156.58 84.8527V90.0847L144.079 91.8416ZM158.283 89.8453V54.3253L170.879 52.5551V57.9791L164.414 58.8876V67.5756L168.93 66.941V72.029L164.414 72.6636V83.7516L171.117 82.8097V88.0417L158.283 89.8453ZM172.997 87.7773V52.2573L180.222 51.2419C185.071 50.5605 188.826 53.1528 188.826 61.3128C188.826 66.1608 187.543 69.4611 185.499 71.1404L189.254 85.4927L183.217 86.341L180.127 73.9113L178.987 74.0716V86.9356L172.997 87.7773ZM178.987 69.4636L180.127 69.3033C181.791 69.0695 182.694 67.5025 182.694 62.2705C182.694 57.3745 181.791 56.4455 180.08 56.6859L178.987 56.8396V69.4636Z"/>
</mask>
<path d="M39.4273 58.5494V23.0294L46.2721 22.0674C51.1204 21.386 54.7805 23.0796 54.7805 29.8476C54.7805 35.5116 52.9742 37.4935 50.8352 38.6101V38.7061C53.3545 39.168 55.4934 40.6914 55.4934 46.6914C55.4934 53.8914 51.6908 56.8259 46.8425 57.5073L39.4273 58.5494ZM45.4165 37.3077L46.3196 37.1807C47.8407 36.967 48.8388 35.9147 48.8388 31.8347C48.8388 27.8027 48.0308 27.1002 46.3196 27.3407L45.4165 27.4677V37.3077ZM45.4165 52.9557L46.6048 52.7887C48.5061 52.5214 49.4092 50.8105 49.4092 46.7785C49.4092 42.3625 48.2209 41.1855 46.3196 41.4527L45.4165 41.5797V52.9557ZM57.7164 55.979V20.459L70.3126 18.6887V24.1127L63.8481 25.0213V33.7093L68.3637 33.0746V38.1626L63.8481 38.7973V49.8853L70.5502 48.9433V54.1753L57.7164 55.979ZM80.3216 53.1381C74.4275 53.9664 71.7181 49.5952 71.7181 36.2512C71.7181 22.9072 74.475 17.7677 80.274 16.9527C85.8829 16.1645 88.117 18.9705 88.212 29.4691L82.413 30.5241C82.318 24.1535 81.7951 22.451 80.274 22.6647C78.2301 22.952 77.9925 26.4894 77.9925 35.3694C77.9925 44.4894 78.2777 47.8573 80.3216 47.5701C81.9852 47.3363 82.4606 45.8775 82.6507 39.2267L88.4497 38.6517C88.117 45.9945 86.9762 52.2028 80.3216 53.1381ZM98.3343 50.6065C92.4878 51.4282 89.6358 46.933 89.6358 33.733C89.6358 20.533 92.4878 15.2362 98.3343 14.4145C104.181 13.5929 107.033 18.088 107.033 31.288C107.033 44.488 104.181 49.7849 98.3343 50.6065ZM98.3343 45.0385C100.426 44.7446 100.758 41.4818 100.758 32.1698C100.758 22.8578 100.426 19.8326 98.3343 20.1265C96.2904 20.4138 95.9577 23.5326 95.9577 32.8446C95.9577 42.1566 96.2904 45.3258 98.3343 45.0385ZM109.427 48.7116V13.1916L116.699 12.1695L119.504 33.8074L119.551 33.8007L122.356 11.3745L129.628 10.3524V45.8724L123.829 46.6874V30.7514C123.829 28.2074 123.877 25.7048 123.877 23.8328L123.782 23.8461C123.592 26.4648 123.259 29.3916 123.021 31.345L120.74 47.1217L117.555 47.5692L115.226 32.4886C114.941 30.4167 114.751 28.4754 114.465 25.2035L114.37 25.2168C114.418 26.2181 114.418 29.4821 114.418 32.0741V48.0101L109.427 48.7116ZM132.683 45.4432V9.92318L145.279 8.1529V13.5769L138.814 14.4854V23.1734L143.33 22.5388V27.6268L138.814 28.2614V39.3494L145.517 38.4075V43.6395L132.683 45.4432ZM10.1153 111.005C4.2688 111.827 1.41683 107.331 1.41683 94.1314C1.41683 80.9314 4.2688 75.6346 10.1153 74.8129C15.9619 73.9912 18.8139 78.4864 18.8139 91.6864C18.8139 104.886 15.9619 110.183 10.1153 111.005ZM10.1153 105.437C12.2068 105.143 12.5395 101.88 12.5395 92.5682C12.5395 83.2562 12.2068 80.231 10.1153 80.5249C8.07143 80.8122 7.7387 83.9309 7.7387 93.2429C7.7387 102.555 8.07143 105.724 10.1153 105.437ZM29.0033 108.35C23.0142 109.192 21.1129 105.811 21.1129 99.1873V73.6033L27.2446 72.7415V97.9415C27.2446 102.118 27.5774 103.367 29.1935 103.14C30.7621 102.919 31.1423 101.666 31.1423 97.4898V72.1938L36.9889 71.3721V96.8121C36.9889 103.532 34.9925 107.509 29.0033 108.35ZM39.9147 106.481V70.9609L47.1397 69.9455C51.9881 69.2641 55.7432 71.8563 55.7432 80.0163C55.7432 84.8643 54.4598 88.1647 52.4159 89.844L56.171 104.196L50.1343 105.045L47.0447 92.6148L45.9039 92.7752V105.639L39.9147 106.481ZM45.9039 88.1672L47.0447 88.0068C48.7083 87.773 49.6114 86.2061 49.6114 80.9741C49.6114 76.0781 48.7083 75.149 46.9971 75.3895L45.9039 75.5432V88.1672ZM64.5167 103.023V67.5033L71.7417 66.4879C76.5901 65.8065 80.3452 68.3988 80.3452 76.5588C80.3452 81.4068 79.0618 84.7071 77.0179 86.3864L80.773 100.739L74.7363 101.587L71.6466 89.1573L70.5059 89.3176V102.182L64.5167 103.023ZM70.5059 84.7096L71.6466 84.5492C73.3103 84.3154 74.2134 82.7485 74.2134 77.5165C74.2134 72.6205 73.3103 71.6914 71.5991 71.9319L70.5059 72.0856V84.7096ZM82.6665 100.473V64.9525L95.2627 63.1822V68.6062L88.7982 69.5148V78.2028L93.3138 77.5681V82.6561L88.7982 83.2908V94.3788L95.5003 93.4368V98.6688L82.6665 100.473ZM104.749 97.705C97.9992 98.6536 96.8108 94.1167 96.3355 87.6555L102.039 86.4218C102.515 91.395 103.038 92.7615 104.796 92.5144C106.175 92.3206 106.935 91.2057 106.935 89.0457C106.935 86.0217 104.796 84.3064 102.42 81.9524C99.8054 79.3438 96.9059 76.6313 96.9059 71.3513C96.9059 65.9753 99.5677 62.2412 104.511 61.5464C110.453 60.7114 112.211 64.2082 112.639 70.9161L106.888 72.2524C106.603 67.2045 105.89 66.7287 104.606 66.9091C103.465 67.0694 102.99 68.2402 102.99 69.8722C102.99 73.3762 105.034 75.105 107.316 77.2803C110.025 79.8275 112.972 82.1973 112.972 87.8613C112.972 93.5253 110.025 96.9635 104.749 97.705ZM115.16 95.9059V60.3859L127.756 58.6156V64.0396L121.291 64.9481V73.6361L125.807 73.0015V78.0895L121.291 78.7241V89.8121L127.994 88.8702V94.1022L115.16 95.9059ZM129.874 93.8379V58.3179L136.006 57.4561V87.7441L142.376 86.8489V92.0809L129.874 93.8379ZM144.079 91.8416V56.3216L150.21 55.4598V85.7478L156.58 84.8527V90.0847L144.079 91.8416ZM158.283 89.8453V54.3253L170.879 52.5551V57.9791L164.414 58.8876V67.5756L168.93 66.941V72.029L164.414 72.6636V83.7516L171.117 82.8097V88.0417L158.283 89.8453ZM172.997 87.7773V52.2573L180.222 51.2419C185.071 50.5605 188.826 53.1528 188.826 61.3128C188.826 66.1608 187.543 69.4611 185.499 71.1404L189.254 85.4927L183.217 86.341L180.127 73.9113L178.987 74.0716V86.9356L172.997 87.7773ZM178.987 69.4636L180.127 69.3033C181.791 69.0695 182.694 67.5025 182.694 62.2705C182.694 57.3745 181.791 56.4455 180.08 56.6859L178.987 56.8396V69.4636Z" fill="#FFEBDC"/>
<path d="M39.4273 58.5494L38.4371 58.6886V59.6886L39.4273 59.5494V58.5494ZM39.4273 23.0294V22.0294L38.4371 22.1686V23.1686L39.4273 23.0294ZM50.8352 38.6101L50.4853 37.7238L49.845 38.0581V38.7493L50.8352 38.6101ZM50.8352 38.7061L49.845 38.8453V39.5747L50.5328 39.7008L50.8352 38.7061ZM45.4165 37.3077L44.4262 37.4468V38.4468L45.4165 38.3077V37.3077ZM45.4165 27.4677V26.4677L44.4262 26.6068V27.6068L45.4165 27.4677ZM45.4165 52.9557L44.4262 53.0948V54.0948L45.4165 53.9557V52.9557ZM45.4165 41.5797V40.5797L44.4262 40.7188V41.7188L45.4165 41.5797ZM39.4273 58.5494L40.4176 58.4102V22.8902L39.4273 23.0294L38.4371 23.1686V58.6886L39.4273 58.5494ZM39.4273 23.0294V24.0294L46.2721 23.0674V22.0674V21.0674L39.4273 22.0294V23.0294ZM46.2721 22.0674V23.0674C48.5673 22.7448 50.4106 23.0106 51.6778 23.9972C52.9274 24.9701 53.7902 26.7807 53.7902 29.9868L54.7805 29.8476L55.7707 29.7085C55.7707 26.1465 54.8035 23.7264 53.011 22.3308C51.2361 20.9489 48.8252 20.7086 46.2721 21.0674V22.0674ZM54.7805 29.8476L53.7902 29.9868C53.7902 32.728 53.3503 34.4376 52.755 35.5496C52.1808 36.6223 51.4063 37.243 50.4853 37.7238L50.8352 38.6101L51.1852 39.4964C52.4031 38.8606 53.6012 37.932 54.4649 36.3186C55.3075 34.7446 55.7707 32.6313 55.7707 29.7085L54.7805 29.8476ZM50.8352 38.6101L49.845 38.7493V38.8453L50.8352 38.7061L51.8255 38.5669V38.4709L50.8352 38.6101ZM50.8352 38.7061L50.5328 39.7008C51.6555 39.9067 52.5946 40.3266 53.281 41.2869C53.9848 42.2714 54.5032 43.9358 54.5032 46.8306L55.4935 46.6914L56.4837 46.5523C56.4837 43.4471 55.9326 41.3498 54.9371 39.9571C53.9242 38.5403 52.5342 37.9674 51.1377 37.7114L50.8352 38.7061ZM55.4935 46.6914L54.5032 46.8306C54.5032 50.2591 53.6007 52.483 52.3025 53.9164C50.9953 55.3597 49.1195 56.1872 46.8425 56.5072V57.5072V58.5072C49.4138 58.1459 51.8635 57.1655 53.6697 55.1712C55.4849 53.1671 56.4837 50.3237 56.4837 46.5523L55.4935 46.6914ZM46.8425 57.5072V56.5072L39.4273 57.5494V58.5494V59.5494L46.8425 58.5072V57.5072ZM45.4165 37.3077V38.3077L46.3196 38.1807V37.1807V36.1807L45.4165 36.3077V37.3077ZM46.3196 37.1807V38.1807C46.7931 38.1142 47.3004 37.9726 47.7839 37.67C48.2806 37.3591 48.6877 36.9185 48.9982 36.3538C49.5852 35.286 49.8291 33.7672 49.8291 31.6955L48.8388 31.8347L47.8486 31.9738C47.8486 33.9822 47.5934 35.0295 47.3011 35.5613C47.1718 35.7964 47.0442 35.914 46.9259 35.988C46.7945 36.0702 46.6066 36.1404 46.3196 36.1807V37.1807ZM48.8388 31.8347L49.8291 31.6955C49.8291 29.6788 49.6398 28.2414 49.0726 27.3556C48.7646 26.8745 48.3482 26.5575 47.8314 26.4023C47.3391 26.2544 46.8143 26.2712 46.3196 26.3407V27.3407V28.3407C46.6805 28.29 46.8984 28.3044 47.0389 28.3466C47.1549 28.3814 47.2614 28.4469 47.3692 28.6154C47.6339 29.0287 47.8486 29.9585 47.8486 31.9738L48.8388 31.8347ZM46.3196 27.3407V26.3407L45.4165 26.4677V27.4677V28.4677L46.3196 28.3407V27.3407ZM45.4165 27.4677L44.4262 27.6068V37.4468L45.4165 37.3077L46.4067 37.1685V27.3285L45.4165 27.4677ZM45.4165 52.9557V53.9557L46.6048 53.7887V52.7887V51.7887L45.4165 51.9557V52.9557ZM46.6048 52.7887V53.7887C47.2184 53.7024 47.8152 53.4896 48.3514 53.0921C48.8894 52.6933 49.298 52.1592 49.5986 51.5333C50.1772 50.3283 50.3995 48.6888 50.3995 46.6393L49.4092 46.7785L48.419 46.9177C48.419 48.9002 48.1897 50.1322 47.8414 50.8575C47.6786 51.1967 47.5049 51.3925 47.3388 51.5156C47.171 51.64 46.9419 51.7413 46.6048 51.7887V52.7887ZM49.4092 46.7785L50.3995 46.6393C50.3995 44.3829 50.1037 42.7548 49.4235 41.7209C49.0705 41.1844 48.6128 40.8061 48.0542 40.597C47.503 40.3907 46.9092 40.3699 46.3196 40.4527V41.4527V42.4527C46.6806 42.402 46.9484 42.4281 47.1547 42.5053C47.3538 42.5798 47.5496 42.7216 47.7313 42.9979C48.1206 43.5897 48.419 44.7581 48.419 46.9177L49.4092 46.7785ZM46.3196 41.4527V40.4527L45.4165 40.5797V41.5797V42.5797L46.3196 42.4527V41.4527ZM45.4165 41.5797L44.4262 41.7188V53.0948L45.4165 52.9557L46.4067 52.8165V41.4405L45.4165 41.5797ZM57.7164 55.979L56.7261 56.1182V57.1182L57.7164 56.979V55.979ZM57.7164 20.459V19.459L56.7261 19.5982V20.5982L57.7164 20.459ZM70.3126 18.6887L71.3028 18.5496V17.5496L70.3126 17.6887V18.6887ZM70.3126 24.1127V25.1127L71.3028 24.9736V23.9736L70.3126 24.1127ZM63.8481 25.0213V24.0213L62.8578 24.1604V25.1604L63.8481 25.0213ZM63.8481 33.7093L62.8578 33.8484V34.8484L63.8481 34.7093V33.7093ZM68.3637 33.0746L69.354 32.9355V31.9355L68.3637 32.0746V33.0746ZM68.3637 38.1626V39.1626L69.354 39.0235V38.0235L68.3637 38.1626ZM63.8481 38.7973V37.7973L62.8578 37.9364V38.9364L63.8481 38.7973ZM63.8481 49.8853L62.8578 50.0244V51.0244L63.8481 50.8853V49.8853ZM70.5502 48.9433L71.5405 48.8042V47.8042L70.5502 47.9433V48.9433ZM70.5502 54.1753V55.1753L71.5405 55.0362V54.0362L70.5502 54.1753ZM57.7164 55.979L58.7066 55.8399V20.3199L57.7164 20.459L56.7261 20.5982V56.1182L57.7164 55.979ZM57.7164 20.459V21.459L70.3126 19.6887V18.6887V17.6887L57.7164 19.459V20.459ZM70.3126 18.6887L69.3223 18.8279V24.2519L70.3126 24.1127L71.3028 23.9736V18.5496L70.3126 18.6887ZM70.3126 24.1127V23.1127L63.8481 24.0213V25.0213V26.0213L70.3126 25.1127V24.1127ZM63.8481 25.0213L62.8578 25.1604V33.8484L63.8481 33.7093L64.8384 33.5701V24.8821L63.8481 25.0213ZM63.8481 33.7093V34.7093L68.3637 34.0746V33.0746V32.0746L63.8481 32.7093V33.7093ZM68.3637 33.0746L67.3734 33.2138V38.3018L68.3637 38.1626L69.354 38.0235V32.9355L68.3637 33.0746ZM68.3637 38.1626V37.1626L63.8481 37.7973V38.7973V39.7973L68.3637 39.1626V38.1626ZM63.8481 38.7973L62.8578 38.9364V50.0244L63.8481 49.8853L64.8384 49.7461V38.6581L63.8481 38.7973ZM63.8481 49.8853V50.8853L70.5502 49.9433V48.9433V47.9433L63.8481 48.8853V49.8853ZM70.5502 48.9433L69.56 49.0825V54.3145L70.5502 54.1753L71.5405 54.0362V48.8042L70.5502 48.9433ZM70.5502 54.1753V53.1753L57.7164 54.979V55.979V56.979L70.5502 55.1753V54.1753ZM88.212 29.4691L88.2526 30.4626L89.211 30.2882L89.2023 29.3208L88.212 29.4691ZM82.413 30.5241L81.4229 30.6783L81.4381 31.7023L82.4536 31.5176L82.413 30.5241ZM82.6507 39.2267L82.6912 38.2219L81.6899 38.3212L81.6608 39.3369L82.6507 39.2267ZM88.4497 38.6517L89.4389 38.5587L89.4847 37.5483L88.4902 37.6469L88.4497 38.6517ZM80.3216 53.1381V52.1381C78.9807 52.3265 77.8928 52.21 76.999 51.7958C76.1082 51.383 75.335 50.6397 74.6953 49.4376C73.3912 46.987 72.7084 42.7613 72.7084 36.112L71.7181 36.2512L70.7279 36.3904C70.7279 43.0851 71.3998 47.717 72.9238 50.581C73.6982 52.0361 74.7076 53.0643 75.9824 53.6551C77.2543 54.2445 78.7154 54.3638 80.3216 54.1381V53.1381ZM71.7181 36.2512L72.7084 36.112C72.7084 29.4651 73.4026 25.0446 74.7072 22.2263C75.3476 20.8429 76.1189 19.8819 77.0021 19.2199C77.8874 18.5564 78.9597 18.1375 80.274 17.9527V16.9527V15.9527C78.6889 16.1755 77.242 16.7046 75.9793 17.651C74.7146 18.5989 73.7094 19.9096 72.9357 21.5809C71.4122 24.8721 70.7279 29.6933 70.7279 36.3904L71.7181 36.2512ZM80.274 16.9527V17.9527C81.5928 17.7674 82.6312 17.8061 83.459 18.068C84.2688 18.3241 84.9288 18.8098 85.4665 19.6197C86.5836 21.3023 87.1744 24.3782 87.2218 29.6174L88.212 29.4691L89.2023 29.3208C89.1546 24.0614 88.5809 20.4849 87.1549 18.337C86.4211 17.2316 85.4651 16.5074 84.2754 16.1311C83.1039 15.7604 81.7597 15.744 80.274 15.9527V16.9527ZM88.212 29.4691L88.1715 28.4757L82.3725 29.5307L82.413 30.5241L82.4536 31.5176L88.2526 30.4626L88.212 29.4691ZM82.413 30.5241L83.4032 30.3699C83.3558 27.1975 83.2039 25.0579 82.8342 23.7298C82.648 23.0609 82.3774 22.4829 81.9358 22.1003C81.4557 21.6843 80.8706 21.5809 80.274 21.6647V22.6647V23.6647C80.438 23.6417 80.4887 23.6709 80.5373 23.7131C80.6246 23.7887 80.7759 23.9945 80.9224 24.5208C81.2181 25.5831 81.3751 27.4802 81.4229 30.6783L82.413 30.5241ZM80.274 22.6647V21.6647C79.4094 21.7863 78.7125 22.2898 78.2323 23.0817C77.8007 23.7935 77.5526 24.7191 77.389 25.7741C77.059 27.9012 77.0022 31.0922 77.0022 35.5086L77.9925 35.3694L78.9827 35.2302C78.9827 30.7666 79.0447 27.7489 79.3446 25.8155C79.4959 24.8403 79.6904 24.2726 79.8782 23.9629C80.0174 23.7333 80.1168 23.6869 80.274 23.6647V22.6647ZM77.9925 35.3694L77.0022 35.5086C77.0022 40.0464 77.0709 43.2571 77.4136 45.2982C77.5836 46.3108 77.8392 47.1632 78.279 47.7482C78.7686 48.3993 79.4682 48.69 80.3216 48.5701V47.5701V46.5701C80.153 46.5938 80.0505 46.5712 79.9117 46.3866C79.7232 46.1359 79.5242 45.6302 79.3675 44.6967C79.0567 42.8456 78.9827 39.8124 78.9827 35.2302L77.9925 35.3694ZM80.3216 47.5701V48.5701C80.8765 48.4921 81.472 48.29 81.99 47.7866C82.486 47.3046 82.7845 46.6672 82.9869 45.9597C83.3821 44.5787 83.5463 42.414 83.6405 39.1166L82.6507 39.2267L81.6608 39.3369C81.565 42.6901 81.3965 44.5803 81.0905 45.6498C80.9423 46.1675 80.7982 46.3543 80.7312 46.4194C80.6863 46.4632 80.5985 46.5311 80.3216 46.5701V47.5701ZM82.6507 39.2267L82.6101 40.2316L88.4091 39.6566L88.4497 38.6517L88.4902 37.6469L82.6912 38.2219L82.6507 39.2267ZM88.4497 38.6517L87.4605 38.7448C87.2938 42.4225 86.9253 45.62 85.8645 47.9884C85.3454 49.1474 84.6777 50.0662 83.8163 50.747C82.9569 51.4263 81.8324 51.9257 80.3216 52.1381V53.1381V54.1381C82.138 53.8828 83.6517 53.2555 84.8881 52.2782C86.1227 51.3024 87.0086 50.0349 87.6482 48.6071C88.9046 45.8018 89.2728 42.2238 89.4389 38.5587L88.4497 38.6517ZM98.3343 50.6065V49.6065C97.0118 49.7924 95.924 49.6696 95.021 49.2452C94.1193 48.8214 93.3308 48.0633 92.6757 46.8514C91.343 44.3859 90.6261 40.1637 90.6261 33.5939L89.6358 33.733L88.6455 33.8722C88.6455 40.5024 89.3545 45.1278 90.9095 48.0045C91.6982 49.4636 92.7189 50.5003 93.9963 51.1007C95.2724 51.7005 96.7336 51.8315 98.3343 51.6065V50.6065ZM89.6358 33.733L90.6261 33.5939C90.6261 27.024 91.343 22.6003 92.6757 19.7602C93.3308 18.3642 94.1193 17.3845 95.021 16.7072C95.924 16.029 97.0118 15.6004 98.3343 15.4145V14.4145V13.4145C96.7336 13.6395 95.2724 14.1812 93.9963 15.1397C92.7189 16.0992 91.6982 17.4228 90.9095 19.1036C89.3545 22.4173 88.6455 27.242 88.6455 33.8722L89.6358 33.733ZM98.3343 14.4145V15.4145C99.6569 15.2287 100.745 15.3515 101.648 15.7759C102.549 16.1997 103.338 16.9578 103.993 18.1697C105.326 20.6352 106.043 24.8574 106.043 31.4272L107.033 31.288L108.023 31.1489C108.023 24.5187 107.314 19.8933 105.759 17.0166C104.97 15.5575 103.95 14.5208 102.672 13.9204C101.396 13.3205 99.935 13.1896 98.3343 13.4145V14.4145ZM107.033 31.288L106.043 31.4272C106.043 37.997 105.326 42.4207 103.993 45.2609C103.338 46.6569 102.549 47.6366 101.648 48.3139C100.745 48.9921 99.6569 49.4207 98.3343 49.6065V50.6065V51.6065C99.935 51.3816 101.396 50.8399 102.672 49.8814C103.95 48.9219 104.97 47.5983 105.759 45.9175C107.314 42.6038 108.023 37.779 108.023 31.1489L107.033 31.288ZM98.3343 45.0385V46.0385C99.1677 45.9214 99.8788 45.4728 100.393 44.6933C100.856 43.9929 101.126 43.0772 101.306 42.0231C101.668 39.901 101.749 36.6643 101.749 32.0307L100.758 32.1698L99.7682 32.309C99.7682 36.9874 99.6821 40.0381 99.3555 41.9489C99.1911 42.9111 98.9856 43.4483 98.7974 43.7333C98.6614 43.9393 98.5467 44.0087 98.3343 44.0385V45.0385ZM100.758 32.1698L101.749 32.0307C101.749 27.3983 101.669 24.2178 101.305 22.2317C101.125 21.2445 100.853 20.4184 100.385 19.8599C99.8627 19.2377 99.1511 19.0117 98.3343 19.1265V20.1265V21.1265C98.5632 21.0944 98.6775 21.1363 98.8062 21.2897C98.9882 21.5067 99.1921 21.9638 99.3561 22.8602C99.682 24.6412 99.7682 27.6294 99.7682 32.309L100.758 32.1698ZM98.3343 20.1265V19.1265C97.5204 19.2409 96.8171 19.6732 96.3055 20.4412C95.8473 21.1289 95.5816 22.0282 95.4044 23.064C95.0476 25.1495 94.9674 28.3505 94.9674 32.9837L95.9577 32.8446L96.9479 32.7054C96.9479 28.0266 97.0341 25.0123 97.3546 23.1385C97.5161 22.1947 97.7168 21.6785 97.8959 21.4097C98.0215 21.221 98.1263 21.1558 98.3343 21.1265V20.1265ZM95.9577 32.8446L94.9674 32.9837C94.9674 37.6182 95.0478 40.8304 95.4039 42.8496C95.5807 43.852 95.8448 44.6903 96.297 45.2611C96.8009 45.8973 97.5035 46.1553 98.3343 46.0385V45.0385V44.0385C98.1431 44.0654 98.0376 44.035 97.9044 43.8668C97.7193 43.6331 97.517 43.1509 97.3552 42.2329C97.0339 40.4114 96.9479 37.3829 96.9479 32.7054L95.9577 32.8446ZM109.427 48.7116L108.437 48.8508V49.8508L109.427 49.7116V48.7116ZM109.427 13.1916V12.1916L108.437 12.3308V13.3308L109.427 13.1916ZM116.699 12.1695L117.682 11.904L117.571 11.0471L116.699 11.1695V12.1695ZM119.504 33.8074L118.522 34.0729L118.633 34.9298L119.504 34.8074V33.8074ZM119.551 33.8007V34.8007L120.423 34.6782L120.534 33.7901L119.551 33.8007ZM122.356 11.3745V10.3745L121.485 10.497L121.374 11.3851L122.356 11.3745ZM129.628 10.3524L130.619 10.2133V9.21327L129.628 9.35245V10.3524ZM129.628 45.8724V46.8724L130.619 46.7333V45.7333L129.628 45.8724ZM123.829 46.6874L122.839 46.8266V47.8266L123.829 47.6874V46.6874ZM123.877 23.8328L124.867 23.6936V22.6936L123.877 22.8328V23.8328ZM123.782 23.8461V22.8461L122.862 22.9754L122.794 23.911L123.782 23.8461ZM123.021 31.345L124.001 31.3548L124.002 31.3429L124.004 31.3309L123.021 31.345ZM120.74 47.1217V48.1217L121.593 48.0017L121.719 47.1315L120.74 47.1217ZM117.555 47.5692L116.576 47.8577L116.704 48.6888L117.555 48.5692V47.5692ZM115.226 32.4886L114.245 32.7616L114.246 32.7693L114.247 32.7771L115.226 32.4886ZM114.465 25.2035L115.452 24.9782L115.373 24.0759L114.465 24.2035V25.2035ZM114.37 25.2168V24.2168L113.332 24.3628L113.381 25.4034L114.37 25.2168ZM114.418 48.0101V49.0101L115.408 48.871V47.871L114.418 48.0101ZM109.427 48.7116L110.417 48.5724V13.0524L109.427 13.1916L108.437 13.3308V48.8508L109.427 48.7116ZM109.427 13.1916V14.1916L116.699 13.1695V12.1695V11.1695L109.427 12.1916V13.1916ZM116.699 12.1695L115.717 12.435L118.522 34.0729L119.504 33.8074L120.486 33.5418L117.682 11.904L116.699 12.1695ZM119.504 33.8074V34.8074L119.551 34.8007V33.8007V32.8007L119.504 32.8074V33.8074ZM119.551 33.8007L120.534 33.7901L123.338 11.364L122.356 11.3745L121.374 11.3851L118.569 33.8112L119.551 33.8007ZM122.356 11.3745V12.3745L129.628 11.3524V10.3524V9.35245L122.356 10.3745V11.3745ZM129.628 10.3524L128.638 10.4916V46.0116L129.628 45.8724L130.619 45.7333V10.2133L129.628 10.3524ZM129.628 45.8724V44.8724L123.829 45.6874V46.6874V47.6874L129.628 46.8724V45.8724ZM123.829 46.6874L124.82 46.5483V30.6123L123.829 30.7514L122.839 30.8906V46.8266L123.829 46.6874ZM123.829 30.7514L124.82 30.6123C124.82 29.3459 124.831 28.0889 124.843 26.9111C124.855 25.7358 124.867 24.636 124.867 23.6936L123.877 23.8328L122.887 23.9719C122.887 24.9016 122.875 25.989 122.863 27.1691C122.851 28.3467 122.839 29.613 122.839 30.8906L123.829 30.7514ZM123.877 23.8328V22.8328L123.782 22.8461V23.8461V24.8461L123.877 24.8328V23.8328ZM123.782 23.8461L122.794 23.911C122.606 26.5039 122.276 29.4103 122.039 31.3591L123.021 31.345L124.004 31.3309C124.242 29.3729 124.577 26.4258 124.769 23.7812L123.782 23.8461ZM123.021 31.345L122.042 31.3352L119.76 47.1119L120.74 47.1217L121.719 47.1315L124.001 31.3548L123.021 31.345ZM120.74 47.1217V46.1217L117.555 46.5692V47.5692V48.5692L120.74 48.1217V47.1217ZM117.555 47.5692L118.534 47.2808L116.205 32.2001L115.226 32.4886L114.247 32.7771L116.576 47.8577L117.555 47.5692ZM115.226 32.4886L116.207 32.2156C115.925 30.1689 115.737 28.248 115.452 24.9782L114.465 25.2035L113.479 25.4287C113.764 28.7028 113.956 30.6644 114.245 32.7616L115.226 32.4886ZM114.465 25.2035V24.2035L114.37 24.2168V25.2168V26.2168L114.465 26.2035V25.2035ZM114.37 25.2168L113.381 25.4034C113.427 26.3739 113.428 29.6016 113.428 32.2133L114.418 32.0741L115.408 31.935C115.408 29.3627 115.408 26.0624 115.359 25.0302L114.37 25.2168ZM114.418 32.0741L113.428 32.2133V48.1493L114.418 48.0101L115.408 47.871V31.935L114.418 32.0741ZM114.418 48.0101V47.0101L109.427 47.7116V48.7116V49.7116L114.418 49.0101V48.0101ZM132.683 45.4432L131.692 45.5824V46.5824L132.683 46.4432V45.4432ZM132.683 9.92319V8.92319L131.692 9.06236V10.0624L132.683 9.92319ZM145.279 8.1529L146.269 8.01373V7.01373L145.279 7.1529V8.1529ZM145.279 13.5769V14.5769L146.269 14.4377V13.4377L145.279 13.5769ZM138.814 14.4854V13.4854L137.824 13.6246V14.6246L138.814 14.4854ZM138.814 23.1734L137.824 23.3126V24.3126L138.814 24.1734V23.1734ZM143.33 22.5388L144.32 22.3996V21.3996L143.33 21.5388V22.5388ZM143.33 27.6268V28.6268L144.32 28.4876V27.4876L143.33 27.6268ZM138.814 28.2614V27.2614L137.824 27.4006V28.4006L138.814 28.2614ZM138.814 39.3494L137.824 39.4886V40.4886L138.814 40.3494V39.3494ZM145.517 38.4075L146.507 38.2683V37.2683L145.517 37.4075V38.4075ZM145.517 43.6395V44.6395L146.507 44.5003V43.5003L145.517 43.6395ZM132.683 45.4432L133.673 45.304V9.78401L132.683 9.92319L131.692 10.0624V45.5824L132.683 45.4432ZM132.683 9.92319V10.9232L145.279 9.1529V8.1529V7.1529L132.683 8.92319V9.92319ZM145.279 8.1529L144.289 8.29208V13.7161L145.279 13.5769L146.269 13.4377V8.01373L145.279 8.1529ZM145.279 13.5769V12.5769L138.814 13.4854V14.4854V15.4854L145.279 14.5769V13.5769ZM138.814 14.4854L137.824 14.6246V23.3126L138.814 23.1734L139.805 23.0343V14.3463L138.814 14.4854ZM138.814 23.1734V24.1734L143.33 23.5388V22.5388V21.5388L138.814 22.1734V23.1734ZM143.33 22.5388L142.34 22.678V27.766L143.33 27.6268L144.32 27.4876V22.3996L143.33 22.5388ZM143.33 27.6268V26.6268L138.814 27.2614V28.2614V29.2614L143.33 28.6268V27.6268ZM138.814 28.2614L137.824 28.4006V39.4886L138.814 39.3494L139.805 39.2103V28.1223L138.814 28.2614ZM138.814 39.3494V40.3494L145.517 39.4075V38.4075V37.4075L138.814 38.3494V39.3494ZM145.517 38.4075L144.526 38.5467V43.7787L145.517 43.6395L146.507 43.5003V38.2683L145.517 38.4075ZM145.517 43.6395V42.6395L132.683 44.4432V45.4432V46.4432L145.517 44.6395V43.6395ZM10.1153 111.005V110.005C8.79279 110.191 7.70499 110.068 6.80206 109.644C5.90034 109.22 5.11185 108.462 4.45676 107.25C3.12406 104.784 2.40709 100.562 2.40709 93.9922L1.41683 94.1314L0.426557 94.2706C0.426557 100.901 1.13558 105.526 2.6905 108.403C3.47922 109.862 4.49995 110.899 5.77731 111.499C7.05347 112.099 8.51462 112.23 10.1153 112.005V111.005ZM1.41683 94.1314L2.40709 93.9922C2.40709 87.4224 3.12406 82.9987 4.45676 80.1586C5.11185 78.7625 5.90034 77.7828 6.80206 77.1055C7.70499 76.4273 8.79279 75.9988 10.1153 75.8129V74.8129V73.8129C8.51462 74.0379 7.05347 74.5795 5.77731 75.5381C4.49995 76.4975 3.47922 77.8211 2.6905 79.502C1.13558 82.8157 0.426557 87.6404 0.426557 94.2706L1.41683 94.1314ZM10.1153 74.8129V75.8129C11.4379 75.627 12.5257 75.7498 13.4286 76.1742C14.3303 76.5981 15.1188 77.3561 15.7739 78.5681C17.1066 81.0336 17.8236 85.2558 17.8236 91.8256L18.8139 91.6864L19.8041 91.5472C19.8041 84.9171 19.0951 80.2916 17.5402 77.415C16.7515 75.9558 15.7307 74.9192 14.4534 74.3188C13.1772 73.7189 11.7161 73.5879 10.1153 73.8129V74.8129ZM18.8139 91.6864L17.8236 91.8256C17.8236 98.3954 17.1066 102.819 15.7739 105.659C15.1188 107.055 14.3303 108.035 13.4286 108.712C12.5257 109.39 11.4379 109.819 10.1153 110.005V111.005V112.005C11.7161 111.78 13.1772 111.238 14.4534 110.28C15.7307 109.32 16.7515 107.997 17.5402 106.316C19.0951 103.002 19.8041 98.1774 19.8041 91.5472L18.8139 91.6864ZM10.1153 105.437V106.437C10.9487 106.32 11.6598 105.871 12.1744 105.092C12.6368 104.391 12.9067 103.476 13.0869 102.421C13.4495 100.299 13.5298 97.0627 13.5298 92.429L12.5395 92.5682L11.5492 92.7074C11.5492 97.3858 11.4631 100.436 11.1366 102.347C10.9721 103.309 10.7667 103.847 10.5785 104.132C10.4425 104.338 10.3277 104.407 10.1153 104.437V105.437ZM12.5395 92.5682L13.5298 92.429C13.5298 87.7966 13.4497 84.6162 13.0863 82.6301C12.9057 81.6429 12.6342 80.8168 12.1657 80.2583C11.6437 79.6361 10.9322 79.4101 10.1153 79.5249V80.5249V81.5249C10.3442 81.4927 10.4586 81.5347 10.5872 81.6881C10.7693 81.9051 10.9731 82.3622 11.1371 83.2586C11.463 85.0396 11.5492 88.0278 11.5492 92.7074L12.5395 92.5682ZM10.1153 80.5249V79.5249C9.30141 79.6393 8.59813 80.0716 8.08654 80.8396C7.62837 81.5273 7.36265 82.4266 7.18544 83.4624C6.82866 85.5478 6.74843 88.7489 6.74843 93.3821L7.7387 93.2429L8.72897 93.1038C8.72897 88.425 8.8151 85.4106 9.13566 83.5369C9.29713 82.5931 9.49782 82.0768 9.67689 81.808C9.80254 81.6194 9.90731 81.5541 10.1153 81.5249V80.5249ZM7.7387 93.2429L6.74843 93.3821C6.74843 98.0166 6.8288 101.229 7.18491 103.248C7.36169 104.25 7.62587 105.089 8.078 105.659C8.58198 106.296 9.28458 106.554 10.1153 106.437V105.437V104.437C9.92414 104.464 9.81869 104.433 9.68543 104.265C9.50032 104.031 9.29808 103.549 9.1362 102.631C8.81496 100.81 8.72897 97.7813 8.72897 93.1038L7.7387 93.2429ZM21.1129 73.6033V72.6033L20.1226 72.7425V73.7425L21.1129 73.6033ZM27.2446 72.7415L28.2349 72.6024V71.6024L27.2446 71.7415V72.7415ZM31.1423 72.1938V71.1938L30.1521 71.3329V72.3329L31.1423 72.1938ZM36.9889 71.3721L37.9791 71.2329V70.2329L36.9889 70.3721V71.3721ZM29.0033 108.35V107.35C26.221 107.741 24.6027 107.135 23.6195 105.876C22.5802 104.544 22.1032 102.308 22.1032 99.0481L21.1129 99.1873L20.1226 99.3265C20.1226 102.691 20.5962 105.457 22.0049 107.261C23.4696 109.137 25.7966 109.801 29.0033 109.35V108.35ZM21.1129 99.1873L22.1032 99.0481V73.4641L21.1129 73.6033L20.1226 73.7425V99.3265L21.1129 99.1873ZM21.1129 73.6033V74.6033L27.2446 73.7415V72.7415V71.7415L21.1129 72.6033V73.6033ZM27.2446 72.7415L26.2544 72.8807V98.0807L27.2446 97.9415L28.2349 97.8024V72.6024L27.2446 72.7415ZM27.2446 97.9415L26.2544 98.0807C26.2544 100.137 26.3284 101.665 26.6756 102.646C26.8598 103.166 27.1506 103.625 27.6309 103.905C28.1121 104.185 28.662 104.214 29.1935 104.14V103.14V102.14C28.9169 102.179 28.8192 102.137 28.7834 102.116C28.7469 102.095 28.6514 102.023 28.5504 101.738C28.3272 101.107 28.2349 99.9225 28.2349 97.8024L27.2446 97.9415ZM29.1935 103.14V104.14C29.7057 104.068 30.2436 103.894 30.7204 103.497C31.2 103.096 31.4975 102.57 31.6885 102.004C32.0469 100.942 32.1326 99.41 32.1326 97.3506L31.1423 97.4898L30.1521 97.6289C30.1521 99.7455 30.0476 100.929 29.8237 101.592C29.7236 101.889 29.6319 101.978 29.599 102.006C29.5634 102.035 29.4656 102.101 29.1935 102.14V103.14ZM31.1423 97.4898L32.1326 97.3506V72.0546L31.1423 72.1938L30.1521 72.3329V97.6289L31.1423 97.4898ZM31.1423 72.1938V73.1938L36.9889 72.3721V71.3721V70.3721L31.1423 71.1938V72.1938ZM36.9889 71.3721L35.9986 71.5113V96.9513L36.9889 96.8121L37.9791 96.6729V71.2329L36.9889 71.3721ZM36.9889 96.8121L35.9986 96.9513C35.9986 100.254 35.4994 102.665 34.4362 104.318C33.4273 105.886 31.7815 106.96 29.0033 107.35V108.35V109.35C32.2143 108.899 34.5613 107.564 36.0478 105.254C37.4801 103.027 37.9791 100.091 37.9791 96.6729L36.9889 96.8121ZM39.9147 106.481L38.9245 106.62V107.62L39.9147 107.481V106.481ZM39.9147 70.9609V69.9609L38.9245 70.1001V71.1001L39.9147 70.9609ZM52.4159 89.844L51.8622 89.0927L51.2841 89.5677L51.4563 90.2258L52.4159 89.844ZM56.171 104.196V105.196L57.4453 105.017L57.1306 103.814L56.171 104.196ZM50.1343 105.045L49.1719 105.416L49.3555 106.154L50.1343 106.045V105.045ZM47.0447 92.6148L48.007 92.2439L47.8235 91.5054L47.0447 91.6148V92.6148ZM45.9039 92.7752V91.7752L44.9136 91.9143V92.9143L45.9039 92.7752ZM45.9039 105.639V106.639L46.8941 106.5V105.5L45.9039 105.639ZM45.9039 88.1672L44.9136 88.3063V89.3063L45.9039 89.1672V88.1672ZM45.9039 75.5432V74.5432L44.9136 74.6823V75.6823L45.9039 75.5432ZM39.9147 106.481L40.905 106.342V70.8217L39.9147 70.9609L38.9245 71.1001V106.62L39.9147 106.481ZM39.9147 70.9609V71.9609L47.1397 70.9455V69.9455V68.9455L39.9147 69.9609V70.9609ZM47.1397 69.9455V70.9455C49.3466 70.6353 51.1959 71.0777 52.5113 72.4255C53.8449 73.792 54.7529 76.2146 54.7529 80.1555L55.7432 80.0163L56.7335 79.8772C56.7335 75.658 55.764 72.7046 54.0079 70.9053C52.2336 69.0872 49.7812 68.5742 47.1397 68.9455V69.9455ZM55.7432 80.0163L54.7529 80.1555C54.7529 84.8938 53.4906 87.7548 51.8622 89.0927L52.4159 89.844L52.9696 90.5952C55.429 88.5746 56.7335 84.8348 56.7335 79.8772L55.7432 80.0163ZM52.4159 89.844L51.4563 90.2258L55.2114 104.578L56.171 104.196L57.1306 103.814L53.3755 89.4621L52.4159 89.844ZM56.171 104.196V103.196L50.1343 104.045V105.045V106.045L56.171 105.196V104.196ZM50.1343 105.045L51.0967 104.674L48.007 92.2439L47.0447 92.6148L46.0823 92.9858L49.1719 105.416L50.1343 105.045ZM47.0447 92.6148V91.6148L45.9039 91.7752V92.7752V93.7752L47.0447 93.6148V92.6148ZM45.9039 92.7752L44.9136 92.9143V105.778L45.9039 105.639L46.8941 105.5V92.636L45.9039 92.7752ZM45.9039 105.639V104.639L39.9147 105.481V106.481V107.481L45.9039 106.639V105.639ZM45.9039 88.1672V89.1672L47.0447 89.0068V88.0068V87.0068L45.9039 87.1672V88.1672ZM47.0447 88.0068V89.0068C47.6059 88.928 48.1805 88.7238 48.7008 88.2967C49.217 87.873 49.5909 87.3029 49.861 86.6336C50.3815 85.3436 50.6017 83.4645 50.6017 80.8349L49.6114 80.9741L48.6212 81.1133C48.6212 83.7157 48.3898 85.2361 48.0428 86.096C47.8792 86.5016 47.7154 86.6941 47.5943 86.7935C47.4774 86.8894 47.3152 86.9688 47.0447 87.0068V88.0068ZM49.6114 80.9741L50.6017 80.8349C50.6017 78.3813 50.385 76.7086 49.8293 75.6794C49.5336 75.1318 49.1277 74.7374 48.5942 74.5245C48.0751 74.3175 47.5193 74.3161 46.9971 74.3895V75.3895V76.3895C47.3306 76.3427 47.5293 76.3673 47.6609 76.4197C47.778 76.4665 47.9187 76.5653 48.0627 76.8319C48.3863 77.4311 48.6212 78.6709 48.6212 81.1133L49.6114 80.9741ZM46.9971 75.3895V74.3895L45.9039 74.5432V75.5432V76.5432L46.9971 76.3895V75.3895ZM45.9039 75.5432L44.9136 75.6823V88.3063L45.9039 88.1672L46.8941 88.028V75.404L45.9039 75.5432ZM64.5167 103.023L63.5264 103.162V104.162L64.5167 104.023V103.023ZM64.5167 67.5033V66.5033L63.5264 66.6425V67.6425L64.5167 67.5033ZM77.0179 86.3864L76.4642 85.6351L75.8861 86.1101L76.0583 86.7682L77.0179 86.3864ZM80.773 100.739V101.739L82.0472 101.56L81.7325 100.357L80.773 100.739ZM74.7363 101.587L73.7739 101.958L73.9575 102.696L74.7363 102.587V101.587ZM71.6466 89.1573L72.609 88.7863L72.4254 88.0478L71.6466 88.1573V89.1573ZM70.5059 89.3176V88.3176L69.5156 88.4568V89.4568L70.5059 89.3176ZM70.5059 102.182V103.182L71.4961 103.042V102.042L70.5059 102.182ZM70.5059 84.7096L69.5156 84.8488V85.8488L70.5059 85.7096V84.7096ZM70.5059 72.0856V71.0856L69.5156 71.2248V72.2248L70.5059 72.0856ZM64.5167 103.023L65.507 102.884V67.3641L64.5167 67.5033L63.5264 67.6425V103.162L64.5167 103.023ZM64.5167 67.5033V68.5033L71.7417 67.4879V66.4879V65.4879L64.5167 66.5033V67.5033ZM71.7417 66.4879V67.4879C73.9486 67.1777 75.7979 67.6202 77.1132 68.9679C78.4468 70.3344 79.3549 72.757 79.3549 76.6979L80.3452 76.5588L81.3354 76.4196C81.3354 72.2005 80.3659 69.247 78.6099 67.4477C76.8356 65.6297 74.3832 65.1167 71.7417 65.4879V66.4879ZM80.3452 76.5588L79.3549 76.6979C79.3549 81.4363 78.0926 84.2973 76.4642 85.6351L77.0179 86.3864L77.5716 87.1376C80.031 85.117 81.3354 81.3772 81.3354 76.4196L80.3452 76.5588ZM77.0179 86.3864L76.0583 86.7682L79.8134 101.12L80.773 100.739L81.7325 100.357L77.9775 86.0046L77.0179 86.3864ZM80.773 100.739V99.7386L74.7363 100.587V101.587V102.587L80.773 101.739V100.739ZM74.7363 101.587L75.6986 101.216L72.609 88.7863L71.6466 89.1573L70.6843 89.5282L73.7739 101.958L74.7363 101.587ZM71.6466 89.1573V88.1573L70.5059 88.3176V89.3176V90.3176L71.6466 90.1573V89.1573ZM70.5059 89.3176L69.5156 89.4568V102.321L70.5059 102.182L71.4961 102.042V89.1784L70.5059 89.3176ZM70.5059 102.182V101.182L64.5167 102.023V103.023V104.023L70.5059 103.182V102.182ZM70.5059 84.7096V85.7096L71.6466 85.5493V84.5493V83.5493L70.5059 83.7096V84.7096ZM71.6466 84.5493V85.5493C72.2079 85.4704 72.7825 85.2662 73.3028 84.8391C73.819 84.4154 74.1929 83.8453 74.463 83.176C74.9835 81.886 75.2037 80.0069 75.2037 77.3773L74.2134 77.5165L73.2231 77.6557C73.2231 80.2581 72.9918 81.7785 72.6448 82.6384C72.4811 83.0441 72.3174 83.2365 72.1963 83.3359C72.0794 83.4318 71.9172 83.5112 71.6466 83.5493V84.5493ZM74.2134 77.5165L75.2037 77.3773C75.2037 74.9237 74.987 73.251 74.4312 72.2218C74.1355 71.6742 73.7296 71.2798 73.1961 71.067C72.6771 70.8599 72.1213 70.8585 71.5991 70.9319V71.9319V72.9319C71.9325 72.8851 72.1313 72.9097 72.2629 72.9622C72.38 73.0089 72.5207 73.1077 72.6647 73.3743C72.9882 73.9735 73.2231 75.2133 73.2231 77.6557L74.2134 77.5165ZM71.5991 71.9319V70.9319L70.5059 71.0856V72.0856V73.0856L71.5991 72.9319V71.9319ZM70.5059 72.0856L69.5156 72.2248V84.8488L70.5059 84.7096L71.4961 84.5704V71.9464L70.5059 72.0856ZM82.6665 100.473L81.6762 100.612V101.612L82.6665 101.473V100.473ZM82.6665 64.9525V63.9525L81.6762 64.0917V65.0917L82.6665 64.9525ZM95.2627 63.1822L96.253 63.0431V62.0431L95.2627 62.1822V63.1822ZM95.2627 68.6062V69.6062L96.253 69.4671V68.4671L95.2627 68.6062ZM88.7982 69.5148V68.5148L87.8079 68.6539V69.6539L88.7982 69.5148ZM88.7982 78.2028L87.8079 78.3419V79.3419L88.7982 79.2028V78.2028ZM93.3138 77.5681L94.3041 77.429V76.429L93.3138 76.5681V77.5681ZM93.3138 82.6561V83.6561L94.3041 83.517V82.517L93.3138 82.6561ZM88.7982 83.2908V82.2908L87.8079 82.4299V83.4299L88.7982 83.2908ZM88.7982 94.3788L87.8079 94.5179V95.5179L88.7982 95.3788V94.3788ZM95.5003 93.4368L96.4906 93.2977V92.2977L95.5003 92.4368V93.4368ZM95.5003 98.6688V99.6688L96.4906 99.5297V98.5297L95.5003 98.6688ZM82.6665 100.473L83.6567 100.333V64.8133L82.6665 64.9525L81.6762 65.0917V100.612L82.6665 100.473ZM82.6665 64.9525V65.9525L95.2627 64.1822V63.1822V62.1822L82.6665 63.9525V64.9525ZM95.2627 63.1822L94.2724 63.3214V68.7454L95.2627 68.6062L96.253 68.4671V63.0431L95.2627 63.1822ZM95.2627 68.6062V67.6062L88.7982 68.5148V69.5148V70.5148L95.2627 69.6062V68.6062ZM88.7982 69.5148L87.8079 69.6539V78.3419L88.7982 78.2028L89.7885 78.0636V69.3756L88.7982 69.5148ZM88.7982 78.2028V79.2028L93.3138 78.5681V77.5681V76.5681L88.7982 77.2028V78.2028ZM93.3138 77.5681L92.3236 77.7073V82.7953L93.3138 82.6561L94.3041 82.517V77.429L93.3138 77.5681ZM93.3138 82.6561V81.6561L88.7982 82.2908V83.2908V84.2908L93.3138 83.6561V82.6561ZM88.7982 83.2908L87.8079 83.4299V94.5179L88.7982 94.3788L89.7885 94.2396V83.1516L88.7982 83.2908ZM88.7982 94.3788V95.3788L95.5003 94.4368V93.4368V92.4368L88.7982 93.3788V94.3788ZM95.5003 93.4368L94.5101 93.576V98.808L95.5003 98.6688L96.4906 98.5297V93.2977L95.5003 93.4368ZM95.5003 98.6688V97.6688L82.6665 99.4725V100.473V101.473L95.5003 99.6688V98.6688ZM96.3355 87.6555L96.2614 86.6687L95.2754 86.8819L95.3479 87.8676L96.3355 87.6555ZM102.039 86.4218L103.025 86.1885L102.933 85.2257L101.965 85.435L102.039 86.4218ZM102.42 81.9524L101.679 82.7201L101.681 82.7222L102.42 81.9524ZM112.639 70.9161L112.729 71.8994L113.689 71.6764L113.628 70.7135L112.639 70.9161ZM106.888 72.2524L105.899 72.4479L105.957 73.4728L106.977 73.2357L106.888 72.2524ZM107.316 77.2803L106.588 78.0609L106.592 78.0647L107.316 77.2803ZM104.749 97.705V96.705C103.173 96.9265 101.995 96.8174 101.099 96.4878C100.213 96.1618 99.549 95.6008 99.0353 94.8202C97.9734 93.2071 97.5616 90.685 97.3231 87.4433L96.3355 87.6555L95.3479 87.8676C95.5848 91.0872 96.0048 94.0641 97.3433 96.0976C98.0297 97.1404 98.9584 97.9395 100.208 98.3994C101.448 98.8556 102.95 98.9578 104.749 98.705V97.705ZM96.3355 87.6555L96.4096 88.6422L102.114 87.4086L102.039 86.4218L101.965 85.435L96.2614 86.6687L96.3355 87.6555ZM102.039 86.4218L101.054 86.6552C101.289 89.1155 101.545 90.8537 102.023 91.9399C102.272 92.5068 102.615 92.9795 103.124 93.2661C103.641 93.5572 104.221 93.5953 104.796 93.5144V92.5144V91.5144C104.493 91.557 104.347 91.517 104.257 91.466C104.158 91.4105 104.011 91.277 103.85 90.9115C103.508 90.133 103.265 88.7013 103.025 86.1885L102.039 86.4218ZM104.796 92.5144V93.5144C105.758 93.3792 106.619 92.8866 107.194 91.9775C107.725 91.1375 107.926 90.0756 107.926 88.9066L106.935 89.0457L105.945 89.1849C105.945 90.1759 105.765 90.7515 105.572 91.0573C105.422 91.2941 105.213 91.4558 104.796 91.5144V92.5144ZM106.935 89.0457L107.926 88.9066C107.926 87.1291 107.289 85.7629 106.384 84.5655C105.506 83.4027 104.305 82.318 103.158 81.1825L102.42 81.9524L101.681 82.7222C102.911 83.9408 103.968 84.8907 104.754 85.9301C105.513 86.9349 105.945 87.9384 105.945 89.1849L106.935 89.0457ZM102.42 81.9524L103.161 81.1846C100.516 78.5463 97.8962 76.0625 97.8962 71.2121L96.9059 71.3513L95.9156 71.4905C95.9156 77.2001 99.0944 80.1413 101.679 82.7201L102.42 81.9524ZM96.9059 71.3513L97.8962 71.2121C97.8962 68.6782 98.524 66.6661 99.6066 65.2385C100.67 63.8362 102.276 62.8606 104.511 62.5464V61.5464V60.5464C101.803 60.927 99.6062 62.1659 98.1029 64.1483C96.6187 66.1054 95.9156 68.6484 95.9156 71.4905L96.9059 71.3513ZM104.511 61.5464V62.5464C107.25 62.1616 108.828 62.7838 109.832 64.0903C110.901 65.4818 111.439 67.793 111.651 71.1187L112.639 70.9161L113.628 70.7135C113.412 67.3314 112.857 64.5402 111.454 62.715C109.986 60.8049 107.714 60.0963 104.511 60.5464V61.5464ZM112.639 70.9161L112.55 69.9328L106.798 71.2691L106.888 72.2524L106.977 73.2357L112.729 71.8994L112.639 70.9161ZM106.888 72.2524L107.876 72.057C107.735 69.5481 107.484 67.9757 107.012 67.0588C106.757 66.563 106.408 66.1963 105.924 66.0079C105.462 65.8278 104.987 65.8556 104.606 65.9091V66.9091V67.9091C104.868 67.8723 104.962 67.892 105.004 67.9081C105.024 67.916 105.111 67.9499 105.23 68.1815C105.507 68.7194 105.756 69.9088 105.899 72.4479L106.888 72.2524ZM104.606 66.9091V65.9091C103.64 66.0449 102.921 66.6528 102.503 67.4788C102.124 68.2276 102 69.1267 102 70.0114L102.99 69.8722L103.98 69.733C103.98 68.9858 104.094 68.4834 104.238 68.1987C104.303 68.0701 104.361 68.0125 104.396 67.9853C104.428 67.9611 104.486 67.926 104.606 67.9091V66.9091ZM102.99 69.8722L102 70.0114C102 73.9765 104.374 75.9499 106.588 78.0608L107.316 77.2803L108.043 76.4998C105.694 74.26 103.98 72.776 103.98 69.733L102.99 69.8722ZM107.316 77.2803L106.592 78.0647C109.336 80.6442 111.982 82.7837 111.982 88.0005L112.972 87.8614L113.962 87.7222C113.962 81.6109 110.714 79.0109 108.039 76.4959L107.316 77.2803ZM112.972 87.8614L111.982 88.0005C111.982 90.6659 111.29 92.6516 110.126 94.0357C108.967 95.4131 107.202 96.3603 104.749 96.705V97.705V98.705C107.572 98.3083 109.918 97.1656 111.552 95.2226C113.181 93.2862 113.962 90.7208 113.962 87.7222L112.972 87.8614ZM115.16 95.9059L114.169 96.0451V97.0451L115.16 96.9059V95.9059ZM115.16 60.3859V59.3859L114.169 59.5251V60.5251L115.16 60.3859ZM127.756 58.6156L128.746 58.4764V57.4764L127.756 57.6156V58.6156ZM127.756 64.0396V65.0396L128.746 64.9004V63.9004L127.756 64.0396ZM121.291 64.9481V63.9481L120.301 64.0873V65.0873L121.291 64.9481ZM121.291 73.6361L120.301 73.7753V74.7753L121.291 74.6361V73.6361ZM125.807 73.0015L126.797 72.8623V71.8623L125.807 72.0015V73.0015ZM125.807 78.0895V79.0895L126.797 78.9503V77.9503L125.807 78.0895ZM121.291 78.7241V77.7241L120.301 77.8633V78.8633L121.291 78.7241ZM121.291 89.8121L120.301 89.9513V90.9513L121.291 90.8121V89.8121ZM127.994 88.8702L128.984 88.731V87.731L127.994 87.8702V88.8702ZM127.994 94.1022V95.1022L128.984 94.963V93.963L127.994 94.1022ZM115.16 95.9059L116.15 95.7667V60.2467L115.16 60.3859L114.169 60.5251V96.0451L115.16 95.9059ZM115.16 60.3859V61.3859L127.756 59.6156V58.6156V57.6156L115.16 59.3859V60.3859ZM127.756 58.6156L126.766 58.7548V64.1788L127.756 64.0396L128.746 63.9004V58.4764L127.756 58.6156ZM127.756 64.0396V63.0396L121.291 63.9481V64.9481V65.9481L127.756 65.0396V64.0396ZM121.291 64.9481L120.301 65.0873V73.7753L121.291 73.6361L122.282 73.497V64.809L121.291 64.9481ZM121.291 73.6361V74.6361L125.807 74.0015V73.0015V72.0015L121.291 72.6361V73.6361ZM125.807 73.0015L124.817 73.1407V78.2287L125.807 78.0895L126.797 77.9503V72.8623L125.807 73.0015ZM125.807 78.0895V77.0895L121.291 77.7241V78.7241V79.7241L125.807 79.0895V78.0895ZM121.291 78.7241L120.301 78.8633V89.9513L121.291 89.8121L122.282 89.673V78.585L121.291 78.7241ZM121.291 89.8121V90.8121L127.994 89.8702V88.8702V87.8702L121.291 88.8121V89.8121ZM127.994 88.8702L127.003 89.0094V94.2414L127.994 94.1022L128.984 93.963V88.731L127.994 88.8702ZM127.994 94.1022V93.1022L115.16 94.9059V95.9059V96.9059L127.994 95.1022V94.1022ZM129.874 93.8379L128.884 93.977V94.977L129.874 94.8379V93.8379ZM129.874 58.3179V57.3179L128.884 57.457V58.457L129.874 58.3179ZM136.006 57.4561L136.996 57.3169V56.3169L136.006 56.4561V57.4561ZM136.006 87.7441L135.016 87.8833V88.8833L136.006 88.7441V87.7441ZM142.376 86.8489L143.366 86.7098V85.7098L142.376 85.8489V86.8489ZM142.376 92.0809V93.0809L143.366 92.9418V91.9418L142.376 92.0809ZM129.874 93.8379L130.865 93.6987V58.1787L129.874 58.3179L128.884 58.457V93.977L129.874 93.8379ZM129.874 58.3179V59.3179L136.006 58.4561V57.4561V56.4561L129.874 57.3179V58.3179ZM136.006 57.4561L135.016 57.5953V87.8833L136.006 87.7441L136.996 87.6049V57.3169L136.006 57.4561ZM136.006 87.7441V88.7441L142.376 87.8489V86.8489V85.8489L136.006 86.7441V87.7441ZM142.376 86.8489L141.385 86.9881V92.2201L142.376 92.0809L143.366 91.9418V86.7098L142.376 86.8489ZM142.376 92.0809V91.0809L129.874 92.8379V93.8379V94.8379L142.376 93.0809V92.0809ZM144.079 91.8416L143.088 91.9808V92.9808L144.079 92.8416V91.8416ZM144.079 56.3216V55.3216L143.088 55.4608V56.4608L144.079 56.3216ZM150.21 55.4598L151.201 55.3207V54.3207L150.21 54.4598V55.4598ZM150.21 85.7478L149.22 85.887V86.887L150.21 86.7478V85.7478ZM156.58 84.8527L157.57 84.7135V83.7135L156.58 83.8527V84.8527ZM156.58 90.0847V91.0847L157.57 90.9455V89.9455L156.58 90.0847ZM144.079 91.8416L145.069 91.7024V56.1824L144.079 56.3216L143.088 56.4608V91.9808L144.079 91.8416ZM144.079 56.3216V57.3216L150.21 56.4598V55.4598V54.4598L144.079 55.3216V56.3216ZM150.21 55.4598L149.22 55.599V85.887L150.21 85.7478L151.201 85.6087V55.3207L150.21 55.4598ZM150.21 85.7478V86.7478L156.58 85.8527V84.8527V83.8527L150.21 84.7478V85.7478ZM156.58 84.8527L155.589 84.9919V90.2239L156.58 90.0847L157.57 89.9455V84.7135L156.58 84.8527ZM156.58 90.0847V89.0847L144.079 90.8416V91.8416V92.8416L156.58 91.0847V90.0847ZM158.283 89.8453L157.292 89.9845V90.9845L158.283 90.8453V89.8453ZM158.283 54.3253V53.3253L157.292 53.4645V54.4645L158.283 54.3253ZM170.879 52.5551L171.869 52.4159V51.4159L170.879 51.5551V52.5551ZM170.879 57.9791V58.9791L171.869 58.8399V57.8399L170.879 57.9791ZM164.414 58.8876V57.8876L163.424 58.0268V59.0268L164.414 58.8876ZM164.414 67.5756L163.424 67.7148V68.7148L164.414 68.5756V67.5756ZM168.93 66.941L169.92 66.8018V65.8018L168.93 65.941V66.941ZM168.93 72.029V73.029L169.92 72.8898V71.8898L168.93 72.029ZM164.414 72.6636V71.6636L163.424 71.8028V72.8028L164.414 72.6636ZM164.414 83.7516L163.424 83.8908V84.8908L164.414 84.7516V83.7516ZM171.117 82.8097L172.107 82.6705V81.6705L171.117 81.8097V82.8097ZM171.117 88.0417V89.0417L172.107 88.9025V87.9025L171.117 88.0417ZM158.283 89.8453L159.273 89.7062V54.1862L158.283 54.3253L157.292 54.4645V89.9845L158.283 89.8453ZM158.283 54.3253V55.3253L170.879 53.5551V52.5551V51.5551L158.283 53.3253V54.3253ZM170.879 52.5551L169.889 52.6942V58.1182L170.879 57.9791L171.869 57.8399V52.4159L170.879 52.5551ZM170.879 57.9791V56.9791L164.414 57.8876V58.8876V59.8876L170.879 58.9791V57.9791ZM164.414 58.8876L163.424 59.0268V67.7148L164.414 67.5756L165.405 67.4364V58.7484L164.414 58.8876ZM164.414 67.5756V68.5756L168.93 67.941V66.941V65.941L164.414 66.5756V67.5756ZM168.93 66.941L167.94 67.0801V72.1681L168.93 72.029L169.92 71.8898V66.8018L168.93 66.941ZM168.93 72.029V71.029L164.414 71.6636V72.6636V73.6636L168.93 73.029V72.029ZM164.414 72.6636L163.424 72.8028V83.8908L164.414 83.7516L165.405 83.6124V72.5244L164.414 72.6636ZM164.414 83.7516V84.7516L171.117 83.8097V82.8097V81.8097L164.414 82.7516V83.7516ZM171.117 82.8097L170.126 82.9488V88.1808L171.117 88.0417L172.107 87.9025V82.6705L171.117 82.8097ZM171.117 88.0417V87.0417L158.283 88.8453V89.8453V90.8453L171.117 89.0417V88.0417ZM172.997 87.7773L172.007 87.9165V88.9165L172.997 88.7773V87.7773ZM172.997 52.2573V51.2573L172.007 51.3965V52.3965L172.997 52.2573ZM185.499 71.1404L184.945 70.3891L184.367 70.8641L184.539 71.5222L185.499 71.1404ZM189.254 85.4927V86.4927L190.528 86.3136L190.213 85.1108L189.254 85.4927ZM183.217 86.341L182.255 86.712L182.438 87.4505L183.217 87.341V86.341ZM180.127 73.9113L181.09 73.5403L180.906 72.8018L180.127 72.9113V73.9113ZM178.987 74.0716V73.0716L177.996 73.2108V74.2108L178.987 74.0716ZM178.987 86.9356V87.9356L179.977 87.7964V86.7964L178.987 86.9356ZM178.987 69.4636L177.996 69.6028V70.6028L178.987 70.4636V69.4636ZM178.987 56.8396V55.8396L177.996 55.9788V56.9788L178.987 56.8396ZM172.997 87.7773L173.988 87.6381V52.1181L172.997 52.2573L172.007 52.3965V87.9165L172.997 87.7773ZM172.997 52.2573V53.2573L180.222 52.2419V51.2419V50.2419L172.997 51.2573V52.2573ZM180.222 51.2419V52.2419C182.429 51.9318 184.279 52.3742 185.594 53.7219C186.928 55.0884 187.836 57.5111 187.836 61.4519L188.826 61.3128L189.816 61.1736C189.816 56.9545 188.847 54.001 187.091 52.2017C185.316 50.3837 182.864 49.8707 180.222 50.2419V51.2419ZM188.826 61.3128L187.836 61.4519C187.836 66.1903 186.573 69.0513 184.945 70.3891L185.499 71.1404L186.052 71.8917C188.512 69.871 189.816 66.1313 189.816 61.1736L188.826 61.3128ZM185.499 71.1404L184.539 71.5222L188.294 85.8745L189.254 85.4927L190.213 85.1108L186.458 70.7586L185.499 71.1404ZM189.254 85.4927V84.4927L183.217 85.341V86.341V87.341L189.254 86.4927V85.4927ZM183.217 86.341L184.179 85.9701L181.09 73.5403L180.127 73.9113L179.165 74.2822L182.255 86.712L183.217 86.341ZM180.127 73.9113V72.9113L178.987 73.0716V74.0716V75.0716L180.127 74.9113V73.9113ZM178.987 74.0716L177.996 74.2108V87.0748L178.987 86.9356L179.977 86.7964V73.9324L178.987 74.0716ZM178.987 86.9356V85.9356L172.997 86.7773V87.7773V88.7773L178.987 87.9356V86.9356ZM178.987 69.4636V70.4636L180.127 70.3033V69.3033V68.3033L178.987 68.4636V69.4636ZM180.127 69.3033V70.3033C180.689 70.2244 181.263 70.0202 181.784 69.5931C182.3 69.1695 182.674 68.5993 182.944 67.93C183.464 66.64 183.684 64.7609 183.684 62.1314L182.694 62.2705L181.704 62.4097C181.704 65.0121 181.473 66.5325 181.126 67.3924C180.962 67.7981 180.798 67.9905 180.677 68.0899C180.56 68.1858 180.398 68.2652 180.127 68.3033V69.3033ZM182.694 62.2705L183.684 62.1314C183.684 59.6777 183.468 58.005 182.912 56.9758C182.616 56.4282 182.21 56.0338 181.677 55.821C181.158 55.6139 180.602 55.6126 180.08 55.6859V56.6859V57.6859C180.413 57.6391 180.612 57.6637 180.744 57.7162C180.861 57.7629 181.001 57.8617 181.145 58.1283C181.469 58.7275 181.704 59.9673 181.704 62.4097L182.694 62.2705ZM180.08 56.6859V55.6859L178.987 55.8396V56.8396V57.8396L180.08 57.6859V56.6859ZM178.987 56.8396L177.996 56.9788V69.6028L178.987 69.4636L179.977 69.3244V56.7004L178.987 56.8396Z" fill="black" mask="url(#path-1-outside-1_7076_9122)"/>
</svg>
