<svg width="20" height="20" viewBox="0 0 20 20" fill="none" xmlns="http://www.w3.org/2000/svg">
<path d="M17.7448 5.0013L16.6232 11.8036C16.5568 12.2061 16.2089 12.5013 15.801 12.5013H5.8705C5.46259 12.5013 5.11464 12.2061 5.04827 11.8036L4.04173 5.69906C3.97536 5.29659 3.62741 5.0013 3.21949 5.0013H1.66797M13.3346 6.66797H8.33464M10.8346 4.16797V9.16797M6.66797 16.668C7.1282 16.668 7.5013 16.2949 7.5013 15.8346C7.5013 15.3744 7.1282 15.0013 6.66797 15.0013C6.20774 15.0013 5.83464 15.3744 5.83464 15.8346C5.83464 16.2949 6.20774 16.668 6.66797 16.668ZM15.0013 16.668C15.4616 16.668 15.8346 16.2949 15.8346 15.8346C15.8346 15.3744 15.4616 15.0013 15.0013 15.0013C14.5411 15.0013 14.168 15.3744 14.168 15.8346C14.168 16.2949 14.5411 16.668 15.0013 16.668Z" stroke="black" stroke-width="2" stroke-linecap="round" stroke-linejoin="round"/>
</svg>
