<svg width="194" height="153" viewBox="0 0 194 153" fill="none" xmlns="http://www.w3.org/2000/svg">
<mask id="path-1-outside-1_6871_3697" maskUnits="userSpaceOnUse" x="-0.462857" y="-1.99132" width="194.093" height="156.278" fill="black">
<rect fill="white" x="-0.462857" y="-1.99132" width="194.093" height="156.278"/>
<path d="M1.1147 80.0649V26.7849L10.3123 25.4923V46.7323L16.2302 45.9006V24.6606L25.4278 23.3679V76.6479L16.2302 77.9406V53.5326L10.3123 54.3643V78.7723L1.1147 80.0649ZM41.9887 74.8244C33.2189 76.0569 28.9409 69.3142 28.9409 49.5142C28.9409 29.7142 33.2189 21.7689 41.9887 20.5364C50.7585 19.3039 55.0365 26.0467 55.0365 45.8467C55.0365 65.6467 50.7585 73.5919 41.9887 74.8244ZM41.9887 66.4724C45.1259 66.0315 45.625 61.1374 45.625 47.1694C45.625 33.2014 45.1259 28.6635 41.9887 29.1044C38.9228 29.5353 38.4237 34.2135 38.4237 48.1815C38.4237 62.1495 38.9228 66.9033 41.9887 66.4724ZM63.1908 71.4847L56.7025 18.9725L65.7575 17.6999L67.8965 42.7433C68.1104 46.0253 68.3956 49.8012 68.5382 53.8851C68.5382 53.8851 68.7521 50.6871 68.6095 53.8751C68.6808 53.0011 69.5364 43.2329 69.6077 42.5028L72.6023 16.738L79.1618 15.8161L81.7286 40.5833C82.1564 44.5552 82.4416 47.5391 82.6555 51.9011L82.7268 51.8911C82.9407 47.397 83.0833 44.713 83.4398 40.4149L85.5075 14.9243L93.9208 13.7419L87.2899 68.0978L78.8053 69.2902L75.3117 35.9412L75.2404 35.9512L71.7467 70.2822L63.1908 71.4847ZM118.019 64.139C109.178 65.3816 105.114 58.8247 105.114 38.8087C105.114 18.7927 109.25 11.0835 117.948 9.86103C126.361 8.67862 129.712 12.8877 129.855 28.6356L121.157 30.2181C121.014 20.6622 120.23 18.1084 117.948 18.429C114.882 18.8599 114.526 24.166 114.526 37.486C114.526 51.166 114.954 56.2179 118.019 55.787C120.515 55.4363 121.228 53.2481 121.513 43.272L130.212 42.4095C129.712 53.4237 128.001 62.7361 118.019 64.139ZM130.779 61.8418L139.477 7.12332L149.031 5.78058L157.658 58.0641L148.318 59.3768L146.821 47.6352L140.974 48.4569L139.477 60.6193L130.779 61.8418ZM141.474 41.9787L146.322 41.2974C145.965 38.1075 144.896 29.7618 144.611 27.2098C144.325 25.3059 144.183 23.454 143.969 21.396L143.898 21.4061C143.684 23.5961 143.47 25.4262 143.256 27.4002C142.971 30.1043 141.901 38.6786 141.474 41.9787ZM159.937 57.7439V4.46392L168.564 3.25144L172.628 18.9523C173.697 23.338 174.91 28.4236 175.765 33.2714L175.908 33.2513C175.551 28.1174 175.48 22.3675 175.48 18.6955V2.27946L183.394 1.16719V54.4472L175.836 55.5094L171.202 39.3127C169.919 34.8131 168.421 30.4155 167.566 25.3517L167.423 25.3718C167.78 28.7777 167.851 36.9756 167.851 39.7836V56.6316L159.937 57.7439ZM7.97559 151.245L1.48735 98.7325L10.5424 97.4599L12.6813 122.503C12.8952 125.785 13.1804 129.561 13.323 133.645C13.323 133.645 13.5369 130.447 13.3943 133.635C13.4656 132.761 14.3212 122.993 14.3925 122.263L17.3871 96.498L23.9466 95.5761L26.5134 120.343C26.9412 124.315 27.2264 127.299 27.4403 131.661L27.5116 131.651C27.7255 127.157 27.8681 124.473 28.2246 120.175L30.2923 94.6843L38.7056 93.5018L32.0748 147.858L23.5901 149.05L20.0965 115.701L20.0252 115.711L16.5315 150.042L7.97559 151.245ZM41.2902 146.419V93.1386L60.1845 90.4832V98.6192L50.4878 99.982V113.014L57.2612 112.062V119.694L50.4878 120.646V137.278L60.541 135.865V143.713L41.2902 146.419ZM73.0407 141.956V88.6764L82.2383 87.3837V108.624L88.1561 107.792V86.552L97.3537 85.2594V138.539L88.1561 139.832V115.424L82.2383 116.256V140.664L73.0407 141.956ZM101.936 137.895V84.6153L120.831 81.9599V90.0959L111.134 91.4587V104.491L117.907 103.539V111.171L111.134 112.123V128.755L121.187 127.342V135.19L101.936 137.895ZM124.009 134.793V81.5133L133.206 80.2207V125.653L142.76 124.31V132.158L124.009 134.793ZM145.315 131.799V78.5189L156.01 77.0158C162.569 76.0939 169.129 77.9081 169.129 92.3801C169.129 108.724 162.07 111.3 155.724 112.192L154.37 112.382V130.526L145.315 131.799ZM154.37 104.534L155.867 104.324C158.363 103.973 160.074 102.509 160.074 93.7967C160.074 85.5887 158.363 84.8212 155.796 85.1819L154.37 85.3823V104.534ZM176.116 113.502C176.116 104.502 178.184 100.899 180.109 97.2449C181.891 93.8984 183.602 90.9219 183.602 85.0899C183.602 82.4979 183.175 80.686 181.464 80.9265C179.467 81.2071 178.612 83.4873 178.184 88.9475L169.628 89.2859C170.555 78.7877 174.619 73.8965 181.963 72.8644C189.449 71.8122 192.586 76.6993 192.586 83.0353C192.586 90.8833 189.663 94.3902 187.31 99.1848C185.67 102.511 184.387 105.86 184.387 112.34L176.116 113.502ZM175.332 127.58V118.076L185.171 116.693V126.197L175.332 127.58Z"/>
</mask>
<path d="M1.1147 80.0649V26.7849L10.3123 25.4923V46.7323L16.2302 45.9006V24.6606L25.4278 23.3679V76.6479L16.2302 77.9406V53.5326L10.3123 54.3643V78.7723L1.1147 80.0649ZM41.9887 74.8244C33.2189 76.0569 28.9409 69.3142 28.9409 49.5142C28.9409 29.7142 33.2189 21.7689 41.9887 20.5364C50.7585 19.3039 55.0365 26.0467 55.0365 45.8467C55.0365 65.6467 50.7585 73.5919 41.9887 74.8244ZM41.9887 66.4724C45.1259 66.0315 45.625 61.1374 45.625 47.1694C45.625 33.2014 45.1259 28.6635 41.9887 29.1044C38.9228 29.5353 38.4237 34.2135 38.4237 48.1815C38.4237 62.1495 38.9228 66.9033 41.9887 66.4724ZM63.1908 71.4847L56.7025 18.9725L65.7575 17.6999L67.8965 42.7433C68.1104 46.0253 68.3956 49.8012 68.5382 53.8851C68.5382 53.8851 68.7521 50.6871 68.6095 53.8751C68.6808 53.0011 69.5364 43.2329 69.6077 42.5028L72.6023 16.738L79.1618 15.8161L81.7286 40.5833C82.1564 44.5552 82.4416 47.5391 82.6555 51.9011L82.7268 51.8911C82.9407 47.397 83.0833 44.713 83.4398 40.4149L85.5075 14.9243L93.9208 13.7419L87.2899 68.0978L78.8053 69.2902L75.3117 35.9412L75.2404 35.9512L71.7467 70.2822L63.1908 71.4847ZM118.019 64.139C109.178 65.3816 105.114 58.8247 105.114 38.8087C105.114 18.7927 109.25 11.0835 117.948 9.86103C126.361 8.67862 129.712 12.8877 129.855 28.6356L121.157 30.2181C121.014 20.6622 120.23 18.1084 117.948 18.429C114.882 18.8599 114.526 24.166 114.526 37.486C114.526 51.166 114.954 56.2179 118.019 55.787C120.515 55.4363 121.228 53.2481 121.513 43.272L130.212 42.4095C129.712 53.4237 128.001 62.7361 118.019 64.139ZM130.779 61.8418L139.477 7.12332L149.031 5.78058L157.658 58.0641L148.318 59.3768L146.821 47.6352L140.974 48.4569L139.477 60.6193L130.779 61.8418ZM141.474 41.9787L146.322 41.2974C145.965 38.1075 144.896 29.7618 144.611 27.2098C144.325 25.3059 144.183 23.454 143.969 21.396L143.898 21.4061C143.684 23.5961 143.47 25.4262 143.256 27.4002C142.971 30.1043 141.901 38.6786 141.474 41.9787ZM159.937 57.7439V4.46392L168.564 3.25144L172.628 18.9523C173.697 23.338 174.91 28.4236 175.765 33.2714L175.908 33.2513C175.551 28.1174 175.48 22.3675 175.48 18.6955V2.27946L183.394 1.16719V54.4472L175.836 55.5094L171.202 39.3127C169.919 34.8131 168.421 30.4155 167.566 25.3517L167.423 25.3718C167.78 28.7777 167.851 36.9756 167.851 39.7836V56.6316L159.937 57.7439ZM7.97559 151.245L1.48735 98.7325L10.5424 97.4599L12.6813 122.503C12.8952 125.785 13.1804 129.561 13.323 133.645C13.323 133.645 13.5369 130.447 13.3943 133.635C13.4656 132.761 14.3212 122.993 14.3925 122.263L17.3871 96.498L23.9466 95.5761L26.5134 120.343C26.9412 124.315 27.2264 127.299 27.4403 131.661L27.5116 131.651C27.7255 127.157 27.8681 124.473 28.2246 120.175L30.2923 94.6843L38.7056 93.5018L32.0748 147.858L23.5901 149.05L20.0965 115.701L20.0252 115.711L16.5315 150.042L7.97559 151.245ZM41.2902 146.419V93.1386L60.1845 90.4832V98.6192L50.4878 99.982V113.014L57.2612 112.062V119.694L50.4878 120.646V137.278L60.541 135.865V143.713L41.2902 146.419ZM73.0407 141.956V88.6764L82.2383 87.3837V108.624L88.1561 107.792V86.552L97.3537 85.2594V138.539L88.1561 139.832V115.424L82.2383 116.256V140.664L73.0407 141.956ZM101.936 137.895V84.6153L120.831 81.9599V90.0959L111.134 91.4587V104.491L117.907 103.539V111.171L111.134 112.123V128.755L121.187 127.342V135.19L101.936 137.895ZM124.009 134.793V81.5133L133.206 80.2207V125.653L142.76 124.31V132.158L124.009 134.793ZM145.315 131.799V78.5189L156.01 77.0158C162.569 76.0939 169.129 77.9081 169.129 92.3801C169.129 108.724 162.07 111.3 155.724 112.192L154.37 112.382V130.526L145.315 131.799ZM154.37 104.534L155.867 104.324C158.363 103.973 160.074 102.509 160.074 93.7967C160.074 85.5887 158.363 84.8212 155.796 85.1819L154.37 85.3823V104.534ZM176.116 113.502C176.116 104.502 178.184 100.899 180.109 97.2449C181.891 93.8984 183.602 90.9219 183.602 85.0899C183.602 82.4979 183.175 80.686 181.464 80.9265C179.467 81.2071 178.612 83.4873 178.184 88.9475L169.628 89.2859C170.555 78.7877 174.619 73.8965 181.963 72.8644C189.449 71.8122 192.586 76.6993 192.586 83.0353C192.586 90.8833 189.663 94.3902 187.31 99.1848C185.67 102.511 184.387 105.86 184.387 112.34L176.116 113.502ZM175.332 127.58V118.076L185.171 116.693V126.197L175.332 127.58Z" fill="#FFEBDC"/>
<path d="M1.1147 80.0649L0.124434 80.2041V81.2041L1.1147 81.0649V80.0649ZM1.1147 26.7849V25.7849L0.124434 25.9241V26.9241L1.1147 26.7849ZM10.3123 25.4923L11.3026 25.3531V24.3531L10.3123 24.4923V25.4923ZM10.3123 46.7323L9.32205 46.8714V47.8714L10.3123 47.7323V46.7323ZM16.2302 45.9006V46.9006L17.2204 46.7614V45.7614L16.2302 45.9006ZM16.2302 24.6606V23.6606L15.2399 23.7997V24.7997L16.2302 24.6606ZM25.4278 23.3679L26.418 23.2287V22.2287L25.4278 22.3679V23.3679ZM25.4278 76.6479V77.6479L26.418 77.5087V76.5087L25.4278 76.6479ZM16.2302 77.9406L15.2399 78.0797V79.0797L16.2302 78.9406V77.9406ZM16.2302 53.5326L17.2204 53.3934V52.3934L16.2302 52.5326V53.5326ZM10.3123 54.3643V53.3643L9.32205 53.5034V54.5034L10.3123 54.3643ZM10.3123 78.7723V79.7723L11.3026 79.6331V78.6331L10.3123 78.7723ZM1.1147 80.0649L2.10497 79.9257V26.6457L1.1147 26.7849L0.124434 26.9241V80.2041L1.1147 80.0649ZM1.1147 26.7849V27.7849L10.3123 26.4923V25.4923V24.4923L1.1147 25.7849V26.7849ZM10.3123 25.4923L9.32205 25.6314V46.8714L10.3123 46.7323L11.3026 46.5931V25.3531L10.3123 25.4923ZM10.3123 46.7323V47.7323L16.2302 46.9006V45.9006V44.9006L10.3123 45.7323V46.7323ZM16.2302 45.9006L17.2204 45.7614V24.5214L16.2302 24.6606L15.2399 24.7997V46.0397L16.2302 45.9006ZM16.2302 24.6606V25.6606L25.4278 24.3679V23.3679V22.3679L16.2302 23.6606V24.6606ZM25.4278 23.3679L24.4375 23.5071V76.7871L25.4278 76.6479L26.418 76.5087V23.2287L25.4278 23.3679ZM25.4278 76.6479V75.6479L16.2302 76.9406V77.9406V78.9406L25.4278 77.6479V76.6479ZM16.2302 77.9406L17.2204 77.8014V53.3934L16.2302 53.5326L15.2399 53.6717V78.0797L16.2302 77.9406ZM16.2302 53.5326V52.5326L10.3123 53.3643V54.3643V55.3643L16.2302 54.5326V53.5326ZM10.3123 54.3643L9.32205 54.5034V78.9114L10.3123 78.7723L11.3026 78.6331V54.2251L10.3123 54.3643ZM10.3123 78.7723V77.7723L1.1147 79.0649V80.0649V81.0649L10.3123 79.7723V78.7723ZM41.9887 74.8244V73.8244C39.9353 74.113 38.2103 73.9268 36.7626 73.2463C35.3161 72.5664 34.0753 71.3597 33.0593 69.48C31.0047 65.6789 29.9312 59.2448 29.9312 49.375L28.9409 49.5142L27.9507 49.6533C27.9507 59.5835 29.0162 66.4208 31.293 70.633C32.4427 72.76 33.9157 74.2453 35.7378 75.1018C37.5588 75.9577 39.6572 76.1521 41.9887 75.8244V74.8244ZM28.9409 49.5142L29.9312 49.375C29.9312 39.5052 31.0047 32.7694 33.0593 28.3908C34.0753 26.2255 35.3161 24.67 36.7626 23.5835C38.2103 22.4961 39.9353 21.825 41.9887 21.5364V20.5364V19.5364C39.6572 19.8641 37.5588 20.6483 35.7378 22.0161C33.9157 23.3847 32.4427 25.2841 31.293 27.7342C29.0162 32.5864 27.9507 39.7232 27.9507 49.6533L28.9409 49.5142ZM41.9887 20.5364V21.5364C44.0421 21.2478 45.7671 21.4341 47.2148 22.1146C48.6613 22.7945 49.9021 24.0012 50.9181 25.8809C52.9727 29.682 54.0462 36.116 54.0462 45.9859L55.0365 45.8467L56.0267 45.7075C56.0267 35.7773 54.9612 28.94 52.6844 24.7278C51.5347 22.6009 50.0617 21.1155 48.2396 20.2591C46.4186 19.4032 44.3202 19.2088 41.9887 19.5364V20.5364ZM55.0365 45.8467L54.0462 45.9859C54.0462 55.8557 52.9727 62.5915 50.9181 66.9701C49.9021 69.1354 48.6613 70.6909 47.2148 71.7773C45.7671 72.8647 44.0421 73.5359 41.9887 73.8244V74.8244V75.8244C44.3202 75.4968 46.4186 74.7125 48.2396 73.3448C50.0617 71.9762 51.5347 70.0767 52.6844 67.6267C54.9612 62.7745 56.0267 55.6377 56.0267 45.7075L55.0365 45.8467ZM41.9887 66.4724V67.4724C43.0835 67.3186 44.0011 66.7404 44.6783 65.7146C45.3034 64.7678 45.6921 63.489 45.9584 61.9307C46.4934 58.8003 46.6152 53.9918 46.6152 47.0302L45.625 47.1694L44.6347 47.3086C44.6347 54.3149 44.507 58.9375 44.0081 61.8565C43.7575 63.3228 43.4332 64.2232 43.0824 64.7545C42.7837 65.2069 42.4625 65.4058 41.9887 65.4724V66.4724ZM45.625 47.1694L46.6152 47.0302C46.6152 40.0698 46.4935 35.3472 45.9579 32.4193C45.6911 30.9613 45.3008 29.8144 44.6696 29.0619C43.985 28.2458 43.067 27.9529 41.9887 28.1044V29.1044V30.1044C42.479 30.0355 42.7998 30.1445 43.0911 30.4917C43.4358 30.9026 43.7585 31.6805 44.0087 33.0478C44.5068 35.7706 44.6347 40.301 44.6347 47.3086L45.625 47.1694ZM41.9887 29.1044V28.1044C40.9193 28.2547 40.014 28.8114 39.3431 29.8185C38.7256 30.7454 38.3433 31.9986 38.0814 33.5293C37.5553 36.6045 37.4335 41.3594 37.4335 48.3206L38.4237 48.1815L39.414 48.0423C39.414 41.0355 39.5417 36.4673 40.0316 33.6038C40.2778 32.1651 40.5951 31.2949 40.9334 30.787C41.2184 30.3592 41.5252 30.1696 41.9887 30.1044V29.1044ZM38.4237 48.1815L37.4335 48.3206C37.4335 55.2831 37.5554 60.0554 38.0809 63.0349C38.3423 64.5174 38.7231 65.6858 39.3345 66.4576C39.9978 67.295 40.9025 67.6251 41.9887 67.4724V66.4724V65.4724C41.542 65.5352 41.2345 65.4327 40.942 65.0633C40.5976 64.6285 40.2787 63.8163 40.0322 62.4182C39.5416 59.6364 39.414 55.0478 39.414 48.0423L38.4237 48.1815ZM63.1908 71.4847L62.2079 71.7445L62.3145 72.6078L63.1908 72.4847V71.4847ZM56.7025 18.9725V17.9725L55.5834 18.1298L55.7196 19.2324L56.7025 18.9725ZM65.7575 17.6999L66.7442 17.4763L66.667 16.5721L65.7575 16.6999V17.6999ZM67.8965 42.7433L68.8847 42.5394L68.8841 42.5295L68.8832 42.5197L67.8965 42.7433ZM68.5382 53.8851L67.5486 54.0593L69.5262 53.8143L68.5382 53.8851ZM68.6095 53.8751L67.6203 53.9687L69.5964 53.8195L68.6095 53.8751ZM69.6077 42.5028L68.6244 42.5225L68.6233 42.5322L68.6224 42.5418L69.6077 42.5028ZM72.6023 16.738V15.738L71.7231 15.8615L71.619 16.7577L72.6023 16.738ZM79.1618 15.8161L80.1469 15.575L80.0552 14.6905L79.1618 14.8161V15.8161ZM81.7286 40.5833L80.7435 40.8244L80.744 40.8283L81.7286 40.5833ZM82.6555 51.9011L81.6664 52.0892L81.7127 53.0336L82.6555 52.9011V51.9011ZM82.7268 51.8911V52.8911L83.6703 52.7585L83.7159 51.8004L82.7268 51.8911ZM83.4398 40.4149L84.4265 40.3606L84.4267 40.3587L83.4398 40.4149ZM85.5075 14.9243V13.9243L84.5958 14.0524L84.5206 14.9804L85.5075 14.9243ZM93.9208 13.7419L94.9034 13.7281L95.0429 12.5841L93.9208 12.7419V13.7419ZM87.2899 68.0978V69.0978L88.1638 68.9749L88.2725 68.084L87.2899 68.0978ZM78.8053 69.2902L77.8204 69.5323L77.9129 70.4156L78.8053 70.2902V69.2902ZM75.3117 35.9412L76.2966 35.6991L76.204 34.8158L75.3117 34.9412V35.9412ZM75.2404 35.9512V34.9512L74.348 35.0766L74.2554 35.9859L75.2404 35.9512ZM71.7467 70.2822V71.2822L72.6391 71.1568L72.7316 70.2475L71.7467 70.2822ZM63.1908 71.4847L64.1737 71.2248L57.6854 18.7127L56.7025 18.9725L55.7196 19.2324L62.2079 71.7445L63.1908 71.4847ZM56.7025 18.9725V19.9725L65.7575 18.6999V17.6999V16.6999L56.7025 17.9725V18.9725ZM65.7575 17.6999L64.7709 17.9235L66.9098 42.9669L67.8965 42.7433L68.8832 42.5197L66.7442 17.4763L65.7575 17.6999ZM67.8965 42.7433L66.9084 42.9473C67.1231 46.2415 67.4066 49.9949 67.5486 54.0593L68.5382 53.8851L69.5279 53.711C69.3846 49.6075 69.0978 45.809 68.8847 42.5394L67.8965 42.7433ZM68.5382 53.8851C69.5262 53.8143 69.5262 53.8143 69.5262 53.8143C69.5262 53.8143 69.5262 53.8143 69.5262 53.8142C69.5262 53.8141 69.5262 53.814 69.5262 53.8138C69.5262 53.8135 69.5263 53.8129 69.5263 53.8122C69.5264 53.8107 69.5266 53.8085 69.5268 53.8056C69.5272 53.7998 69.5278 53.7911 69.5285 53.78C69.53 53.7576 69.5322 53.7251 69.535 53.6849C69.5405 53.6043 69.5482 53.4928 69.5571 53.369C69.5749 53.1187 69.5966 52.8269 69.6135 52.6365C69.6239 52.5198 69.628 52.4958 69.6239 52.5193C69.6226 52.527 69.6186 52.5494 69.6113 52.5793C69.6076 52.5944 69.601 52.6202 69.5907 52.6522C69.5825 52.6781 69.5615 52.7415 69.5227 52.8186C69.503 52.858 69.4679 52.9227 69.4134 52.9961C69.3629 53.0642 69.2609 53.1873 69.097 53.2931C68.9128 53.412 68.6669 53.4961 68.4036 53.4634C68.1615 53.4334 68.0048 53.3169 67.9222 53.2367C67.8393 53.1563 67.7915 53.0752 67.7672 53.0288C67.7408 52.9786 67.7242 52.9345 67.7144 52.9056C67.6952 52.8491 67.6859 52.8024 67.6819 52.7806C67.6734 52.7349 67.6707 52.6994 67.6699 52.6899C67.6688 52.6757 67.6684 52.6658 67.6683 52.6629C67.6681 52.657 67.6683 52.6582 67.6683 52.6709C67.6683 52.7915 67.6563 53.1632 67.6203 53.9687L68.6095 53.8751L69.5988 53.7815C69.634 52.993 69.6488 52.5689 69.6488 52.3926C69.6488 52.3884 69.6516 52.2631 69.6305 52.149C69.6261 52.1251 69.6163 52.0767 69.5967 52.019C69.5865 51.9888 69.5341 51.8275 69.3876 51.6853C69.3047 51.6049 69.1478 51.4882 68.9054 51.4582C68.6419 51.4255 68.3957 51.5097 68.2113 51.6287C67.9208 51.8162 67.7985 52.0764 67.784 52.1053C67.7189 52.235 67.6939 52.3476 67.6919 52.3557C67.6834 52.3907 67.6781 52.4196 67.6753 52.4353C67.6601 52.5222 67.6486 52.6489 67.6411 52.7327C67.6224 52.9433 67.5996 53.2518 67.5818 53.5015C67.5728 53.6277 67.5649 53.7411 67.5593 53.823C67.5565 53.864 67.5542 53.8971 67.5527 53.92C67.5519 53.9315 67.5513 53.9404 67.5509 53.9465C67.5507 53.9496 67.5505 53.9519 67.5504 53.9535C67.5504 53.9543 67.5503 53.9549 67.5503 53.9553C67.5503 53.9555 67.5503 53.9557 67.5503 53.9558C67.5503 53.9558 67.5503 53.9559 67.5503 53.9559C67.5502 53.9559 67.5502 53.956 68.5382 53.8851ZM68.6095 53.8751L69.5964 53.8195C69.6675 52.948 70.5225 43.186 70.5931 42.4639L69.6077 42.5028L68.6224 42.5418C68.5503 43.2797 67.6942 53.0542 67.6227 53.9308L68.6095 53.8751ZM69.6077 42.5028L70.591 42.4831L73.5856 16.7183L72.6023 16.738L71.619 16.7577L68.6244 42.5225L69.6077 42.5028ZM72.6023 16.738V17.738L79.1618 16.8161V15.8161V14.8161L72.6023 15.738V16.738ZM79.1618 15.8161L78.1768 16.0571L80.7435 40.8244L81.7286 40.5833L82.7136 40.3423L80.1469 15.575L79.1618 15.8161ZM81.7286 40.5833L80.744 40.8283C81.1707 44.7907 81.4538 47.7539 81.6664 52.0892L82.6555 51.9011L83.6446 51.713C83.4294 47.3244 83.142 44.3198 82.7132 40.3384L81.7286 40.5833ZM82.6555 51.9011V52.9011L82.7268 52.8911V51.8911V50.8911L82.6555 50.9011V51.9011ZM82.7268 51.8911L83.7159 51.8004C83.9296 47.3109 84.0715 44.6408 84.4265 40.3606L83.4398 40.4149L82.453 40.4691C82.0951 44.7851 81.9518 47.4832 81.7377 51.9817L82.7268 51.8911ZM83.4398 40.4149L84.4267 40.3587L86.4943 14.8681L85.5075 14.9243L84.5206 14.9804L82.4529 40.471L83.4398 40.4149ZM85.5075 14.9243V15.9243L93.9208 14.7419V13.7419V12.7419L85.5075 13.9243V14.9243ZM93.9208 13.7419L92.9382 13.7556L86.3074 68.1115L87.2899 68.0978L88.2725 68.084L94.9034 13.7281L93.9208 13.7419ZM87.2899 68.0978V67.0978L78.8053 68.2902V69.2902V70.2902L87.2899 69.0978V68.0978ZM78.8053 69.2902L79.7903 69.0481L76.2966 35.6991L75.3117 35.9412L74.3267 36.1833L77.8204 69.5323L78.8053 69.2902ZM75.3117 35.9412V34.9412L75.2404 34.9512V35.9512V36.9512L75.3117 36.9412V35.9412ZM75.2404 35.9512L74.2554 35.9859L70.7618 70.3169L71.7467 70.2822L72.7316 70.2475L76.2253 35.9165L75.2404 35.9512ZM71.7467 70.2822V69.2822L63.1908 70.4847V71.4847V72.4847L71.7467 71.2822V70.2822ZM129.855 28.6356L129.896 29.6291L130.854 29.4547L130.845 28.4873L129.855 28.6356ZM121.157 30.2181L120.166 30.3723L120.182 31.3963L121.197 31.2116L121.157 30.2181ZM121.513 43.272L121.554 42.2671L120.552 42.3664L120.523 43.3822L121.513 43.272ZM130.212 42.4095L131.201 42.3165L131.247 41.306L130.252 41.4047L130.212 42.4095ZM118.019 64.139V63.139C115.942 63.431 114.217 63.2556 112.781 62.5904C111.349 61.9267 110.13 60.7406 109.137 58.8741C107.126 55.0949 106.104 48.6548 106.104 38.6695L105.114 38.8087L104.124 38.9479C104.124 48.9786 105.135 55.825 107.366 60.0175C108.494 62.137 109.949 63.608 111.765 64.4498C113.578 65.2901 115.676 65.4683 118.019 65.139V64.139ZM105.114 38.8087L106.104 38.6695C106.104 28.6866 107.143 21.9557 109.155 17.61C110.149 15.4629 111.364 13.934 112.784 12.8696C114.207 11.8036 115.909 11.1476 117.948 10.861V9.86103V8.86103C115.638 9.18568 113.561 9.95181 111.762 11.3006C109.96 12.651 108.511 14.5296 107.383 16.9646C105.153 21.7832 104.124 28.9148 104.124 38.9479L105.114 38.8087ZM117.948 9.86103V10.861C119.968 10.5772 121.602 10.6296 122.93 11.0496C124.239 11.4639 125.303 12.252 126.159 13.5408C127.912 16.1811 128.794 20.92 128.865 28.7839L129.855 28.6356L130.845 28.4873C130.774 20.6032 129.909 15.3637 127.847 12.2581C126.796 10.6739 125.436 9.64719 123.746 9.11272C122.075 8.58397 120.135 8.5537 117.948 8.86103V9.86103ZM129.855 28.6356L129.815 27.6422L121.116 29.2246L121.157 30.2181L121.197 31.2116L129.896 29.6291L129.855 28.6356ZM121.157 30.2181L122.147 30.0639C122.076 25.2988 121.846 22.1501 121.31 20.2244C121.041 19.2566 120.665 18.4828 120.091 17.9856C119.479 17.455 118.735 17.3185 117.948 17.429V18.429V19.429C118.302 19.3793 118.512 19.4417 118.693 19.5984C118.912 19.7885 119.169 20.1902 119.399 21.0153C119.861 22.6753 120.095 25.5815 120.166 30.3723L121.157 30.2181ZM117.948 18.429V17.429C116.828 17.5865 115.932 18.2274 115.297 19.2748C114.711 20.242 114.352 21.5408 114.109 23.1034C113.622 26.2456 113.535 30.9888 113.535 37.6252L114.526 37.486L115.516 37.3468C115.516 30.6633 115.608 26.0934 116.065 23.1448C116.295 21.662 116.6 20.721 116.943 20.1559C117.237 19.6709 117.535 19.487 117.948 19.429V18.429ZM114.526 37.486L113.535 37.6252C113.535 44.4431 113.64 49.2147 114.146 52.2288C114.398 53.728 114.767 54.9199 115.364 55.7138C116.01 56.5739 116.911 56.9429 118.019 56.787V55.787V54.787C117.595 54.8466 117.292 54.7457 116.996 54.3522C116.651 53.8926 116.338 53.0473 116.1 51.6274C115.626 48.8032 115.516 44.209 115.516 37.3468L114.526 37.486ZM118.019 55.787V56.787C118.782 56.6798 119.549 56.4103 120.207 55.7701C120.844 55.1513 121.253 54.3078 121.543 53.294C122.114 51.3003 122.361 48.122 122.503 43.1619L121.513 43.272L120.523 43.3822C120.38 48.3981 120.128 51.3019 119.647 52.984C119.411 53.8081 119.156 54.201 118.949 54.4029C118.763 54.5834 118.504 54.7189 118.019 54.787V55.787ZM121.513 43.272L121.472 44.2769L130.171 43.4144L130.212 42.4095L130.252 41.4047L121.554 42.2671L121.513 43.272ZM130.212 42.4095L129.222 42.5025C128.973 48.0159 128.42 52.9073 126.78 56.5691C125.971 58.3748 124.915 59.8403 123.529 60.9352C122.146 62.0286 120.362 62.8098 118.019 63.139V64.139V65.139C120.668 64.7668 122.841 63.8578 124.601 62.4664C126.36 61.0765 127.634 59.2624 128.563 57.1878C130.399 53.0892 130.952 47.8172 131.201 42.3165L130.212 42.4095ZM130.779 61.8418L129.801 61.8171L129.612 63.0057L130.779 62.8418V61.8418ZM139.477 7.12332V6.12332L138.636 6.24151L138.5 7.09863L139.477 7.12332ZM149.031 5.78058L150.009 5.48248L149.873 4.66224L149.031 4.78058V5.78058ZM157.658 58.0641V59.0641L158.823 58.9004L158.636 57.766L157.658 58.0641ZM148.318 59.3768L147.336 59.6404L147.445 60.4995L148.318 60.3768V59.3768ZM146.821 47.6352L147.803 47.3716L147.694 46.5125L146.821 46.6352V47.6352ZM140.974 48.4569V47.4569L140.102 47.5796L139.992 48.4695L140.974 48.4569ZM139.477 60.6193V61.6193L140.35 61.4966L140.46 60.6068L139.477 60.6193ZM141.474 41.9787L140.492 41.9845L140.342 43.1377L141.474 42.9787V41.9787ZM146.322 41.2974V42.2974L147.428 42.1419L147.306 41.0486L146.322 41.2974ZM144.611 27.2098L145.595 26.9611L145.593 26.9433L145.59 26.9256L144.611 27.2098ZM143.969 21.396L144.954 21.1547L144.862 20.2705L143.969 20.396V21.396ZM143.898 21.4061V20.4061L143.002 20.532L142.912 21.445L143.898 21.4061ZM143.256 27.4002L142.272 27.4281L142.271 27.4311L143.256 27.4002ZM130.779 61.8418L131.756 61.8665L140.454 7.14802L139.477 7.12332L138.5 7.09863L129.801 61.8171L130.779 61.8418ZM139.477 7.12332V8.12332L149.031 6.78058V5.78058V4.78058L139.477 6.12332V7.12332ZM149.031 5.78058L148.054 6.07868L156.681 58.3622L157.658 58.0641L158.636 57.766L150.009 5.48248L149.031 5.78058ZM157.658 58.0641V57.0641L148.318 58.3768V59.3768V60.3768L157.658 59.0641V58.0641ZM148.318 59.3768L149.301 59.1132L147.803 47.3716L146.821 47.6352L145.839 47.8988L147.336 59.6404L148.318 59.3768ZM146.821 47.6352V46.6352L140.974 47.4569V48.4569V49.4569L146.821 48.6352V47.6352ZM140.974 48.4569L139.992 48.4695L138.495 60.6319L139.477 60.6193L140.46 60.6068L141.957 48.4443L140.974 48.4569ZM139.477 60.6193V59.6193L130.779 60.8418V61.8418V62.8418L139.477 61.6193V60.6193ZM141.474 41.9787V42.9787L146.322 42.2974V41.2974V40.2974L141.474 40.9787V41.9787ZM146.322 41.2974L147.306 41.0486C147.127 39.4464 146.77 36.5554 146.422 33.7541C146.074 30.9457 145.737 28.2296 145.595 26.9611L144.611 27.2098L143.626 27.4586C143.77 28.742 144.11 31.4747 144.457 34.2746C144.805 37.0816 145.16 39.9584 145.338 41.5461L146.322 41.2974ZM144.611 27.2098L145.59 26.9256C145.309 25.0501 145.171 23.2456 144.954 21.1547L143.969 21.396L142.984 21.6374C143.194 23.6623 143.342 25.5618 143.631 27.4941L144.611 27.2098ZM143.969 21.396V20.396L143.898 20.4061V21.4061V22.4061L143.969 22.396V21.396ZM143.898 21.4061L142.912 21.445C142.699 23.6278 142.487 25.4438 142.272 27.4281L143.256 27.4002L144.24 27.3723C144.453 25.4086 144.668 23.5644 144.883 21.3671L143.898 21.4061ZM143.256 27.4002L142.271 27.4311C141.988 30.1209 140.92 38.6832 140.492 41.9845L141.474 41.9787L142.455 41.973C142.883 38.6741 143.954 30.0878 144.241 27.3694L143.256 27.4002ZM159.937 57.7439L158.946 57.8831V58.8831L159.937 58.7439V57.7439ZM159.937 4.46392V3.46392L158.946 3.60309V4.60309L159.937 4.46392ZM168.564 3.25144L169.524 2.87194L169.335 2.14301L168.564 2.25144V3.25144ZM172.628 18.9523L173.591 18.5852L173.588 18.5728L172.628 18.9523ZM175.765 33.2714L174.79 33.5798L174.932 34.3884L175.765 34.2714V33.2714ZM175.908 33.2513V34.2513L176.969 34.1022L176.896 33.0432L175.908 33.2513ZM175.48 2.27946V1.27946L174.49 1.41863V2.41863L175.48 2.27946ZM183.394 1.16719L184.384 1.02801V0.0280129L183.394 0.167186V1.16719ZM183.394 54.4472V55.4472L184.384 55.308V54.308L183.394 54.4472ZM175.836 55.5094L174.882 55.9111L175.084 56.6151L175.836 56.5094V55.5094ZM171.202 39.3127L170.248 39.7137L170.248 39.7144L171.202 39.3127ZM167.566 25.3517L168.543 25.05L168.405 24.2338L167.566 24.3517V25.3517ZM167.423 25.3718V24.3718L166.324 24.5262L166.438 25.6138L167.423 25.3718ZM167.851 56.6316V57.6316L168.841 57.4925V56.4925L167.851 56.6316ZM159.937 57.7439L160.927 57.6047V4.32475L159.937 4.46392L158.946 4.60309V57.8831L159.937 57.7439ZM159.937 4.46392V5.46392L168.564 4.25144V3.25144V2.25144L159.937 3.46392V4.46392ZM168.564 3.25144L167.604 3.63094L171.668 19.3318L172.628 18.9523L173.588 18.5728L169.524 2.87194L168.564 3.25144ZM172.628 18.9523L171.665 19.3193C172.734 23.7055 173.94 28.765 174.79 33.5798L175.765 33.2714L176.741 32.9629C175.879 28.0823 174.661 22.9704 173.591 18.5853L172.628 18.9523ZM175.765 33.2714V34.2714L175.908 34.2513V33.2513V32.2513L175.765 32.2714V33.2714ZM175.908 33.2513L176.896 33.0432C176.541 27.9434 176.47 22.2203 176.47 18.5563L175.48 18.6955L174.49 18.8346C174.49 22.5146 174.561 28.2915 174.92 33.4595L175.908 33.2513ZM175.48 18.6955L176.47 18.5563V2.14029L175.48 2.27946L174.49 2.41863V18.8346L175.48 18.6955ZM175.48 2.27946V3.27946L183.394 2.16719V1.16719V0.167186L175.48 1.27946V2.27946ZM183.394 1.16719L182.404 1.30636V54.5864L183.394 54.4472L184.384 54.308V1.02801L183.394 1.16719ZM183.394 54.4472V53.4472L175.836 54.5094V55.5094V56.5094L183.394 55.4472V54.4472ZM175.836 55.5094L176.791 55.1076L172.156 38.9109L171.202 39.3127L170.248 39.7144L174.882 55.9111L175.836 55.5094ZM171.202 39.3127L172.156 38.9117C170.858 34.3589 169.387 30.0466 168.543 25.05L167.566 25.3517L166.589 25.6534C167.456 30.7844 168.979 35.2673 170.248 39.7137L171.202 39.3127ZM167.566 25.3517V24.3517L167.423 24.3718V25.3718V26.3718L167.566 26.3517V25.3517ZM167.423 25.3718L166.438 25.6138C166.788 28.958 166.861 37.0985 166.861 39.9228L167.851 39.7836L168.841 39.6445C168.841 36.8528 168.771 28.5973 168.408 25.1297L167.423 25.3718ZM167.851 39.7836L166.861 39.9228V56.7708L167.851 56.6316L168.841 56.4925V39.6445L167.851 39.7836ZM167.851 56.6316V55.6316L159.937 56.7439V57.7439V58.7439L167.851 57.6316V56.6316ZM7.97559 151.245L6.99269 151.505L7.09935 152.368L7.97559 152.245V151.245ZM1.48735 98.7325V97.7325L0.368217 97.8898L0.504449 98.9924L1.48735 98.7325ZM10.5424 97.4599L11.5291 97.2363L11.4518 96.3321L10.5424 96.4599V97.4599ZM12.6813 122.503L13.6695 122.299L13.6689 122.29L13.668 122.28L12.6813 122.503ZM13.323 133.645L12.3334 133.819L14.311 133.574L13.323 133.645ZM13.3943 133.635L12.4051 133.729L14.3812 133.579L13.3943 133.635ZM14.3925 122.263L13.4092 122.283L13.4081 122.292L13.4072 122.302L14.3925 122.263ZM17.3871 96.498V95.498L16.508 95.6215L16.4038 96.5177L17.3871 96.498ZM23.9466 95.5761L24.9317 95.335L24.84 94.4505L23.9466 94.5761V95.5761ZM26.5134 120.343L25.5284 120.584L25.5288 120.588L26.5134 120.343ZM27.4403 131.661L26.4512 131.849L26.4975 132.794L27.4403 132.661V131.661ZM27.5116 131.651V132.651L28.4551 132.518L28.5007 131.56L27.5116 131.651ZM28.2246 120.175L29.2113 120.121L29.2115 120.119L28.2246 120.175ZM30.2923 94.6843V93.6843L29.3807 93.8124L29.3054 94.7404L30.2923 94.6843ZM38.7056 93.5018L39.6882 93.4881L39.8277 92.3441L38.7056 92.5018V93.5018ZM32.0748 147.858V148.858L32.9487 148.735L33.0573 147.844L32.0748 147.858ZM23.5901 149.05L22.6052 149.292L22.6977 150.176L23.5901 150.05V149.05ZM20.0965 115.701L21.0814 115.459L20.9889 114.576L20.0965 114.701V115.701ZM20.0252 115.711V114.711L19.1328 114.837L19.0402 115.746L20.0252 115.711ZM16.5315 150.042V151.042L17.4239 150.917L17.5164 150.007L16.5315 150.042ZM7.97559 151.245L8.95849 150.985L2.47026 98.4727L1.48735 98.7325L0.504449 98.9924L6.99269 151.505L7.97559 151.245ZM1.48735 98.7325V99.7325L10.5424 98.4599V97.4599V96.4599L1.48735 97.7325V98.7325ZM10.5424 97.4599L9.55567 97.6835L11.6947 122.727L12.6813 122.503L13.668 122.28L11.5291 97.2363L10.5424 97.4599ZM12.6813 122.503L11.6932 122.707C11.9079 126.001 12.1915 129.755 12.3334 133.819L13.323 133.645L14.3127 133.471C14.1694 129.367 13.8826 125.569 13.6695 122.299L12.6813 122.503ZM13.323 133.645C14.311 133.574 14.311 133.574 14.311 133.574C14.311 133.574 14.311 133.574 14.311 133.574C14.311 133.574 14.311 133.574 14.311 133.574C14.3111 133.573 14.3111 133.573 14.3112 133.572C14.3113 133.571 14.3114 133.569 14.3116 133.566C14.312 133.56 14.3126 133.551 14.3133 133.54C14.3148 133.518 14.317 133.485 14.3198 133.445C14.3253 133.364 14.3331 133.253 14.3419 133.129C14.3597 132.879 14.3814 132.587 14.3984 132.397C14.4087 132.28 14.4128 132.256 14.4087 132.279C14.4074 132.287 14.4034 132.309 14.3961 132.339C14.3924 132.354 14.3858 132.38 14.3756 132.412C14.3673 132.438 14.3463 132.501 14.3075 132.579C14.2878 132.618 14.2527 132.683 14.1982 132.756C14.1477 132.824 14.0458 132.947 13.8818 133.053C13.6977 133.172 13.4517 133.256 13.1885 133.223C12.9463 133.193 12.7897 133.077 12.707 132.997C12.6241 132.916 12.5764 132.835 12.552 132.789C12.5257 132.739 12.5091 132.695 12.4992 132.666C12.4801 132.609 12.4707 132.562 12.4667 132.541C12.4583 132.495 12.4555 132.459 12.4547 132.45C12.4536 132.436 12.4532 132.426 12.4531 132.423C12.4529 132.417 12.4531 132.418 12.4531 132.431C12.4531 132.552 12.4411 132.923 12.4051 133.729L13.3943 133.635L14.3836 133.541C14.4189 132.753 14.4336 132.329 14.4336 132.153C14.4336 132.148 14.4364 132.023 14.4153 131.909C14.4109 131.885 14.4011 131.837 14.3815 131.779C14.3713 131.749 14.3189 131.587 14.1724 131.445C14.0895 131.365 13.9326 131.248 13.6902 131.218C13.4267 131.186 13.1805 131.27 12.9961 131.389C12.7056 131.576 12.5833 131.836 12.5688 131.865C12.5037 131.995 12.4787 132.108 12.4768 132.116C12.4682 132.151 12.4629 132.18 12.4601 132.195C12.4449 132.282 12.4334 132.409 12.426 132.493C12.4072 132.703 12.3844 133.012 12.3666 133.262C12.3576 133.388 12.3497 133.501 12.3441 133.583C12.3413 133.624 12.339 133.657 12.3375 133.68C12.3367 133.691 12.3361 133.7 12.3357 133.707C12.3355 133.71 12.3353 133.712 12.3352 133.713C12.3352 133.714 12.3351 133.715 12.3351 133.715C12.3351 133.715 12.3351 133.716 12.3351 133.716C12.3351 133.716 12.3351 133.716 12.3351 133.716C12.3351 133.716 12.3351 133.716 13.323 133.645ZM13.3943 133.635L14.3812 133.579C14.4523 132.708 15.3074 122.946 15.3779 122.224L14.3925 122.263L13.4072 122.302C13.3351 123.04 12.479 132.814 12.4075 133.691L13.3943 133.635ZM14.3925 122.263L15.3758 122.243L18.3704 96.4782L17.3871 96.498L16.4038 96.5177L13.4092 122.283L14.3925 122.263ZM17.3871 96.498V97.498L23.9466 96.5761V95.5761V94.5761L17.3871 95.498V96.498ZM23.9466 95.5761L22.9616 95.8171L25.5284 120.584L26.5134 120.343L27.4984 120.102L24.9317 95.335L23.9466 95.5761ZM26.5134 120.343L25.5288 120.588C25.9556 124.551 26.2386 127.514 26.4512 131.849L27.4403 131.661L28.4294 131.473C28.2142 127.084 27.9269 124.08 27.498 120.098L26.5134 120.343ZM27.4403 131.661V132.661L27.5116 132.651V131.651V130.651L27.4403 130.661V131.661ZM27.5116 131.651L28.5007 131.56C28.7144 127.071 28.8563 124.401 29.2113 120.121L28.2246 120.175L27.2379 120.229C26.8799 124.545 26.7366 127.243 26.5225 131.742L27.5116 131.651ZM28.2246 120.175L29.2115 120.119L31.2792 94.6281L30.2923 94.6843L29.3054 94.7404L27.2377 120.231L28.2246 120.175ZM30.2923 94.6843V95.6843L38.7056 94.5018V93.5018V92.5018L30.2923 93.6843V94.6843ZM38.7056 93.5018L37.723 93.5156L31.0922 147.871L32.0748 147.858L33.0573 147.844L39.6882 93.4881L38.7056 93.5018ZM32.0748 147.858V146.858L23.5901 148.05V149.05V150.05L32.0748 148.858V147.858ZM23.5901 149.05L24.5751 148.808L21.0814 115.459L20.0965 115.701L19.1115 115.943L22.6052 149.292L23.5901 149.05ZM20.0965 115.701V114.701L20.0252 114.711V115.711V116.711L20.0965 116.701V115.701ZM20.0252 115.711L19.0402 115.746L15.5466 150.077L16.5315 150.042L17.5164 150.007L21.0101 115.676L20.0252 115.711ZM16.5315 150.042V149.042L7.97559 150.245V151.245V152.245L16.5315 151.042V150.042ZM41.2902 146.419L40.2999 146.558V147.558L41.2902 147.419V146.419ZM41.2902 93.1386V92.1386L40.2999 92.2778V93.2778L41.2902 93.1386ZM60.1845 90.4832L61.1748 90.344V89.344L60.1845 89.4832V90.4832ZM60.1845 98.6192V99.6192L61.1748 99.48V98.48L60.1845 98.6192ZM50.4878 99.982V98.982L49.4975 99.1211V100.121L50.4878 99.982ZM50.4878 113.014L49.4975 113.153V114.153L50.4878 114.014V113.014ZM57.2612 112.062L58.2515 111.923V110.923L57.2612 111.062V112.062ZM57.2612 119.694V120.694L58.2515 120.555V119.555L57.2612 119.694ZM50.4878 120.646V119.646L49.4975 119.785V120.785L50.4878 120.646ZM50.4878 137.278L49.4975 137.417V138.417L50.4878 138.278V137.278ZM60.541 135.865L61.5313 135.726V134.726L60.541 134.865V135.865ZM60.541 143.713V144.713L61.5313 144.574V143.574L60.541 143.713ZM41.2902 146.419L42.2805 146.279V92.9994L41.2902 93.1386L40.2999 93.2778V146.558L41.2902 146.419ZM41.2902 93.1386V94.1386L60.1845 91.4832V90.4832V89.4832L41.2902 92.1386V93.1386ZM60.1845 90.4832L59.1942 90.6224V98.7583L60.1845 98.6192L61.1748 98.48V90.344L60.1845 90.4832ZM60.1845 98.6192V97.6192L50.4878 98.982V99.982V100.982L60.1845 99.6192V98.6192ZM50.4878 99.982L49.4975 100.121V113.153L50.4878 113.014L51.4781 112.875V99.8428L50.4878 99.982ZM50.4878 113.014V114.014L57.2612 113.062V112.062V111.062L50.4878 112.014V113.014ZM57.2612 112.062L56.271 112.201V119.833L57.2612 119.694L58.2515 119.555V111.923L57.2612 112.062ZM57.2612 119.694V118.694L50.4878 119.646V120.646V121.646L57.2612 120.694V119.694ZM50.4878 120.646L49.4975 120.785V137.417L50.4878 137.278L51.4781 137.139V120.507L50.4878 120.646ZM50.4878 137.278V138.278L60.541 136.865V135.865V134.865L50.4878 136.278V137.278ZM60.541 135.865L59.5507 136.004V143.852L60.541 143.713L61.5313 143.574V135.726L60.541 135.865ZM60.541 143.713V142.713L41.2902 145.419V146.419V147.419L60.541 144.713V143.713ZM73.0407 141.956L72.0504 142.096V143.096L73.0407 142.956V141.956ZM73.0407 88.6764V87.6764L72.0504 87.8155V88.8155L73.0407 88.6764ZM82.2383 87.3837L83.2285 87.2445V86.2445L82.2383 86.3837V87.3837ZM82.2383 108.624L81.248 108.763V109.763L82.2383 109.624V108.624ZM88.1561 107.792V108.792L89.1464 108.653V107.653L88.1561 107.792ZM88.1561 86.552V85.552L87.1658 85.6912V86.6912L88.1561 86.552ZM97.3537 85.2594L98.344 85.1202V84.1202L97.3537 84.2594V85.2594ZM97.3537 138.539V139.539L98.344 139.4V138.4L97.3537 138.539ZM88.1561 139.832L87.1658 139.971V140.971L88.1561 140.832V139.832ZM88.1561 115.424L89.1464 115.285V114.285L88.1561 114.424V115.424ZM82.2383 116.256V115.256L81.248 115.395V116.395L82.2383 116.256ZM82.2383 140.664V141.664L83.2285 141.525V140.525L82.2383 140.664ZM73.0407 141.956L74.0309 141.817V88.5372L73.0407 88.6764L72.0504 88.8155V142.096L73.0407 141.956ZM73.0407 88.6764V89.6764L82.2383 88.3837V87.3837V86.3837L73.0407 87.6764V88.6764ZM82.2383 87.3837L81.248 87.5229V108.763L82.2383 108.624L83.2285 108.485V87.2445L82.2383 87.3837ZM82.2383 108.624V109.624L88.1561 108.792V107.792V106.792L82.2383 107.624V108.624ZM88.1561 107.792L89.1464 107.653V86.4129L88.1561 86.552L87.1658 86.6912V107.931L88.1561 107.792ZM88.1561 86.552V87.552L97.3537 86.2594V85.2594V84.2594L88.1561 85.552V86.552ZM97.3537 85.2594L96.3635 85.3986V138.679L97.3537 138.539L98.344 138.4V85.1202L97.3537 85.2594ZM97.3537 138.539V137.539L88.1561 138.832V139.832V140.832L97.3537 139.539V138.539ZM88.1561 139.832L89.1464 139.693V115.285L88.1561 115.424L87.1658 115.563V139.971L88.1561 139.832ZM88.1561 115.424V114.424L82.2383 115.256V116.256V117.256L88.1561 116.424V115.424ZM82.2383 116.256L81.248 116.395V140.803L82.2383 140.664L83.2285 140.525V116.117L82.2383 116.256ZM82.2383 140.664V139.664L73.0407 140.956V141.956V142.956L82.2383 141.664V140.664ZM101.936 137.895L100.946 138.035V139.035L101.936 138.895V137.895ZM101.936 84.6153V83.6153L100.946 83.7545V84.7545L101.936 84.6153ZM120.831 81.9599L121.821 81.8207V80.8207L120.831 80.9599V81.9599ZM120.831 90.0959V91.0959L121.821 90.9567V89.9567L120.831 90.0959ZM111.134 91.4587V90.4587L110.144 90.5979V91.5979L111.134 91.4587ZM111.134 104.491L110.144 104.63V105.63L111.134 105.491V104.491ZM117.907 103.539L118.898 103.4V102.4L117.907 102.539V103.539ZM117.907 111.171V112.171L118.898 112.032V111.032L117.907 111.171ZM111.134 112.123V111.123L110.144 111.262V112.262L111.134 112.123ZM111.134 128.755L110.144 128.894V129.894L111.134 129.755V128.755ZM121.187 127.342L122.177 127.203V126.203L121.187 126.342V127.342ZM121.187 135.19V136.19L122.177 136.051V135.051L121.187 135.19ZM101.936 137.895L102.927 137.756V84.4762L101.936 84.6153L100.946 84.7545V138.035L101.936 137.895ZM101.936 84.6153V85.6153L120.831 82.9599V81.9599V80.9599L101.936 83.6153V84.6153ZM120.831 81.9599L119.84 82.0991V90.2351L120.831 90.0959L121.821 89.9567V81.8207L120.831 81.9599ZM120.831 90.0959V89.0959L111.134 90.4587V91.4587V92.4587L120.831 91.0959V90.0959ZM111.134 91.4587L110.144 91.5979V104.63L111.134 104.491L112.124 104.352V91.3195L111.134 91.4587ZM111.134 104.491V105.491L117.907 104.539V103.539V102.539L111.134 103.491V104.491ZM117.907 103.539L116.917 103.678V111.31L117.907 111.171L118.898 111.032V103.4L117.907 103.539ZM117.907 111.171V110.171L111.134 111.123V112.123V113.123L117.907 112.171V111.171ZM111.134 112.123L110.144 112.262V128.894L111.134 128.755L112.124 128.616V111.984L111.134 112.123ZM111.134 128.755V129.755L121.187 128.342V127.342V126.342L111.134 127.755V128.755ZM121.187 127.342L120.197 127.481V135.329L121.187 135.19L122.177 135.051V127.203L121.187 127.342ZM121.187 135.19V134.19L101.936 136.895V137.895V138.895L121.187 136.19V135.19ZM124.009 134.793L123.018 134.932V135.932L124.009 135.793V134.793ZM124.009 81.5133V80.5133L123.018 80.6525V81.6525L124.009 81.5133ZM133.206 80.2207L134.196 80.0815V79.0815L133.206 79.2207V80.2207ZM133.206 125.653L132.216 125.792V126.792L133.206 126.653V125.653ZM142.76 124.31L143.751 124.171V123.171L142.76 123.31V124.31ZM142.76 132.158V133.158L143.751 133.019V132.019L142.76 132.158ZM124.009 134.793L124.999 134.654V81.3741L124.009 81.5133L123.018 81.6525V134.932L124.009 134.793ZM124.009 81.5133V82.5133L133.206 81.2207V80.2207V79.2207L124.009 80.5133V81.5133ZM133.206 80.2207L132.216 80.3598V125.792L133.206 125.653L134.196 125.513V80.0815L133.206 80.2207ZM133.206 125.653V126.653L142.76 125.31V124.31V123.31L133.206 124.653V125.653ZM142.76 124.31L141.77 124.449V132.297L142.76 132.158L143.751 132.019V124.171L142.76 124.31ZM142.76 132.158V131.158L124.009 133.793V134.793V135.793L142.76 133.158V132.158ZM145.315 131.799L144.324 131.938V132.938L145.315 132.799V131.799ZM145.315 78.5189V77.5189L144.324 77.6581V78.6581L145.315 78.5189ZM154.37 112.382V111.382L153.38 111.521V112.521L154.37 112.382ZM154.37 130.526V131.526L155.36 131.387V130.387L154.37 130.526ZM154.37 104.534L153.38 104.673V105.673L154.37 105.534V104.534ZM154.37 85.3823V84.3823L153.38 84.5215V85.5215L154.37 85.3823ZM145.315 131.799L146.305 131.66V78.3797L145.315 78.5189L144.324 78.6581V131.938L145.315 131.799ZM145.315 78.5189V79.5189L156.01 78.0158V77.0158V76.0158L145.315 77.5189V78.5189ZM156.01 77.0158V78.0158C159.172 77.5713 162.136 77.8167 164.328 79.7297C166.525 81.6481 168.138 85.4117 168.138 92.5192L169.129 92.3801L170.119 92.2409C170.119 84.8764 168.453 80.497 165.731 78.1208C163.002 75.7392 159.406 75.5384 156.01 76.0158V77.0158ZM169.129 92.3801L168.138 92.5192C168.138 100.583 166.392 104.971 164.126 107.449C161.862 109.927 158.852 110.752 155.724 111.192V112.192V113.192C158.942 112.74 162.635 111.832 165.486 108.712C168.336 105.594 170.119 100.521 170.119 92.2409L169.129 92.3801ZM155.724 112.192V111.192L154.37 111.382V112.382V113.382L155.724 113.192V112.192ZM154.37 112.382L153.38 112.521V130.665L154.37 130.526L155.36 130.387V112.243L154.37 112.382ZM154.37 130.526V129.526L145.315 130.799V131.799V132.799L154.37 131.526V130.526ZM154.37 104.534V105.534L155.867 105.324V104.324V103.324L154.37 103.534V104.534ZM155.867 104.324V105.324C156.561 105.226 157.307 105.039 158.01 104.595C158.734 104.138 159.325 103.465 159.779 102.545C160.646 100.789 161.064 98.02 161.064 93.6575L160.074 93.7967L159.083 93.9358C159.083 98.2853 158.646 100.605 158.033 101.846C157.748 102.425 157.443 102.729 157.144 102.918C156.825 103.119 156.421 103.246 155.867 103.324V104.324ZM160.074 93.7967L161.064 93.6575C161.064 89.5496 160.648 87.0547 159.75 85.6471C159.275 84.9033 158.662 84.4554 157.933 84.2463C157.232 84.0453 156.488 84.0845 155.796 84.1819V85.1819V86.1819C156.387 86.0989 156.82 86.0988 157.161 86.1967C157.475 86.2865 157.771 86.4759 158.045 86.9049C158.644 87.8429 159.083 89.8357 159.083 93.9358L160.074 93.7967ZM155.796 85.1819V84.1819L154.37 84.3823V85.3823V86.3823L155.796 86.1819V85.1819ZM154.37 85.3823L153.38 85.5215V104.673L154.37 104.534L155.36 104.395V85.2431L154.37 85.3823ZM176.116 113.502L175.126 113.641V114.641L176.116 114.502V113.502ZM180.109 97.2449L179.253 96.8626L179.25 96.8675L180.109 97.2449ZM178.184 88.9475L178.085 89.9564L179.09 89.9166L179.171 88.8885L178.184 88.9475ZM169.628 89.2859L168.642 89.3346L168.553 90.3334L169.529 90.2948L169.628 89.2859ZM187.31 99.1848L188.183 99.5338L188.184 99.5318L187.31 99.1848ZM184.387 112.34V113.34L185.377 113.201V112.201L184.387 112.34ZM175.332 127.58L174.341 127.719V128.719L175.332 128.58V127.58ZM175.332 118.076V117.076L174.341 117.215V118.215L175.332 118.076ZM185.171 116.693L186.161 116.554V115.554L185.171 115.693V116.693ZM185.171 126.197V127.197L186.161 127.058V126.058L185.171 126.197ZM176.116 113.502L177.106 113.363C177.106 108.942 177.614 105.899 178.333 103.543C179.054 101.182 179.997 99.4655 180.967 97.6224L180.109 97.2449L179.25 96.8675C178.296 98.6789 177.243 100.591 176.448 103.195C175.652 105.803 175.126 109.063 175.126 113.641L176.116 113.502ZM180.109 97.2449L180.965 97.6272C181.844 95.9775 182.768 94.3081 183.454 92.3116C184.148 90.2948 184.593 87.9732 184.593 84.9507L183.602 85.0899L182.612 85.2291C182.612 88.0386 182.201 90.1212 181.594 91.8873C180.979 93.6737 180.156 95.1658 179.253 96.8626L180.109 97.2449ZM183.602 85.0899L184.593 84.9507C184.593 83.6365 184.49 82.3669 184.091 81.4386C183.886 80.9599 183.58 80.5209 183.12 80.2313C182.647 79.934 182.082 79.8396 181.464 79.9265V80.9265V81.9265C181.7 81.8932 181.831 81.9351 181.919 81.9909C182.021 82.0544 182.143 82.1852 182.258 82.4535C182.501 83.019 182.612 83.9513 182.612 85.2291L183.602 85.0899ZM181.464 80.9265V79.9265C180.773 80.0236 180.125 80.3071 179.563 80.8241C179.019 81.3251 178.625 81.9821 178.326 82.7278C177.739 84.1897 177.411 86.2718 177.197 89.0064L178.184 88.9475L179.171 88.8885C179.384 86.163 179.698 84.3749 180.145 83.2615C180.363 82.7196 180.583 82.4126 180.774 82.2365C180.948 82.0765 181.156 81.9697 181.464 81.9265V80.9265ZM178.184 88.9475L178.282 87.9386L169.726 88.277L169.628 89.2859L169.529 90.2948L178.085 89.9564L178.184 88.9475ZM169.628 89.2859L170.614 89.2372C171.069 84.0803 172.284 80.4838 174.136 78.0773C175.95 75.7188 178.496 74.3515 181.963 73.8644V72.8644V71.8644C178.085 72.4094 174.927 74.0037 172.642 76.9734C170.394 79.8951 169.113 83.9933 168.642 89.3346L169.628 89.2859ZM181.963 72.8644V73.8644C185.451 73.3741 187.808 74.2713 189.315 75.9201C190.847 77.5967 191.596 80.1573 191.596 83.1745L192.586 83.0353L193.576 82.8962C193.576 79.5774 192.756 76.5264 190.848 74.4385C188.915 72.3228 185.961 71.3025 181.963 71.8644V72.8644ZM192.586 83.0353L191.596 83.1745C191.596 90.703 188.864 93.8893 186.436 98.8378L187.31 99.1848L188.184 99.5318C190.462 94.891 193.576 91.0636 193.576 82.8962L192.586 83.0353ZM187.31 99.1848L186.437 98.8359C184.73 102.298 183.397 105.814 183.397 112.479L184.387 112.34L185.377 112.201C185.377 105.905 186.61 102.725 188.183 99.5338L187.31 99.1848ZM184.387 112.34V111.34L176.116 112.502V113.502V114.502L184.387 113.34V112.34ZM175.332 127.58L176.322 127.441V117.937L175.332 118.076L174.341 118.215V127.719L175.332 127.58ZM175.332 118.076V119.076L185.171 117.693V116.693V115.693L175.332 117.076V118.076ZM185.171 116.693L184.181 116.833V126.337L185.171 126.197L186.161 126.058V116.554L185.171 116.693ZM185.171 126.197V125.197L175.332 126.58V127.58V128.58L185.171 127.197V126.197Z" fill="black" mask="url(#path-1-outside-1_6871_3697)"/>
</svg>
