<svg width="255" height="159" viewBox="0 0 255 159" fill="none" xmlns="http://www.w3.org/2000/svg">
<mask id="path-1-outside-1_6871_3724" maskUnits="userSpaceOnUse" x="0.201206" y="-5.60393" width="254.499" height="164.767" fill="black">
<rect fill="white" x="0.201206" y="-5.60393" width="254.499" height="164.767"/>
<path d="M31.6877 80.7384V35.5944L24.7717 36.5664V28.4304L47.8014 25.1938V33.3298L40.9567 34.2918V79.4358L31.6877 80.7384ZM50.3058 78.1218V24.8418L69.2001 22.1864V30.3224L59.5034 31.6852V44.7172L66.2768 43.7652V51.3972L59.5034 52.3492V68.9812L69.5566 67.5683V75.4163L50.3058 78.1218ZM72.3779 75.0198V21.7398L81.0051 20.5273L85.0692 36.2281C86.1387 40.6138 87.3508 45.6995 88.2064 50.5472L88.349 50.5272C87.9925 45.3933 87.9212 39.6433 87.9212 35.9713V19.5553L95.8354 18.4431V71.7231L88.2777 72.7852L83.6432 56.5886C82.3598 52.0889 80.8625 47.6913 80.0069 42.6276L79.8643 42.6476C80.2208 46.0535 80.2921 54.2515 80.2921 57.0595V73.9075L72.3779 75.0198ZM105.146 70.4146V25.2706L98.2295 26.2426V18.1066L121.259 14.87V23.006L114.414 23.9679V69.1119L105.146 70.4146ZM121.482 68.1187L130.18 13.4002L139.735 12.0574L148.362 64.3409L139.022 65.6536L137.524 53.9121L131.678 54.7337L130.18 66.8962L121.482 68.1187ZM132.177 48.2556L137.025 47.5742C136.669 44.3843 135.599 36.0386 135.314 33.4867C135.029 31.5828 134.886 29.7308 134.672 27.6729L134.601 27.6829C134.387 29.873 134.173 31.703 133.959 33.6771C133.674 36.3812 132.605 44.9555 132.177 48.2556ZM162.476 62.8614C153.635 64.1039 149.571 57.5471 149.571 37.5311C149.571 17.5151 153.706 9.80588 162.404 8.58338C170.818 7.40096 174.169 11.61 174.311 27.358L165.613 28.9405C165.47 19.3845 164.686 16.8307 162.404 17.1514C159.339 17.5823 158.982 22.8884 158.982 36.2084C158.982 49.8884 159.41 54.9402 162.476 54.5094C164.971 54.1586 165.684 51.9704 165.969 41.9944L174.668 41.1319C174.169 52.146 172.458 61.4585 162.476 62.8614ZM177.517 60.2435V6.96351L186.714 5.67087V51.1029L196.268 49.7601V57.6081L177.517 60.2435ZM198.823 57.2491V3.96912L217.717 1.31369V9.44969L208.02 10.8125V23.8445L214.794 22.8925V30.5245L208.02 31.4765V48.1085L218.074 46.6956V54.5436L198.823 57.2491ZM1.70527 156.952V103.672L10.3325 102.46L14.3965 118.161C15.466 122.546 16.6781 127.632 17.5337 132.48L17.6763 132.46C17.3198 127.326 17.2485 121.576 17.2485 117.904V101.488L25.1627 100.375V153.655L17.605 154.718L12.9706 138.521C11.6872 134.021 10.1899 129.624 9.33429 124.56L9.1917 124.58C9.54819 127.986 9.61949 136.184 9.61949 138.992V155.84L1.70527 156.952ZM29.6958 153.018V99.7384L48.5901 97.0829V105.219L38.8934 106.582V119.614L45.6669 118.662V126.294L38.8934 127.246V143.878L48.9466 142.465V150.313L29.6958 153.018ZM56.3311 149.419L49.8429 96.9069L58.8979 95.6343L61.0369 120.678C61.2508 123.96 61.536 127.736 61.6786 131.819C61.6786 131.819 61.8925 128.621 61.7499 131.809C61.8212 130.935 62.6768 121.167 62.7481 120.437L65.7426 94.6723L72.3022 93.7504L74.8689 118.518C75.2967 122.49 75.5819 125.473 75.7958 129.835L75.8671 129.825C76.081 125.331 76.2236 122.647 76.5801 118.349L78.6478 92.8586L87.0611 91.6762L80.4303 146.032L71.9457 147.225L68.452 113.876L68.3807 113.886L64.887 148.217L56.3311 149.419ZM100.697 143.544C90.5726 144.967 88.7901 138.161 88.0771 128.469L96.6331 126.619C97.346 134.079 98.1303 136.129 100.768 135.758C102.836 135.467 103.977 133.795 103.977 130.555C103.977 126.019 100.768 123.446 97.2034 119.915C93.282 116.002 88.9327 111.933 88.9327 104.013C88.9327 95.9492 92.9255 90.348 100.341 89.3059C109.253 88.0533 111.891 93.2986 112.533 103.36L103.906 105.365C103.478 97.793 102.408 97.0793 100.483 97.3498C98.772 97.5903 98.059 99.3465 98.059 101.795C98.059 107.051 101.125 109.644 104.547 112.907C108.611 116.728 113.032 120.282 113.032 128.778C113.032 137.274 108.611 142.432 100.697 143.544ZM116.313 140.845V87.5651L125.511 86.2724V131.704L135.065 130.362V138.21L116.313 140.845ZM137.62 137.851V84.5707L156.514 81.9152V90.0512L146.817 91.414V104.446L153.591 103.494V111.126L146.817 112.078V128.71L156.87 127.297V135.145L137.62 137.851ZM164.469 134.077V88.9333L157.553 89.9052V81.7692L180.582 78.5326V86.6686L173.738 87.6306V132.775L164.469 134.077ZM187.864 130.789V85.6453L180.948 86.6173V78.4813L203.977 75.2447V83.3807L197.133 84.3426V129.487L187.864 130.789ZM206.482 128.173V74.8927L225.376 72.2373V80.3733L215.679 81.7361V94.7681L222.453 93.8161V101.448L215.679 102.4V119.032L225.733 117.619V125.467L206.482 128.173ZM228.554 125.071V71.7907L239.392 70.2676C246.664 69.2455 252.297 73.1338 252.297 85.3738C252.297 92.6458 250.372 97.5964 247.306 100.115L252.938 121.644L243.883 122.916L239.249 104.272L237.538 104.512V123.808L228.554 125.071ZM237.538 97.6001L239.249 97.3596C241.744 97.0089 243.099 94.6585 243.099 86.8105C243.099 79.4665 241.744 78.0729 239.178 78.4336L237.538 78.6641V97.6001Z"/>
</mask>
<path d="M31.6877 80.7384V35.5944L24.7717 36.5664V28.4304L47.8014 25.1938V33.3298L40.9567 34.2918V79.4358L31.6877 80.7384ZM50.3058 78.1218V24.8418L69.2001 22.1864V30.3224L59.5034 31.6852V44.7172L66.2768 43.7652V51.3972L59.5034 52.3492V68.9812L69.5566 67.5683V75.4163L50.3058 78.1218ZM72.3779 75.0198V21.7398L81.0051 20.5273L85.0692 36.2281C86.1387 40.6138 87.3508 45.6995 88.2064 50.5472L88.349 50.5272C87.9925 45.3933 87.9212 39.6433 87.9212 35.9713V19.5553L95.8354 18.4431V71.7231L88.2777 72.7852L83.6432 56.5886C82.3598 52.0889 80.8625 47.6913 80.0069 42.6276L79.8643 42.6476C80.2208 46.0535 80.2921 54.2515 80.2921 57.0595V73.9075L72.3779 75.0198ZM105.146 70.4146V25.2706L98.2295 26.2426V18.1066L121.259 14.87V23.006L114.414 23.9679V69.1119L105.146 70.4146ZM121.482 68.1187L130.18 13.4002L139.735 12.0574L148.362 64.3409L139.022 65.6536L137.524 53.9121L131.678 54.7337L130.18 66.8962L121.482 68.1187ZM132.177 48.2556L137.025 47.5742C136.669 44.3843 135.599 36.0386 135.314 33.4867C135.029 31.5828 134.886 29.7308 134.672 27.6729L134.601 27.6829C134.387 29.873 134.173 31.703 133.959 33.6771C133.674 36.3812 132.605 44.9555 132.177 48.2556ZM162.476 62.8614C153.635 64.1039 149.571 57.5471 149.571 37.5311C149.571 17.5151 153.706 9.80588 162.404 8.58338C170.818 7.40096 174.169 11.61 174.311 27.358L165.613 28.9405C165.47 19.3845 164.686 16.8307 162.404 17.1514C159.339 17.5823 158.982 22.8884 158.982 36.2084C158.982 49.8884 159.41 54.9402 162.476 54.5094C164.971 54.1586 165.684 51.9704 165.969 41.9944L174.668 41.1319C174.169 52.146 172.458 61.4585 162.476 62.8614ZM177.517 60.2435V6.96351L186.714 5.67087V51.1029L196.268 49.7601V57.6081L177.517 60.2435ZM198.823 57.2491V3.96912L217.717 1.31369V9.44969L208.02 10.8125V23.8445L214.794 22.8925V30.5245L208.02 31.4765V48.1085L218.074 46.6956V54.5436L198.823 57.2491ZM1.70527 156.952V103.672L10.3325 102.46L14.3965 118.161C15.466 122.546 16.6781 127.632 17.5337 132.48L17.6763 132.46C17.3198 127.326 17.2485 121.576 17.2485 117.904V101.488L25.1627 100.375V153.655L17.605 154.718L12.9706 138.521C11.6872 134.021 10.1899 129.624 9.33429 124.56L9.1917 124.58C9.54819 127.986 9.61949 136.184 9.61949 138.992V155.84L1.70527 156.952ZM29.6958 153.018V99.7384L48.5901 97.0829V105.219L38.8934 106.582V119.614L45.6669 118.662V126.294L38.8934 127.246V143.878L48.9466 142.465V150.313L29.6958 153.018ZM56.3311 149.419L49.8429 96.9069L58.8979 95.6343L61.0369 120.678C61.2508 123.96 61.536 127.736 61.6786 131.819C61.6786 131.819 61.8925 128.621 61.7499 131.809C61.8212 130.935 62.6768 121.167 62.7481 120.437L65.7426 94.6723L72.3022 93.7504L74.8689 118.518C75.2967 122.49 75.5819 125.473 75.7958 129.835L75.8671 129.825C76.081 125.331 76.2236 122.647 76.5801 118.349L78.6478 92.8586L87.0611 91.6762L80.4303 146.032L71.9457 147.225L68.452 113.876L68.3807 113.886L64.887 148.217L56.3311 149.419ZM100.697 143.544C90.5726 144.967 88.7901 138.161 88.0771 128.469L96.6331 126.619C97.346 134.079 98.1303 136.129 100.768 135.758C102.836 135.467 103.977 133.795 103.977 130.555C103.977 126.019 100.768 123.446 97.2034 119.915C93.282 116.002 88.9327 111.933 88.9327 104.013C88.9327 95.9492 92.9255 90.348 100.341 89.3059C109.253 88.0533 111.891 93.2986 112.533 103.36L103.906 105.365C103.478 97.793 102.408 97.0793 100.483 97.3498C98.772 97.5903 98.059 99.3465 98.059 101.795C98.059 107.051 101.125 109.644 104.547 112.907C108.611 116.728 113.032 120.282 113.032 128.778C113.032 137.274 108.611 142.432 100.697 143.544ZM116.313 140.845V87.5651L125.511 86.2724V131.704L135.065 130.362V138.21L116.313 140.845ZM137.62 137.851V84.5707L156.514 81.9152V90.0512L146.817 91.414V104.446L153.591 103.494V111.126L146.817 112.078V128.71L156.87 127.297V135.145L137.62 137.851ZM164.469 134.077V88.9333L157.553 89.9052V81.7692L180.582 78.5326V86.6686L173.738 87.6306V132.775L164.469 134.077ZM187.864 130.789V85.6453L180.948 86.6173V78.4813L203.977 75.2447V83.3807L197.133 84.3426V129.487L187.864 130.789ZM206.482 128.173V74.8927L225.376 72.2373V80.3733L215.679 81.7361V94.7681L222.453 93.8161V101.448L215.679 102.4V119.032L225.733 117.619V125.467L206.482 128.173ZM228.554 125.071V71.7907L239.392 70.2676C246.664 69.2455 252.297 73.1338 252.297 85.3738C252.297 92.6458 250.372 97.5964 247.306 100.115L252.938 121.644L243.883 122.916L239.249 104.272L237.538 104.512V123.808L228.554 125.071ZM237.538 97.6001L239.249 97.3596C241.744 97.0089 243.099 94.6585 243.099 86.8105C243.099 79.4665 241.744 78.0729 239.178 78.4336L237.538 78.6641V97.6001Z" fill="#FFEBDC"/>
<path d="M31.6877 80.7384L30.6975 80.8776V81.8776L31.6877 81.7384V80.7384ZM31.6877 35.5944L32.678 35.4552V34.4552L31.6877 34.5944V35.5944ZM24.7717 36.5664L23.7814 36.7056V37.7056L24.7717 37.5664V36.5664ZM24.7717 28.4304V27.4304L23.7814 27.5696V28.5696L24.7717 28.4304ZM47.8014 25.1938L48.7917 25.0546V24.0546L47.8014 24.1938V25.1938ZM47.8014 33.3298V34.3298L48.7917 34.1906V33.1906L47.8014 33.3298ZM40.9567 34.2918V33.2918L39.9664 33.4309V34.4309L40.9567 34.2918ZM40.9567 79.4358V80.4358L41.9469 80.2966V79.2966L40.9567 79.4358ZM31.6877 80.7384L32.678 80.5992V35.4552L31.6877 35.5944L30.6975 35.7336V80.8776L31.6877 80.7384ZM31.6877 35.5944V34.5944L24.7717 35.5664V36.5664V37.5664L31.6877 36.5944V35.5944ZM24.7717 36.5664L25.762 36.4272V28.2912L24.7717 28.4304L23.7814 28.5696V36.7056L24.7717 36.5664ZM24.7717 28.4304V29.4304L47.8014 26.1938V25.1938V24.1938L24.7717 27.4304V28.4304ZM47.8014 25.1938L46.8111 25.333V33.469L47.8014 33.3298L48.7917 33.1906V25.0546L47.8014 25.1938ZM47.8014 33.3298V32.3298L40.9567 33.2918V34.2918V35.2918L47.8014 34.3298V33.3298ZM40.9567 34.2918L39.9664 34.4309V79.5749L40.9567 79.4358L41.9469 79.2966V34.1526L40.9567 34.2918ZM40.9567 79.4358V78.4358L31.6877 79.7384V80.7384V81.7384L40.9567 80.4358V79.4358ZM50.3058 78.1218L49.3155 78.261V79.261L50.3058 79.1218V78.1218ZM50.3058 24.8418V23.8418L49.3155 23.981V24.981L50.3058 24.8418ZM69.2001 22.1864L70.1904 22.0472V21.0472L69.2001 21.1864V22.1864ZM69.2001 30.3224V31.3224L70.1904 31.1832V30.1832L69.2001 30.3224ZM59.5034 31.6852V30.6852L58.5131 30.8244V31.8244L59.5034 31.6852ZM59.5034 44.7172L58.5131 44.8564V45.8564L59.5034 45.7172V44.7172ZM66.2768 43.7652L67.2671 43.6261V42.6261L66.2768 42.7652V43.7652ZM66.2768 51.3972V52.3972L67.2671 52.2581V51.2581L66.2768 51.3972ZM59.5034 52.3492V51.3492L58.5131 51.4884V52.4884L59.5034 52.3492ZM59.5034 68.9812L58.5131 69.1204V70.1204L59.5034 69.9812V68.9812ZM69.5566 67.5683L70.5469 67.4291V66.4291L69.5566 66.5683V67.5683ZM69.5566 75.4163V76.4163L70.5469 76.2771V75.2771L69.5566 75.4163ZM50.3058 78.1218L51.296 77.9826V24.7026L50.3058 24.8418L49.3155 24.981V78.261L50.3058 78.1218ZM50.3058 24.8418V25.8418L69.2001 23.1864V22.1864V21.1864L50.3058 23.8418V24.8418ZM69.2001 22.1864L68.2098 22.3256V30.4616L69.2001 30.3224L70.1904 30.1832V22.0472L69.2001 22.1864ZM69.2001 30.3224V29.3224L59.5034 30.6852V31.6852V32.6852L69.2001 31.3224V30.3224ZM59.5034 31.6852L58.5131 31.8244V44.8564L59.5034 44.7172L60.4937 44.578V31.546L59.5034 31.6852ZM59.5034 44.7172V45.7172L66.2768 44.7652V43.7652V42.7652L59.5034 43.7172V44.7172ZM66.2768 43.7652L65.2865 43.9044V51.5364L66.2768 51.3972L67.2671 51.2581V43.6261L66.2768 43.7652ZM66.2768 51.3972V50.3972L59.5034 51.3492V52.3492V53.3492L66.2768 52.3972V51.3972ZM59.5034 52.3492L58.5131 52.4884V69.1204L59.5034 68.9812L60.4937 68.842V52.21L59.5034 52.3492ZM59.5034 68.9812V69.9812L69.5566 68.5683V67.5683V66.5683L59.5034 67.9812V68.9812ZM69.5566 67.5683L68.5663 67.7075V75.5555L69.5566 75.4163L70.5469 75.2771V67.4291L69.5566 67.5683ZM69.5566 75.4163V74.4163L50.3058 77.1218V78.1218V79.1218L69.5566 76.4163V75.4163ZM72.3779 75.0198L71.3877 75.159V76.159L72.3779 76.0198V75.0198ZM72.3779 21.7398V20.7398L71.3877 20.879V21.879L72.3779 21.7398ZM81.0051 20.5273L81.9653 20.1478L81.7767 19.4189L81.0051 19.5273V20.5273ZM85.0692 36.2281L86.0326 35.8611L86.0294 35.8486L85.0692 36.2281ZM88.2064 50.5472L87.2307 50.8557L87.3735 51.6643L88.2064 51.5472V50.5472ZM88.349 50.5272V51.5272L89.4104 51.378L89.3368 50.3191L88.349 50.5272ZM87.9212 19.5553V18.5553L86.9309 18.6945V19.6945L87.9212 19.5553ZM95.8354 18.4431L96.8257 18.3039V17.3039L95.8354 17.4431V18.4431ZM95.8354 71.7231V72.7231L96.8257 72.5839V71.5839L95.8354 71.7231ZM88.2777 72.7852L87.3235 73.187L87.525 73.891L88.2777 73.7852V72.7852ZM83.6432 56.5886L82.6889 56.9896L82.6891 56.9903L83.6432 56.5886ZM80.0069 42.6276L80.9837 42.3259L80.8458 41.5097L80.0069 41.6276V42.6276ZM79.8643 42.6476V41.6476L78.7656 41.8021L78.8794 42.8897L79.8643 42.6476ZM80.2921 73.9075V74.9075L81.2824 74.7683V73.7683L80.2921 73.9075ZM72.3779 75.0198L73.3682 74.8806V21.6006L72.3779 21.7398L71.3877 21.879V75.159L72.3779 75.0198ZM72.3779 21.7398V22.7398L81.0051 21.5273V20.5273V19.5273L72.3779 20.7398V21.7398ZM81.0051 20.5273L80.0449 20.9068L84.109 36.6076L85.0692 36.2281L86.0294 35.8486L81.9653 20.1478L81.0051 20.5273ZM85.0692 36.2281L84.1059 36.5952C85.1755 40.9814 86.381 46.0408 87.2307 50.8557L88.2064 50.5472L89.182 50.2388C88.3206 45.3581 87.1019 40.2463 86.0325 35.8611L85.0692 36.2281ZM88.2064 50.5472V51.5472L88.349 51.5272V50.5272V49.5272L88.2064 49.5472V50.5472ZM88.349 50.5272L89.3368 50.3191C88.9827 45.2192 88.9114 39.4962 88.9114 35.8321L87.9212 35.9713L86.9309 36.1105C86.9309 39.7905 87.0022 45.5674 87.3611 50.7353L88.349 50.5272ZM87.9212 35.9713L88.9114 35.8321V19.4161L87.9212 19.5553L86.9309 19.6945V36.1105L87.9212 35.9713ZM87.9212 19.5553V20.5553L95.8354 19.4431V18.4431V17.4431L87.9212 18.5553V19.5553ZM95.8354 18.4431L94.8451 18.5822V71.8622L95.8354 71.7231L96.8257 71.5839V18.3039L95.8354 18.4431ZM95.8354 71.7231V70.7231L88.2777 71.7852V72.7852V73.7852L95.8354 72.7231V71.7231ZM88.2777 72.7852L89.2318 72.3835L84.5973 56.1868L83.6432 56.5886L82.6891 56.9903L87.3235 73.187L88.2777 72.7852ZM83.6432 56.5886L84.5976 56.1875C83.299 51.6347 81.828 47.3224 80.9837 42.3259L80.0069 42.6276L79.0301 42.9293C79.8971 48.0602 81.4206 52.5431 82.6889 56.9896L83.6432 56.5886ZM80.0069 42.6276V41.6276L79.8643 41.6476V42.6476V43.6476L80.0069 43.6276V42.6276ZM79.8643 42.6476L78.8794 42.8897C79.2294 46.2339 79.3019 54.3744 79.3019 57.1987L80.2921 57.0595L81.2824 56.9203C81.2824 54.1287 81.2122 45.8732 80.8493 42.4056L79.8643 42.6476ZM80.2921 57.0595L79.3019 57.1987V74.0467L80.2921 73.9075L81.2824 73.7683V56.9203L80.2921 57.0595ZM80.2921 73.9075V72.9075L72.3779 74.0198V75.0198V76.0198L80.2921 74.9075V73.9075ZM105.146 70.4146L104.155 70.5538V71.5538L105.146 71.4146V70.4146ZM105.146 25.2706L106.136 25.1314V24.1314L105.146 24.2706V25.2706ZM98.2295 26.2426L97.2392 26.3818V27.3818L98.2295 27.2426V26.2426ZM98.2295 18.1066V17.1066L97.2392 17.2458V18.2458L98.2295 18.1066ZM121.259 14.87L122.249 14.7308V13.7308L121.259 13.87V14.87ZM121.259 23.006V24.006L122.249 23.8668V22.8668L121.259 23.006ZM114.414 23.9679V22.9679L113.424 23.1071V24.1071L114.414 23.9679ZM114.414 69.1119V70.1119L115.405 69.9728V68.9728L114.414 69.1119ZM105.146 70.4146L106.136 70.2754V25.1314L105.146 25.2706L104.155 25.4098V70.5538L105.146 70.4146ZM105.146 25.2706V24.2706L98.2295 25.2426V26.2426V27.2426L105.146 26.2706V25.2706ZM98.2295 26.2426L99.2198 26.1034V17.9674L98.2295 18.1066L97.2392 18.2458V26.3818L98.2295 26.2426ZM98.2295 18.1066V19.1066L121.259 15.87V14.87V13.87L98.2295 17.1066V18.1066ZM121.259 14.87L120.269 15.0091V23.1451L121.259 23.006L122.249 22.8668V14.7308L121.259 14.87ZM121.259 23.006V22.006L114.414 22.9679V23.9679V24.9679L121.259 24.006V23.006ZM114.414 23.9679L113.424 24.1071V69.2511L114.414 69.1119L115.405 68.9728V23.8288L114.414 23.9679ZM114.414 69.1119V68.1119L105.146 69.4146V70.4146V71.4146L114.414 70.1119V69.1119ZM121.482 68.1187L120.505 68.094L120.316 69.2825L121.482 69.1187V68.1187ZM130.18 13.4002V12.4002L129.34 12.5183L129.203 13.3755L130.18 13.4002ZM139.735 12.0574L140.712 11.7593L140.577 10.9391L139.735 11.0574V12.0574ZM148.362 64.3409V65.3409L149.526 65.1773L149.339 64.0428L148.362 64.3409ZM139.022 65.6536L138.039 65.9172L138.149 66.7763L139.022 66.6536V65.6536ZM137.524 53.9121L138.507 53.6485L138.397 52.7894L137.524 52.9121V53.9121ZM131.678 54.7337V53.7337L130.805 53.8564L130.695 54.7463L131.678 54.7337ZM130.18 66.8962V67.8962L131.053 67.7735L131.163 66.8836L130.18 66.8962ZM132.177 48.2556L131.195 48.2614L131.046 49.4145L132.177 49.2556V48.2556ZM137.025 47.5742V48.5742L138.132 48.4187L138.009 47.3254L137.025 47.5742ZM135.314 33.4867L136.298 33.2379L136.296 33.2201L136.294 33.2025L135.314 33.4867ZM134.672 27.6729L135.657 27.4315L135.565 26.5474L134.672 26.6729V27.6729ZM134.601 27.6829V26.6829L133.705 26.8088L133.616 27.7219L134.601 27.6829ZM133.959 33.6771L132.975 33.705L132.975 33.708L133.959 33.6771ZM121.482 68.1187L122.459 68.1434L131.158 13.4249L130.18 13.4002L129.203 13.3755L120.505 68.094L121.482 68.1187ZM130.18 13.4002V14.4002L139.735 13.0574V12.0574V11.0574L130.18 12.4002V13.4002ZM139.735 12.0574L138.757 12.3555L147.384 64.639L148.362 64.3409L149.339 64.0428L140.712 11.7593L139.735 12.0574ZM148.362 64.3409V63.3409L139.022 64.6536V65.6536V66.6536L148.362 65.3409V64.3409ZM139.022 65.6536L140.004 65.39L138.507 53.6485L137.524 53.9121L136.542 54.1756L138.039 65.9172L139.022 65.6536ZM137.524 53.9121V52.9121L131.678 53.7337V54.7337V55.7337L137.524 54.9121V53.9121ZM131.678 54.7337L130.695 54.7463L129.198 66.9087L130.18 66.8962L131.163 66.8836L132.66 54.7212L131.678 54.7337ZM130.18 66.8962V65.8962L121.482 67.1187V68.1187V69.1187L130.18 67.8962V66.8962ZM132.177 48.2556V49.2556L137.025 48.5742V47.5742V46.5742L132.177 47.2556V48.2556ZM137.025 47.5742L138.009 47.3254C137.83 45.7233 137.473 42.8323 137.126 40.031C136.778 37.2225 136.44 34.5064 136.298 33.2379L135.314 33.4867L134.33 33.7354C134.473 35.0189 134.813 37.7516 135.16 40.5514C135.508 43.3584 135.864 46.2352 136.041 47.823L137.025 47.5742ZM135.314 33.4867L136.294 33.2025C136.013 31.3269 135.875 29.5224 135.657 27.4315L134.672 27.6729L133.687 27.9142C133.898 29.9392 134.045 31.8386 134.334 33.7709L135.314 33.4867ZM134.672 27.6729V26.6729L134.601 26.6829V27.6829V28.6829L134.672 28.6729V27.6729ZM134.601 27.6829L133.616 27.7219C133.402 29.9047 133.19 31.7206 132.975 33.705L133.959 33.6771L134.944 33.6492C135.156 31.6854 135.372 29.8412 135.586 27.6439L134.601 27.6829ZM133.959 33.6771L132.975 33.708C132.691 36.3977 131.623 44.96 131.195 48.2614L132.177 48.2556L133.158 48.2498C133.586 44.9509 134.657 36.3646 134.944 33.6462L133.959 33.6771ZM174.311 27.358L174.352 28.3514L175.31 28.1771L175.302 27.2097L174.311 27.358ZM165.613 28.9405L164.623 29.0947L164.638 30.1187L165.653 29.9339L165.613 28.9405ZM165.969 41.9944L166.01 40.9895L165.009 41.0888L164.98 42.1045L165.969 41.9944ZM174.668 41.1319L175.657 41.0388L175.703 40.0284L174.708 40.127L174.668 41.1319ZM162.476 62.8614V61.8614C160.398 62.1534 158.673 61.9779 157.238 61.3128C155.805 60.6491 154.587 59.4629 153.593 57.5965C151.582 53.8172 150.561 47.3771 150.561 37.3919L149.571 37.5311L148.58 37.6702C148.58 47.701 149.591 54.5473 151.822 58.7399C152.95 60.8593 154.405 62.3304 156.221 63.1721C158.035 64.0124 160.133 64.1906 162.476 63.8614V62.8614ZM149.571 37.5311L150.561 37.3919C150.561 27.409 151.6 20.678 153.611 16.3324C154.605 14.1852 155.821 12.6563 157.241 11.5919C158.663 10.5259 160.365 9.86998 162.404 9.58338V8.58338V7.58338C160.094 7.90803 158.018 8.67415 156.218 10.023C154.416 11.3734 152.967 13.252 151.84 15.6869C149.609 20.5055 148.58 27.6372 148.58 37.6702L149.571 37.5311ZM162.404 8.58338V9.58338C164.424 9.2995 166.058 9.35196 167.386 9.77197C168.696 10.1863 169.76 10.9744 170.615 12.2632C172.368 14.9034 173.25 19.6424 173.321 27.5063L174.311 27.358L175.302 27.2097C175.23 19.3256 174.365 14.086 172.304 10.9804C171.252 9.39623 169.892 8.36954 168.202 7.83507C166.531 7.30631 164.591 7.27605 162.404 7.58338V8.58338ZM174.311 27.358L174.271 26.3645L165.572 27.947L165.613 28.9405L165.653 29.9339L174.352 28.3514L174.311 27.358ZM165.613 28.9405L166.603 28.7863C166.532 24.0211 166.303 20.8725 165.767 18.9467C165.497 17.979 165.121 17.2051 164.547 16.708C163.935 16.1774 163.191 16.0408 162.404 16.1514V17.1514V18.1514C162.759 18.1016 162.968 18.164 163.149 18.3207C163.368 18.5108 163.625 18.9126 163.855 19.7377C164.317 21.3976 164.551 24.3038 164.623 29.0947L165.613 28.9405ZM162.404 17.1514V16.1514C161.284 16.3088 160.388 16.9498 159.753 17.9971C159.167 18.9643 158.808 20.2632 158.566 21.8258C158.078 24.968 157.992 29.7111 157.992 36.3475L158.982 36.2084L159.972 36.0692C159.972 29.3856 160.064 24.8157 160.521 21.8671C160.751 20.3843 161.057 19.4434 161.399 18.8783C161.693 18.3933 161.992 18.2094 162.404 18.1514V17.1514ZM158.982 36.2084L157.992 36.3475C157.992 43.1654 158.096 47.9371 158.602 50.9512C158.854 52.4503 159.223 53.6423 159.82 54.4362C160.467 55.2962 161.367 55.6652 162.476 55.5094V54.5094V53.5094C162.052 53.569 161.749 53.468 161.453 53.0746C161.107 52.6149 160.795 51.7697 160.556 50.3497C160.082 47.5256 159.972 42.9313 159.972 36.0692L158.982 36.2084ZM162.476 54.5094V55.5094C163.239 55.4022 164.005 55.1326 164.664 54.4924C165.3 53.8736 165.71 53.0302 166 52.0163C166.57 50.0227 166.817 46.8444 166.959 41.8842L165.969 41.9944L164.98 42.1045C164.836 47.1204 164.584 50.0243 164.103 51.7064C163.867 52.5305 163.613 52.9233 163.405 53.1252C163.219 53.3057 162.961 53.4412 162.476 53.5094V54.5094ZM165.969 41.9944L165.929 42.9992L174.627 42.1367L174.668 41.1319L174.708 40.127L166.01 40.9895L165.969 41.9944ZM174.668 41.1319L173.679 41.2249C173.429 46.7383 172.876 51.6297 171.236 55.2915C170.427 57.0972 169.371 58.5626 167.986 59.6575C166.602 60.751 164.818 61.5321 162.476 61.8614V62.8614V63.8614C165.124 63.4892 167.297 62.5802 169.058 61.1888C170.816 59.7989 172.091 57.9847 173.02 55.9102C174.855 51.8115 175.408 46.5396 175.657 41.0388L174.668 41.1319ZM177.517 60.2435L176.526 60.3827V61.3827L177.517 61.2435V60.2435ZM177.517 6.96351V5.96351L176.526 6.10269V7.10269L177.517 6.96351ZM186.714 5.67087L187.704 5.5317V4.5317L186.714 4.67087V5.67087ZM186.714 51.1029L185.724 51.242V52.242L186.714 52.1029V51.1029ZM196.268 49.7601L197.259 49.621V48.621L196.268 48.7601V49.7601ZM196.268 57.6081V58.6081L197.259 58.469V57.469L196.268 57.6081ZM177.517 60.2435L178.507 60.1043V6.82434L177.517 6.96351L176.526 7.10269V60.3827L177.517 60.2435ZM177.517 6.96351V7.96351L186.714 6.67087V5.67087V4.67087L177.517 5.96351V6.96351ZM186.714 5.67087L185.724 5.81005V51.242L186.714 51.1029L187.704 50.9637V5.5317L186.714 5.67087ZM186.714 51.1029V52.1029L196.268 50.7601V49.7601V48.7601L186.714 50.1029V51.1029ZM196.268 49.7601L195.278 49.8993V57.7473L196.268 57.6081L197.259 57.469V49.621L196.268 49.7601ZM196.268 57.6081V56.6081L177.517 59.2435V60.2435V61.2435L196.268 58.6081V57.6081ZM198.823 57.2491L197.833 57.3883V58.3883L198.823 58.2491V57.2491ZM198.823 3.96912V2.96912L197.833 3.10829V4.10829L198.823 3.96912ZM217.717 1.31369L218.707 1.17452V0.17452L217.717 0.313693V1.31369ZM217.717 9.44969V10.4497L218.707 10.3105V9.31052L217.717 9.44969ZM208.02 10.8125V9.81247L207.03 9.95165V10.9516L208.02 10.8125ZM208.02 23.8445L207.03 23.9836V24.9836L208.02 24.8445V23.8445ZM214.794 22.8925L215.784 22.7534V21.7534L214.794 21.8925V22.8925ZM214.794 30.5245V31.5245L215.784 31.3854V30.3854L214.794 30.5245ZM208.02 31.4765V30.4765L207.03 30.6157V31.6157L208.02 31.4765ZM208.02 48.1085L207.03 48.2477V49.2477L208.02 49.1085V48.1085ZM218.074 46.6956L219.064 46.5564V45.5564L218.074 45.6956V46.6956ZM218.074 54.5436V55.5436L219.064 55.4044V54.4044L218.074 54.5436ZM198.823 57.2491L199.813 57.1099V3.82994L198.823 3.96912L197.833 4.10829V57.3883L198.823 57.2491ZM198.823 3.96912V4.96912L217.717 2.31369V1.31369V0.313693L198.823 2.96912V3.96912ZM217.717 1.31369L216.727 1.45287V9.58886L217.717 9.44969L218.707 9.31052V1.17452L217.717 1.31369ZM217.717 9.44969V8.44969L208.02 9.81247V10.8125V11.8125L217.717 10.4497V9.44969ZM208.02 10.8125L207.03 10.9516V23.9836L208.02 23.8445L209.011 23.7053V10.6733L208.02 10.8125ZM208.02 23.8445V24.8445L214.794 23.8925V22.8925V21.8925L208.02 22.8445V23.8445ZM214.794 22.8925L213.804 23.0317V30.6637L214.794 30.5245L215.784 30.3854V22.7534L214.794 22.8925ZM214.794 30.5245V29.5245L208.02 30.4765V31.4765V32.4765L214.794 31.5245V30.5245ZM208.02 31.4765L207.03 31.6157V48.2477L208.02 48.1085L209.011 47.9693V31.3373L208.02 31.4765ZM208.02 48.1085V49.1085L218.074 47.6956V46.6956V45.6956L208.02 47.1085V48.1085ZM218.074 46.6956L217.083 46.8348V54.6828L218.074 54.5436L219.064 54.4044V46.5564L218.074 46.6956ZM218.074 54.5436V53.5436L198.823 56.2491V57.2491V58.2491L218.074 55.5436V54.5436ZM1.70527 156.952L0.715 157.091V158.091L1.70527 157.952V156.952ZM1.70527 103.672V102.672L0.715 102.811V103.811L1.70527 103.672ZM10.3325 102.46L11.2927 102.08L11.104 101.351L10.3325 101.46V102.46ZM14.3965 118.161L15.36 117.793L15.3567 117.781L14.3965 118.161ZM17.5337 132.48L16.5581 132.788L16.7008 133.597L17.5337 133.48V132.48ZM17.6763 132.46V133.46L18.7377 133.31L18.6642 132.251L17.6763 132.46ZM17.2485 101.488V100.488L16.2582 100.627V101.627L17.2485 101.488ZM25.1627 100.375L26.153 100.236V99.2363L25.1627 99.3754V100.375ZM25.1627 153.655V154.655L26.153 154.516V153.516L25.1627 153.655ZM17.605 154.718L16.6509 155.119L16.8523 155.823L17.605 155.718V154.718ZM12.9706 138.521L12.0162 138.922L12.0164 138.923L12.9706 138.521ZM9.33429 124.56L10.3111 124.258L10.1732 123.442L9.33429 123.56V124.56ZM9.1917 124.58V123.58L8.09292 123.734L8.20676 124.822L9.1917 124.58ZM9.61949 155.84V156.84L10.6098 156.701V155.701L9.61949 155.84ZM1.70527 156.952L2.69554 156.813V103.533L1.70527 103.672L0.715 103.811V157.091L1.70527 156.952ZM1.70527 103.672V104.672L10.3325 103.46V102.46V101.46L1.70527 102.672V103.672ZM10.3325 102.46L9.37229 102.839L13.4363 118.54L14.3965 118.161L15.3567 117.781L11.2927 102.08L10.3325 102.46ZM14.3965 118.161L13.4332 118.528C14.5028 122.914 15.7083 127.973 16.5581 132.788L17.5337 132.48L18.5093 132.171C17.6479 127.291 16.4292 122.179 15.3599 117.794L14.3965 118.161ZM17.5337 132.48V133.48L17.6763 133.46V132.46V131.46L17.5337 131.48V132.48ZM17.6763 132.46L18.6642 132.251C18.3101 127.152 18.2388 121.429 18.2388 117.765L17.2485 117.904L16.2582 118.043C16.2582 121.723 16.3296 127.5 16.6884 132.668L17.6763 132.46ZM17.2485 117.904L18.2388 117.765V101.349L17.2485 101.488L16.2582 101.627V118.043L17.2485 117.904ZM17.2485 101.488V102.488L25.1627 101.375V100.375V99.3754L17.2485 100.488V101.488ZM25.1627 100.375L24.1725 100.515V153.795L25.1627 153.655L26.153 153.516V100.236L25.1627 100.375ZM25.1627 153.655V152.655L17.605 153.718V154.718V155.718L25.1627 154.655V153.655ZM17.605 154.718L18.5592 154.316L13.9247 138.119L12.9706 138.521L12.0164 138.923L16.6509 155.119L17.605 154.718ZM12.9706 138.521L13.9249 138.12C12.6264 133.567 11.1553 129.255 10.3111 124.258L9.33429 124.56L8.3575 124.862C9.22445 129.993 10.748 134.476 12.0162 138.922L12.9706 138.521ZM9.33429 124.56V123.56L9.1917 123.58V124.58V125.58L9.33429 125.56V124.56ZM9.1917 124.58L8.20676 124.822C8.5568 128.166 8.62922 136.307 8.62922 139.131L9.61949 138.992L10.6098 138.853C10.6098 136.061 10.5396 127.806 10.1766 124.338L9.1917 124.58ZM9.61949 138.992L8.62922 139.131V155.979L9.61949 155.84L10.6098 155.701V138.853L9.61949 138.992ZM9.61949 155.84V154.84L1.70527 155.952V156.952V157.952L9.61949 156.84V155.84ZM29.6958 153.018L28.7055 153.158V154.158L29.6958 154.018V153.018ZM29.6958 99.7384V98.7384L28.7055 98.8775V99.8775L29.6958 99.7384ZM48.5901 97.0829L49.5804 96.9438V95.9438L48.5901 96.0829V97.0829ZM48.5901 105.219V106.219L49.5804 106.08V105.08L48.5901 105.219ZM38.8934 106.582V105.582L37.9032 105.721V106.721L38.8934 106.582ZM38.8934 119.614L37.9032 119.753V120.753L38.8934 120.614V119.614ZM45.6669 118.662L46.6571 118.523V117.523L45.6669 117.662V118.662ZM45.6669 126.294V127.294L46.6571 127.155V126.155L45.6669 126.294ZM38.8934 127.246V126.246L37.9032 126.385V127.385L38.8934 127.246ZM38.8934 143.878L37.9032 144.017V145.017L38.8934 144.878V143.878ZM48.9466 142.465L49.9369 142.326V141.326L48.9466 141.465V142.465ZM48.9466 150.313V151.313L49.9369 151.174V150.174L48.9466 150.313ZM29.6958 153.018L30.6861 152.879V99.5992L29.6958 99.7384L28.7055 99.8775V153.158L29.6958 153.018ZM29.6958 99.7384V100.738L48.5901 98.0829V97.0829V96.0829L29.6958 98.7384V99.7384ZM48.5901 97.0829L47.5999 97.2221V105.358L48.5901 105.219L49.5804 105.08V96.9438L48.5901 97.0829ZM48.5901 105.219V104.219L38.8934 105.582V106.582V107.582L48.5901 106.219V105.219ZM38.8934 106.582L37.9032 106.721V119.753L38.8934 119.614L39.8837 119.475V106.443L38.8934 106.582ZM38.8934 119.614V120.614L45.6669 119.662V118.662V117.662L38.8934 118.614V119.614ZM45.6669 118.662L44.6766 118.801V126.433L45.6669 126.294L46.6571 126.155V118.523L45.6669 118.662ZM45.6669 126.294V125.294L38.8934 126.246V127.246V128.246L45.6669 127.294V126.294ZM38.8934 127.246L37.9032 127.385V144.017L38.8934 143.878L39.8837 143.739V127.107L38.8934 127.246ZM38.8934 143.878V144.878L48.9466 143.465V142.465V141.465L38.8934 142.878V143.878ZM48.9466 142.465L47.9564 142.604V150.452L48.9466 150.313L49.9369 150.174V142.326L48.9466 142.465ZM48.9466 150.313V149.313L29.6958 152.018V153.018V154.018L48.9466 151.313V150.313ZM56.3311 149.419L55.3482 149.679L55.4549 150.542L56.3311 150.419V149.419ZM49.8429 96.9069V95.9069L48.7237 96.0642L48.86 97.1667L49.8429 96.9069ZM58.8979 95.6343L59.8846 95.4107L59.8074 94.5065L58.8979 94.6343V95.6343ZM61.0369 120.678L62.025 120.474L62.0244 120.464L62.0236 120.454L61.0369 120.678ZM61.6786 131.819L60.6889 131.994L62.6665 131.749L61.6786 131.819ZM61.7499 131.809L60.7606 131.903L62.7367 131.754L61.7499 131.809ZM62.7481 120.437L61.7648 120.457L61.7636 120.467L61.7627 120.476L62.7481 120.437ZM65.7426 94.6723V93.6723L64.8635 93.7959L64.7593 94.692L65.7426 94.6723ZM72.3022 93.7504L73.2872 93.5094L73.1955 92.6249L72.3022 92.7504V93.7504ZM74.8689 118.518L73.8839 118.759L73.8843 118.763L74.8689 118.518ZM75.7958 129.835L74.8068 130.024L74.8531 130.968L75.7958 130.835V129.835ZM75.8671 129.825V130.825L76.8106 130.693L76.8562 129.735L75.8671 129.825ZM76.5801 118.349L77.5669 118.295L77.567 118.293L76.5801 118.349ZM78.6478 92.8586V91.8586L77.7362 91.9867L77.6609 92.9147L78.6478 92.8586ZM87.0611 91.6762L88.0437 91.6625L88.1833 90.5185L87.0611 90.6762V91.6762ZM80.4303 146.032V147.032L81.3042 146.909L81.4129 146.018L80.4303 146.032ZM71.9457 147.225L70.9607 147.467L71.0533 148.35L71.9457 148.225V147.225ZM68.452 113.876L69.4369 113.633L69.3444 112.75L68.452 112.876V113.876ZM68.3807 113.886V112.886L67.4883 113.011L67.3958 113.92L68.3807 113.886ZM64.887 148.217V149.217L65.7794 149.091L65.872 148.182L64.887 148.217ZM56.3311 149.419L57.314 149.159L50.8258 96.647L49.8429 96.9069L48.86 97.1667L55.3482 149.679L56.3311 149.419ZM49.8429 96.9069V97.9069L58.8979 96.6343V95.6343V94.6343L49.8429 95.9069V96.9069ZM58.8979 95.6343L57.9112 95.8579L60.0502 120.901L61.0369 120.678L62.0236 120.454L59.8846 95.4107L58.8979 95.6343ZM61.0369 120.678L60.0487 120.882C60.2634 124.176 60.547 127.929 60.6889 131.994L61.6786 131.819L62.6682 131.645C62.5249 127.542 62.2381 123.743 62.025 120.474L61.0369 120.678ZM61.6786 131.819C62.6665 131.749 62.6665 131.749 62.6665 131.749C62.6665 131.749 62.6665 131.749 62.6665 131.749C62.6666 131.748 62.6666 131.748 62.6666 131.748C62.6666 131.748 62.6666 131.747 62.6667 131.747C62.6668 131.745 62.6669 131.743 62.6671 131.74C62.6675 131.734 62.6681 131.725 62.6689 131.714C62.6704 131.692 62.6726 131.659 62.6753 131.619C62.6809 131.539 62.6886 131.427 62.6974 131.303C62.7153 131.053 62.737 130.761 62.7539 130.571C62.7643 130.454 62.7684 130.43 62.7643 130.454C62.7629 130.461 62.7589 130.484 62.7516 130.514C62.7479 130.529 62.7413 130.555 62.7311 130.587C62.7228 130.612 62.7018 130.676 62.6631 130.753C62.6433 130.792 62.6082 130.857 62.5537 130.93C62.5032 130.999 62.4013 131.122 62.2374 131.227C62.0532 131.346 61.8072 131.43 61.544 131.398C61.3018 131.368 61.1452 131.251 61.0625 131.171C60.9797 131.091 60.9319 131.01 60.9076 130.963C60.8812 130.913 60.8646 130.869 60.8548 130.84C60.8356 130.783 60.8263 130.737 60.8222 130.715C60.8138 130.669 60.811 130.634 60.8103 130.624C60.8092 130.61 60.8088 130.6 60.8087 130.597C60.8084 130.591 60.8086 130.593 60.8086 130.605C60.8086 130.726 60.7967 131.098 60.7606 131.903L61.7499 131.809L62.7391 131.716C62.7744 130.927 62.7892 130.503 62.7892 130.327C62.7892 130.323 62.7919 130.197 62.7708 130.083C62.7664 130.059 62.7567 130.011 62.7371 129.953C62.7268 129.923 62.6744 129.762 62.528 129.62C62.4451 129.539 62.2882 129.423 62.0458 129.393C61.7823 129.36 61.5361 129.444 61.3516 129.563C61.0612 129.751 60.9388 130.011 60.9244 130.04C60.8592 130.169 60.8342 130.282 60.8323 130.29C60.8238 130.325 60.8184 130.354 60.8157 130.37C60.8004 130.457 60.7889 130.583 60.7815 130.667C60.7628 130.878 60.7399 131.186 60.7221 131.436C60.7131 131.562 60.7052 131.675 60.6996 131.757C60.6968 131.798 60.6946 131.831 60.693 131.854C60.6922 131.866 60.6916 131.875 60.6912 131.881C60.691 131.884 60.6909 131.886 60.6908 131.888C60.6907 131.889 60.6907 131.889 60.6906 131.89C60.6906 131.89 60.6906 131.89 60.6906 131.89C60.6906 131.89 60.6906 131.89 60.6906 131.89C60.6906 131.89 60.6906 131.89 61.6786 131.819ZM61.7499 131.809L62.7367 131.754C62.8078 130.882 63.6629 121.12 63.7334 120.398L62.7481 120.437L61.7627 120.476C61.6906 121.214 60.8345 130.989 60.763 131.865L61.7499 131.809ZM62.7481 120.437L63.7313 120.417L66.7259 94.6526L65.7426 94.6723L64.7593 94.692L61.7648 120.457L62.7481 120.437ZM65.7426 94.6723V95.6723L72.3022 94.7504V93.7504V92.7504L65.7426 93.6723V94.6723ZM72.3022 93.7504L71.3171 93.9915L73.8839 118.759L74.8689 118.518L75.854 118.277L73.2872 93.5094L72.3022 93.7504ZM74.8689 118.518L73.8843 118.763C74.3111 122.725 74.5942 125.688 74.8068 130.024L75.7958 129.835L76.7849 129.647C76.5697 125.259 76.2824 122.254 75.8536 118.273L74.8689 118.518ZM75.7958 129.835V130.835L75.8671 130.825V129.825V128.825L75.7958 128.835V129.835ZM75.8671 129.825L76.8562 129.735C77.0699 125.245 77.2118 122.575 77.5669 118.295L76.5801 118.349L75.5934 118.403C75.2354 122.719 75.0921 125.418 74.878 129.916L75.8671 129.825ZM76.5801 118.349L77.567 118.293L79.6347 92.8025L78.6478 92.8586L77.6609 92.9147L75.5932 118.405L76.5801 118.349ZM78.6478 92.8586V93.8586L87.0611 92.6762V91.6762V90.6762L78.6478 91.8586V92.8586ZM87.0611 91.6762L86.0785 91.6899L79.4477 146.046L80.4303 146.032L81.4129 146.018L88.0437 91.6625L87.0611 91.6762ZM80.4303 146.032V145.032L71.9457 146.225V147.225V148.225L80.4303 147.032V146.032ZM71.9457 147.225L72.9306 146.982L69.4369 113.633L68.452 113.876L67.4671 114.118L70.9607 147.467L71.9457 147.225ZM68.452 113.876V112.876L68.3807 112.886V113.886V114.886L68.452 114.876V113.876ZM68.3807 113.886L67.3958 113.92L63.9021 148.251L64.887 148.217L65.872 148.182L69.3656 113.851L68.3807 113.886ZM64.887 148.217V147.217L56.3311 148.419V149.419V150.419L64.887 149.217V148.217ZM88.0771 128.469L88.0031 127.483L87.017 127.696L87.0895 128.682L88.0771 128.469ZM96.6331 126.619L97.6189 126.386L97.5268 125.423L96.559 125.632L96.6331 126.619ZM97.2034 119.915L96.4626 120.683L96.4648 120.685L97.2034 119.915ZM112.533 103.36L112.622 104.344L113.582 104.121L113.521 103.158L112.533 103.36ZM103.906 105.365L102.917 105.56L102.975 106.585L103.995 106.348L103.906 105.365ZM104.547 112.907L103.82 113.687L103.824 113.691L104.547 112.907ZM100.697 143.544V142.544C98.2774 142.884 96.4294 142.722 94.9996 142.196C93.5794 141.673 92.5176 140.772 91.7038 139.536C90.0418 137.011 89.422 133.114 89.0647 128.257L88.0771 128.469L87.0895 128.682C87.4452 133.516 88.0732 137.868 90.0118 140.813C90.9983 142.312 92.325 143.451 94.1089 144.107C95.8831 144.76 98.0546 144.915 100.697 144.544V143.544ZM88.0771 128.469L88.1512 129.456L96.7071 127.606L96.6331 126.619L96.559 125.632L88.0031 127.483L88.0771 128.469ZM96.6331 126.619L95.6472 126.852C96.0012 130.556 96.3826 133.087 97.0652 134.639C97.417 135.439 97.8826 136.063 98.5434 136.435C99.2123 136.812 99.9727 136.87 100.768 136.758V135.758V134.758C100.245 134.831 99.9181 134.772 99.6757 134.635C99.4253 134.494 99.1556 134.209 98.8924 133.611C98.3451 132.366 97.9779 130.142 97.6189 126.386L96.6331 126.619ZM100.768 135.758V136.758C102.075 136.574 103.203 135.918 103.959 134.722C104.672 133.596 104.967 132.125 104.967 130.416L103.977 130.555L102.987 130.694C102.987 132.225 102.712 133.21 102.337 133.802C102.006 134.325 101.53 134.651 100.768 134.758V135.758ZM103.977 130.555L104.967 130.416C104.967 127.882 104.063 125.924 102.742 124.176C101.448 122.462 99.6826 120.869 97.9421 119.145L97.2034 119.915L96.4648 120.685C98.2892 122.492 99.9107 123.95 101.112 125.54C102.287 127.096 102.987 128.692 102.987 130.694L103.977 130.555ZM97.2034 119.915L97.9442 119.147C93.993 115.204 89.923 111.364 89.923 103.874L88.9327 104.013L87.9425 104.152C87.9425 112.502 92.571 116.799 96.4627 120.683L97.2034 119.915ZM88.9327 104.013L89.923 103.874C89.923 99.996 90.8836 96.8452 92.6079 94.5714C94.313 92.3229 96.8694 90.7937 100.341 90.3059V89.3059V88.3059C96.3967 88.8602 93.2491 90.6526 91.1041 93.4812C88.9783 96.2845 87.9425 99.9663 87.9425 104.152L88.9327 104.013ZM100.341 89.3059V90.3059C104.565 89.7122 107.105 90.6672 108.727 92.7779C110.414 94.9735 111.225 98.5603 111.545 103.563L112.533 103.36L113.521 103.158C113.198 98.0987 112.37 94.0319 110.349 91.4026C108.264 88.6883 105.029 87.647 100.341 88.3059V89.3059ZM112.533 103.36L112.443 102.377L103.816 104.382L103.906 105.365L103.995 106.348L112.622 104.344L112.533 103.36ZM103.906 105.365L104.894 105.169C104.681 101.399 104.306 99.1356 103.647 97.8551C103.298 97.1774 102.839 96.7106 102.23 96.4732C101.642 96.244 101.024 96.2738 100.483 96.3498V97.3498V98.3498C100.905 98.2906 101.142 98.3081 101.31 98.3733C101.456 98.4303 101.652 98.5644 101.865 98.9778C102.329 99.8794 102.702 101.759 102.917 105.56L103.906 105.365ZM100.483 97.3498V96.3498C99.2314 96.5258 98.3104 97.3 97.7617 98.3844C97.2522 99.3916 97.0688 100.641 97.0688 101.934L98.059 101.795L99.0493 101.655C99.0493 100.5 99.2224 99.6474 99.4971 99.1043C99.7328 98.6385 100.024 98.4144 100.483 98.3498V97.3498ZM98.059 101.795L97.0688 101.934C97.0688 107.651 100.465 110.489 103.82 113.687L104.547 112.907L105.275 112.126C101.785 108.799 99.0493 106.45 99.0493 101.655L98.059 101.795ZM104.547 112.907L103.824 113.691C107.922 117.544 112.042 120.869 112.042 128.917L113.032 128.778L114.022 128.639C114.022 119.696 109.301 115.911 105.271 112.122L104.547 112.907ZM113.032 128.778L112.042 128.917C112.042 132.999 110.981 136.122 109.119 138.336C107.262 140.544 104.469 142.014 100.697 142.544V143.544V144.544C104.839 143.962 108.213 142.296 110.546 139.523C112.872 136.757 114.022 133.054 114.022 128.639L113.032 128.778ZM116.313 140.845L115.323 140.984V141.984L116.313 141.845V140.845ZM116.313 87.5651V86.5651L115.323 86.7042V87.7042L116.313 87.5651ZM125.511 86.2724L126.501 86.1333V85.1333L125.511 85.2724V86.2724ZM125.511 131.704L124.521 131.844V132.844L125.511 132.704V131.704ZM135.065 130.362L136.055 130.223V129.223L135.065 129.362V130.362ZM135.065 138.21V139.21L136.055 139.071V138.071L135.065 138.21ZM116.313 140.845L117.304 140.706V87.4259L116.313 87.5651L115.323 87.7042V140.984L116.313 140.845ZM116.313 87.5651V88.5651L125.511 87.2724V86.2724V85.2724L116.313 86.5651V87.5651ZM125.511 86.2724L124.521 86.4116V131.844L125.511 131.704L126.501 131.565V86.1333L125.511 86.2724ZM125.511 131.704V132.704L135.065 131.362V130.362V129.362L125.511 130.704V131.704ZM135.065 130.362L134.075 130.501V138.349L135.065 138.21L136.055 138.071V130.223L135.065 130.362ZM135.065 138.21V137.21L116.313 139.845V140.845V141.845L135.065 139.21V138.21ZM137.62 137.851L136.629 137.99V138.99L137.62 138.851V137.851ZM137.62 84.5707V83.5707L136.629 83.7098V84.7098L137.62 84.5707ZM156.514 81.9152L157.504 81.7761V80.7761L156.514 80.9152V81.9152ZM156.514 90.0512V91.0512L157.504 90.9121V89.9121L156.514 90.0512ZM146.817 91.414V90.414L145.827 90.5532V91.5532L146.817 91.414ZM146.817 104.446L145.827 104.585V105.585L146.817 105.446V104.446ZM153.591 103.494L154.581 103.355V102.355L153.591 102.494V103.494ZM153.591 111.126V112.126L154.581 111.987V110.987L153.591 111.126ZM146.817 112.078V111.078L145.827 111.217V112.217L146.817 112.078ZM146.817 128.71L145.827 128.849V129.849L146.817 129.71V128.71ZM156.87 127.297L157.861 127.158V126.158L156.87 126.297V127.297ZM156.87 135.145V136.145L157.861 136.006V135.006L156.87 135.145ZM137.62 137.851L138.61 137.711V84.4315L137.62 84.5707L136.629 84.7098V137.99L137.62 137.851ZM137.62 84.5707V85.5707L156.514 82.9152V81.9152V80.9152L137.62 83.5707V84.5707ZM156.514 81.9152L155.524 82.0544V90.1904L156.514 90.0512L157.504 89.9121V81.7761L156.514 81.9152ZM156.514 90.0512V89.0512L146.817 90.414V91.414V92.414L156.514 91.0512V90.0512ZM146.817 91.414L145.827 91.5532V104.585L146.817 104.446L147.807 104.307V91.2749L146.817 91.414ZM146.817 104.446V105.446L153.591 104.494V103.494V102.494L146.817 103.446V104.446ZM153.591 103.494L152.6 103.633V111.265L153.591 111.126L154.581 110.987V103.355L153.591 103.494ZM153.591 111.126V110.126L146.817 111.078V112.078V113.078L153.591 112.126V111.126ZM146.817 112.078L145.827 112.217V128.849L146.817 128.71L147.807 128.571V111.939L146.817 112.078ZM146.817 128.71V129.71L156.87 128.297V127.297V126.297L146.817 127.71V128.71ZM156.87 127.297L155.88 127.436V135.284L156.87 135.145L157.861 135.006V127.158L156.87 127.297ZM156.87 135.145V134.145L137.62 136.851V137.851V138.851L156.87 136.145V135.145ZM164.469 134.077L163.479 134.216V135.216L164.469 135.077V134.077ZM164.469 88.9333L165.459 88.7941V87.7941L164.469 87.9333V88.9333ZM157.553 89.9052L156.562 90.0444V91.0444L157.553 90.9052V89.9052ZM157.553 81.7692V80.7692L156.562 80.9084V81.9084L157.553 81.7692ZM180.582 78.5326L181.573 78.3935V77.3935L180.582 77.5326V78.5326ZM180.582 86.6686V87.6686L181.573 87.5295V86.5295L180.582 86.6686ZM173.738 87.6306V86.6306L172.747 86.7698V87.7698L173.738 87.6306ZM173.738 132.775V133.775L174.728 133.635V132.635L173.738 132.775ZM164.469 134.077L165.459 133.938V88.7941L164.469 88.9333L163.479 89.0724V134.216L164.469 134.077ZM164.469 88.9333V87.9333L157.553 88.9052V89.9052V90.9052L164.469 89.9333V88.9333ZM157.553 89.9052L158.543 89.7661V81.6301L157.553 81.7692L156.562 81.9084V90.0444L157.553 89.9052ZM157.553 81.7692V82.7692L180.582 79.5326V78.5326V77.5326L157.553 80.7692V81.7692ZM180.582 78.5326L179.592 78.6718V86.8078L180.582 86.6686L181.573 86.5295V78.3935L180.582 78.5326ZM180.582 86.6686V85.6686L173.738 86.6306V87.6306V88.6306L180.582 87.6686V86.6686ZM173.738 87.6306L172.747 87.7698V132.914L173.738 132.775L174.728 132.635V87.4914L173.738 87.6306ZM173.738 132.775V131.775L164.469 133.077V134.077V135.077L173.738 133.775V132.775ZM187.864 130.789L186.874 130.928V131.928L187.864 131.789V130.789ZM187.864 85.6453L188.854 85.5061V84.5061L187.864 84.6453V85.6453ZM180.948 86.6173L179.958 86.7564V87.7564L180.948 87.6173V86.6173ZM180.948 78.4813V77.4813L179.958 77.6205V78.6205L180.948 78.4813ZM203.977 75.2447L204.968 75.1055V74.1055L203.977 74.2447V75.2447ZM203.977 83.3807V84.3807L204.968 84.2415V83.2415L203.977 83.3807ZM197.133 84.3426V83.3426L196.142 83.4818V84.4818L197.133 84.3426ZM197.133 129.487V130.487L198.123 130.347V129.347L197.133 129.487ZM187.864 130.789L188.854 130.65V85.5061L187.864 85.6453L186.874 85.7845V130.928L187.864 130.789ZM187.864 85.6453V84.6453L180.948 85.6173V86.6173V87.6173L187.864 86.6453V85.6453ZM180.948 86.6173L181.938 86.4781V78.3421L180.948 78.4813L179.958 78.6205V86.7564L180.948 86.6173ZM180.948 78.4813V79.4813L203.977 76.2447V75.2447V74.2447L180.948 77.4813V78.4813ZM203.977 75.2447L202.987 75.3838V83.5198L203.977 83.3807L204.968 83.2415V75.1055L203.977 75.2447ZM203.977 83.3807V82.3807L197.133 83.3426V84.3426V85.3426L203.977 84.3807V83.3807ZM197.133 84.3426L196.142 84.4818V129.626L197.133 129.487L198.123 129.347V84.2035L197.133 84.3426ZM197.133 129.487V128.487L187.864 129.789V130.789V131.789L197.133 130.487V129.487ZM206.482 128.173L205.492 128.312V129.312L206.482 129.173V128.173ZM206.482 74.8927V73.8927L205.492 74.0319V75.0319L206.482 74.8927ZM225.376 72.2373L226.366 72.0981V71.0981L225.376 71.2373V72.2373ZM225.376 80.3733V81.3733L226.366 81.2341V80.2341L225.376 80.3733ZM215.679 81.7361V80.7361L214.689 80.8752V81.8752L215.679 81.7361ZM215.679 94.7681L214.689 94.9072V95.9072L215.679 95.7681V94.7681ZM222.453 93.8161L223.443 93.6769V92.6769L222.453 92.8161V93.8161ZM222.453 101.448V102.448L223.443 102.309V101.309L222.453 101.448ZM215.679 102.4V101.4L214.689 101.539V102.539L215.679 102.4ZM215.679 119.032L214.689 119.171V120.171L215.679 120.032V119.032ZM225.733 117.619L226.723 117.48V116.48L225.733 116.619V117.619ZM225.733 125.467V126.467L226.723 126.328V125.328L225.733 125.467ZM206.482 128.173L207.472 128.034V74.7535L206.482 74.8927L205.492 75.0319V128.312L206.482 128.173ZM206.482 74.8927V75.8927L225.376 73.2373V72.2373V71.2373L206.482 73.8927V74.8927ZM225.376 72.2373L224.386 72.3765V80.5124L225.376 80.3733L226.366 80.2341V72.0981L225.376 72.2373ZM225.376 80.3733V79.3733L215.679 80.7361V81.7361V82.7361L225.376 81.3733V80.3733ZM215.679 81.7361L214.689 81.8752V94.9072L215.679 94.7681L216.67 94.6289V81.5969L215.679 81.7361ZM215.679 94.7681V95.7681L222.453 94.8161V93.8161V92.8161L215.679 93.7681V94.7681ZM222.453 93.8161L221.463 93.9553V101.587L222.453 101.448L223.443 101.309V93.6769L222.453 93.8161ZM222.453 101.448V100.448L215.679 101.4V102.4V103.4L222.453 102.448V101.448ZM215.679 102.4L214.689 102.539V119.171L215.679 119.032L216.67 118.893V102.261L215.679 102.4ZM215.679 119.032V120.032L225.733 118.619V117.619V116.619L215.679 118.032V119.032ZM225.733 117.619L224.742 117.758V125.606L225.733 125.467L226.723 125.328V117.48L225.733 117.619ZM225.733 125.467V124.467L206.482 127.173V128.173V129.173L225.733 126.467V125.467ZM228.554 125.071L227.564 125.21V126.21L228.554 126.071V125.071ZM228.554 71.7907V70.7907L227.564 70.9298V71.9298L228.554 71.7907ZM247.306 100.115L246.752 99.364L246.174 99.839L246.346 100.497L247.306 100.115ZM252.938 121.644V122.644L254.213 122.465L253.898 121.262L252.938 121.644ZM243.883 122.916L242.921 123.287L243.105 124.026L243.883 123.916V122.916ZM239.249 104.272L240.211 103.901L240.028 103.162L239.249 103.272V104.272ZM237.538 104.512V103.512L236.547 103.651V104.651L237.538 104.512ZM237.538 123.808V124.808L238.528 124.669V123.669L237.538 123.808ZM237.538 97.6001L236.547 97.7393V98.7393L237.538 98.6001V97.6001ZM237.538 78.6641V77.6641L236.547 77.8033V78.8033L237.538 78.6641ZM228.554 125.071L229.544 124.931V71.6515L228.554 71.7907L227.564 71.9298V125.21L228.554 125.071ZM228.554 71.7907V72.7907L239.392 71.2676V70.2676V69.2676L228.554 70.7907V71.7907ZM239.392 70.2676V71.2676C242.81 70.787 245.735 71.4683 247.823 73.6075C249.929 75.7654 251.306 79.5321 251.306 85.513L252.297 85.3738L253.287 85.2347C253.287 78.9756 251.848 74.6781 249.32 72.0873C246.773 69.4778 243.245 68.726 239.392 69.2676V70.2676ZM252.297 85.3738L251.306 85.513C251.306 92.6754 249.402 97.1865 246.752 99.364L247.306 100.115L247.859 100.867C251.341 98.0063 253.287 92.6163 253.287 85.2347L252.297 85.3738ZM247.306 100.115L246.346 100.497L251.979 122.025L252.938 121.644L253.898 121.262L248.265 99.7335L247.306 100.115ZM252.938 121.644V120.644L243.883 121.916V122.916V123.916L252.938 122.644V121.644ZM243.883 122.916L244.846 122.545L240.211 103.901L239.249 104.272L238.287 104.643L242.921 123.287L243.883 122.916ZM239.249 104.272V103.272L237.538 103.512V104.512V105.512L239.249 105.272V104.272ZM237.538 104.512L236.547 104.651V123.947L237.538 123.808L238.528 123.669V104.373L237.538 104.512ZM237.538 123.808V122.808L228.554 124.071V125.071V126.071L237.538 124.808V123.808ZM237.538 97.6001V98.6001L239.249 98.3596V97.3596V96.3596L237.538 96.6001V97.6001ZM239.249 97.3596V98.3596C240.018 98.2515 240.777 97.9764 241.457 97.4186C242.132 96.8641 242.64 96.1034 243.019 95.1653C243.756 93.3378 244.089 90.6089 244.089 86.6713L243.099 86.8105L242.109 86.9497C242.109 90.8601 241.765 93.2303 241.201 94.6277C240.929 95.3021 240.63 95.6852 240.35 95.9154C240.074 96.1421 239.727 96.2923 239.249 96.3596V97.3596ZM243.099 86.8105L244.089 86.6713C244.089 82.9937 243.76 80.5928 242.984 79.1565C242.579 78.4054 242.036 77.8877 241.34 77.61C240.658 77.338 239.914 77.3302 239.178 77.4336V78.4336V79.4336C239.725 79.3567 240.112 79.3878 240.407 79.5052C240.686 79.6168 240.964 79.8389 241.218 80.309C241.761 81.3153 242.109 83.2833 242.109 86.9497L243.099 86.8105ZM239.178 78.4336V77.4336L237.538 77.6641V78.6641V79.6641L239.178 79.4336V78.4336ZM237.538 78.6641L236.547 78.8033V97.7393L237.538 97.6001L238.528 97.4609V78.5249L237.538 78.6641Z" fill="black" mask="url(#path-1-outside-1_6871_3724)"/>
</svg>
