<svg width="122" height="12" viewBox="0 0 122 12" fill="none" xmlns="http://www.w3.org/2000/svg">
<g clip-path="url(#clip0_7034_8526)">
<path d="M2.81251 11.7819V2.47177H0V0.351562H7.76686V2.47177H4.95435V11.7819H2.8053H2.81251Z" fill="#FFEBDC"/>
<path d="M9.39453 11.7819V0.351562H16.9234V2.43571H11.5508V4.12321H16.2383V6.25784H11.5508V9.6617H16.7792V11.7819H9.39453Z" fill="#FFEBDC"/>
<path d="M26.461 11.7819L21.3912 4.28908V11.7819H19.2422V0.351562H21.3335L26.3889 7.82996V0.351562H28.5379V11.7819H26.4682H26.461Z" fill="#FFEBDC"/>
<path d="M33.2149 11.7819V2.47177H30.4023V0.351562H38.1692V2.47177H35.3567V11.7819H33.2076H33.2149Z" fill="#FFEBDC"/>
<path d="M45.8946 11.7819L44.7263 8.70256H40.9402L39.7503 11.7819H37.457L41.8561 0.351562H43.796L48.2095 11.7819H45.8946ZM43.8898 6.58236L42.8297 3.80591L41.7696 6.58236H43.8898Z" fill="#FFEBDC"/>
<path d="M52.2064 11.4952C51.4997 11.1924 50.8579 10.7597 50.3098 10.2116C49.7473 9.66351 49.3146 9.02168 49.0261 8.30052C48.7088 7.56494 48.543 6.7933 48.543 5.97118C48.543 2.6827 51.2401 0 54.5286 0C55.4589 0 56.3892 0.223558 57.2113 0.64183C58.0262 1.04568 58.769 1.66587 59.3171 2.40867L59.5767 2.73319L57.8603 4.00242L57.6223 3.68511C56.9012 2.70434 55.7762 2.14184 54.543 2.14184C52.4228 2.14184 50.692 3.85819 50.692 5.97839C50.692 8.0986 52.43 9.8438 54.543 9.8438C55.7617 9.8438 56.8868 9.28129 57.6223 8.30052L57.8603 7.99763L59.5623 9.25245L59.3026 9.57697C58.7401 10.3342 58.0334 10.9255 57.1969 11.3438C56.3747 11.7621 55.4661 11.9712 54.5286 11.9712C53.7281 11.9712 52.942 11.8126 52.1992 11.5025L52.2064 11.4952Z" fill="#FFEBDC"/>
<path d="M61.3711 11.7819V0.351562H63.5202V9.67612H69.3471V11.7819H61.3711Z" fill="#FFEBDC"/>
<path d="M71.2142 11.7819V0.351562H78.7431V2.43571H73.3633V4.12321H78.0508V6.25784H73.3633V9.6617H78.5917V11.7819H71.207H71.2142Z" fill="#FFEBDC"/>
<path d="M84.3915 11.864C83.3026 11.6043 82.1776 11.0274 81.168 10.1476L81.5862 9.66443C83.7209 11.5106 85.7257 11.626 86.9156 11.0923C87.8603 10.6596 88.394 9.80866 88.394 8.76298C88.394 7.97692 88.0262 7.38557 87.2545 6.94566C86.5766 6.57787 85.7906 6.41922 85.329 6.33268C85.1992 6.30383 85.1199 6.2822 85.0406 6.26777C84.9468 6.23893 84.8314 6.21729 84.6872 6.18845C84.1247 6.07306 83.2882 5.91441 82.6031 5.51777C81.716 5.00575 81.2833 4.23411 81.2833 3.25334C81.2833 2.70526 81.442 2.17881 81.7665 1.71006C82.0694 1.26294 82.5093 0.909576 83.0358 0.64996C83.793 0.296592 84.6728 0.231688 85.5742 0.390342C86.6055 0.56342 87.5791 1.01775 88.531 1.80381L88.1271 2.30141C86.519 0.96727 84.7233 0.548998 83.3098 1.21246C82.4444 1.63073 81.9108 2.40237 81.9252 3.25334C81.9252 4.86152 83.418 5.29421 84.817 5.56825C84.9613 5.5971 85.0911 5.61873 85.1848 5.64758C85.2497 5.662 85.3435 5.67643 85.4444 5.69806C85.9276 5.79181 86.8074 5.9721 87.5791 6.39037C88.0118 6.62836 88.3651 6.93845 88.6103 7.29182C88.8988 7.72451 89.043 8.20769 89.043 8.77019C89.043 9.41202 88.8843 10.025 88.5454 10.5226C88.2281 11.0202 87.7593 11.388 87.1968 11.6476C86.6848 11.8712 86.1223 12.001 85.5093 12.001C85.156 12.001 84.7665 11.9505 84.3988 11.8712L84.3915 11.864Z" fill="#FFEBDC"/>
<path d="M97.503 0.359375H98.2603L94.3155 5.84738V11.7897H93.6737V5.84738L89.7578 0.359375H90.515L94.0126 5.27046L97.5103 0.359375H97.503Z" fill="#FFEBDC"/>
<path d="M100.954 1.4988V11.7897H100.312V0.359375H100.954L107.935 10.6647V0.359375H108.577V11.7897H107.921L100.954 1.4988Z" fill="#FFEBDC"/>
<path d="M114.941 11.5082C114.22 11.2053 113.592 10.7726 113.03 10.2245C112.482 9.67643 112.049 9.0346 111.746 8.31344C111.443 7.57786 111.277 6.80622 111.277 5.9841C111.277 5.16198 111.436 4.39756 111.746 3.65477C112.049 2.94803 112.482 2.3062 113.03 1.7437C113.592 1.19562 114.22 0.762924 114.941 0.460038C115.676 0.157152 116.47 0.0273438 117.27 0.0273438C118.136 0.0273438 118.987 0.171576 119.78 0.539366C120.53 0.892733 121.193 1.37591 121.756 2.00332L121.273 2.43601C120.263 1.29658 118.799 0.618694 117.277 0.618694C114.321 0.618694 111.934 3.02736 111.934 5.97689C111.934 8.92643 114.328 11.3351 117.277 11.3351C118.806 11.3351 120.263 10.6572 121.273 9.51777L121.756 9.95047C121.193 10.5779 120.537 11.0755 119.78 11.4144C118.994 11.7822 118.143 11.9409 117.27 11.9409C116.47 11.9409 115.684 11.7966 114.941 11.4937V11.5082Z" fill="#FFEBDC"/>
</g>
<defs>
<clipPath id="clip0_7034_8526">
<rect width="121.756" height="12.001" fill="white"/>
</clipPath>
</defs>
</svg>
