<svg width="16" height="19" viewBox="0 0 16 19" fill="none" xmlns="http://www.w3.org/2000/svg">
<path d="M14.3647 5.18711C14.3483 5.29492 14.3293 5.40508 14.3079 5.51836C13.5771 9.34649 11.0766 10.6668 7.88271 10.6668H6.25677C6.06865 10.6663 5.88658 10.7348 5.74346 10.8599C5.60034 10.985 5.50561 11.1584 5.47639 11.3488L4.40819 18.2594C4.39973 18.3145 4.40197 18.3708 4.41478 18.425C4.42758 18.4793 4.45071 18.5304 4.48283 18.5755C4.51495 18.6205 4.55543 18.6587 4.60196 18.6877C4.64849 18.7167 4.70014 18.736 4.75397 18.7445C4.77541 18.7479 4.79708 18.7496 4.81878 18.7496H7.70277C7.86771 18.7501 8.02742 18.6903 8.15319 18.581C8.27897 18.4717 8.36257 18.32 8.38898 18.1531L8.41719 18.0035L8.96006 14.4879L8.99475 14.2949C9.02076 14.1278 9.10421 13.9757 9.23004 13.8661C9.35588 13.7565 9.51581 13.6966 9.68096 13.6973H10.1121C12.9065 13.6973 15.0936 12.5402 15.733 9.19258C15.9998 7.79414 15.8618 6.62656 15.155 5.80508C14.9303 5.55171 14.6625 5.34232 14.3647 5.18711Z" fill="#FFEBDC"/>
<path d="M12.8669 1.37071C12.0404 0.41094 10.5486 2.28718e-06 8.63944 2.28718e-06H3.09715C2.90864 -0.000456375 2.72616 0.0680825 2.58259 0.193271C2.43903 0.318459 2.34382 0.492066 2.31411 0.682815L0.00577282 15.6047C-0.00393412 15.6678 -0.00138008 15.7323 0.0132883 15.7944C0.0279568 15.8565 0.0544509 15.9151 0.0912511 15.9667C0.128051 16.0183 0.174433 16.062 0.227737 16.0952C0.28104 16.1284 0.340215 16.1504 0.401869 16.1602C0.426337 16.1641 0.451064 16.166 0.475827 16.166H3.89773L4.75702 10.6078L4.73033 10.782C4.75954 10.5916 4.85427 10.4182 4.9974 10.2931C5.14052 10.168 5.32259 10.0995 5.5107 10.1H7.13664C10.3302 10.1 12.8307 8.77735 13.5619 4.95156C13.5836 4.83828 13.6019 4.72813 13.6187 4.62031C13.836 3.20547 13.6168 2.24258 12.8669 1.37071Z" fill="#FFEBDC"/>
</svg>
