<svg width="19" height="18" viewBox="0 0 19 18" fill="none" xmlns="http://www.w3.org/2000/svg">
<path d="M1.54479 15.7386C1.01245 15.7386 0.580913 16.1701 0.580913 16.7024C0.580913 17.2348 1.01245 17.6663 1.54479 17.6663L1.54479 16.7024L1.54479 15.7386ZM16.6487 17.6663C17.181 17.6663 17.6125 17.2348 17.6125 16.7024C17.6125 16.1701 17.181 15.7386 16.6487 15.7386V16.7024V17.6663ZM16.5254 5.49032L15.9978 6.29695L15.9978 6.29695L16.5254 5.49032ZM10.0345 1.24443L10.5621 0.4378V0.4378L10.0345 1.24443ZM8.15897 1.24443L8.68661 2.05106L8.15897 1.24443ZM1.66806 5.49032L1.14042 4.68369L1.14042 4.68369L1.66806 5.49032ZM7.93489 3.8338C7.40256 3.8338 6.97102 4.26534 6.97102 4.79768C6.97102 5.33001 7.40256 5.76155 7.93489 5.76155V4.79768V3.8338ZM10.2586 5.76155C10.7909 5.76155 11.2224 5.33001 11.2224 4.79768C11.2224 4.26534 10.7909 3.8338 10.2586 3.8338V4.79768V5.76155ZM3.28754 16.7024H4.25142V8.3691H3.28754H2.32367V16.7024H3.28754ZM11.4204 16.7024H12.3843V8.3691H11.4204H10.4565V16.7024H11.4204ZM6.77306 16.7024H7.73693V8.3691H6.77306H5.80918V16.7024H6.77306ZM14.9059 16.7024H15.8698V8.3691H14.9059H13.942V16.7024H14.9059ZM1.54479 16.7024L1.54479 17.6663L16.6487 17.6663V16.7024V15.7386L1.54479 15.7386L1.54479 16.7024ZM2.4884 8.3691V9.33298H15.7051V8.3691V7.40523H2.4884V8.3691ZM16.5254 5.49032L17.053 4.68369L10.5621 0.4378L10.0345 1.24443L9.50686 2.05106L15.9978 6.29695L16.5254 5.49032ZM8.15897 1.24443L7.63133 0.4378L1.14042 4.68369L1.66806 5.49032L2.1957 6.29695L8.68661 2.05106L8.15897 1.24443ZM1.66806 5.49032L1.14042 4.68369C0.423886 5.1524 -6.13928e-06 5.95527 -6.13928e-06 6.807H0.963867H1.92774C1.92774 6.59215 2.03486 6.40215 2.1957 6.29695L1.66806 5.49032ZM10.0345 1.24443L10.5621 0.4378C9.66974 -0.145941 8.52372 -0.145942 7.63133 0.4378L8.15897 1.24443L8.68661 2.05106C8.93796 1.88664 9.2555 1.88664 9.50686 2.05106L10.0345 1.24443ZM17.2296 6.807H18.1935C18.1935 5.95527 17.7696 5.15239 17.053 4.68369L16.5254 5.49032L15.9978 6.29695C16.1586 6.40215 16.2657 6.59215 16.2657 6.807H17.2296ZM15.7051 8.3691V9.33298C17.1014 9.33298 18.1935 8.1798 18.1935 6.807H17.2296H16.2657C16.2657 7.15965 15.9927 7.40523 15.7051 7.40523V8.3691ZM2.4884 8.3691V7.40523C2.20075 7.40523 1.92774 7.15965 1.92774 6.807H0.963867H-6.13928e-06C-6.13928e-06 8.1798 1.0921 9.33298 2.4884 9.33298V8.3691ZM7.93489 4.79768V5.76155H10.2586V4.79768V3.8338H7.93489V4.79768Z" fill="#FFEBDC"/>
</svg>
