<svg preserveAspectRatio="none" width="100%" height="100%" overflow="visible" style="display: block;" viewBox="0 0 40 30" fill="none" xmlns="http://www.w3.org/2000/svg">
<g id="Payment Method/Visa" filter="url(#filter0_d_7121_78736)">
<rect x="2.79419" y="2.79419" width="33.7243" height="23.8054" rx="2.97567" fill="var(--fill-0, white)" shape-rendering="crispEdges"/>
<path id="visa-logo" fill-rule="evenodd" clip-rule="evenodd" d="M12.9303 18.7905H10.9075L9.39064 12.823C9.31865 12.5484 9.16578 12.3058 8.94091 12.1914C8.37973 11.904 7.76134 11.6752 7.08674 11.5598V11.3301H10.3453C10.7951 11.3301 11.1324 11.6752 11.1886 12.076L11.9756 16.3806L13.9975 11.3301H15.9641L12.9303 18.7905ZM17.0901 18.7905H15.1797L16.7528 11.3301H18.6632L17.0901 18.7905ZM21.1328 13.3974C21.1891 12.9956 21.5264 12.7659 21.9199 12.7659C22.5383 12.7082 23.2119 12.8236 23.774 13.11L24.1113 11.5037C23.5492 11.274 22.9308 11.1586 22.3696 11.1586C20.5154 11.1586 19.1662 12.192 19.1662 13.6262C19.1662 14.7173 20.1219 15.2901 20.7965 15.6353C21.5264 15.9794 21.8074 16.2091 21.7512 16.5533C21.7512 17.0695 21.1891 17.2992 20.6279 17.2992C19.9533 17.2992 19.2787 17.1272 18.6613 16.8397L18.324 18.447C18.9986 18.7334 19.7284 18.8488 20.403 18.8488C22.482 18.9055 23.774 17.8731 23.774 16.3235C23.774 14.3721 21.1328 14.2578 21.1328 13.3974V13.3974ZM30.4594 18.7905L28.9426 11.3301H27.3133C26.976 11.3301 26.6387 11.5598 26.5262 11.904L23.7174 18.7905H25.684L26.0765 17.7004H28.4928L28.7177 18.7905H30.4594ZM27.5945 13.3395L28.1557 16.1512H26.5826L27.5945 13.3395Z" fill="var(--fill-0, #172B85)"/>
</g>
<defs>
<filter id="filter0_d_7121_78736" x="0" y="0" width="39.3126" height="29.3937" filterUnits="userSpaceOnUse" color-interpolation-filters="sRGB">
<feFlood flood-opacity="0" result="BackgroundImageFix"/>
<feColorMatrix in="SourceAlpha" type="matrix" values="0 0 0 0 0 0 0 0 0 0 0 0 0 0 0 0 0 0 127 0" result="hardAlpha"/>
<feOffset/>
<feGaussianBlur stdDeviation="1.39709"/>
<feComposite in2="hardAlpha" operator="out"/>
<feColorMatrix type="matrix" values="0 0 0 0 0 0 0 0 0 0 0 0 0 0 0 0 0 0 0.07 0"/>
<feBlend mode="normal" in2="BackgroundImageFix" result="effect1_dropShadow_7121_78736"/>
<feBlend mode="normal" in="SourceGraphic" in2="effect1_dropShadow_7121_78736" result="shape"/>
</filter>
</defs>
</svg>
