<svg width="377" height="198" viewBox="0 0 377 198" fill="none" xmlns="http://www.w3.org/2000/svg">
<mask id="path-1-outside-1_6877_6921" maskUnits="userSpaceOnUse" x="7.92214" y="0.387652" width="368.38" height="194.772" fill="black">
<rect fill="white" x="7.92214" y="0.387652" width="368.38" height="194.772"/>
<path d="M66.7728 98.8891V45.6091L86.0949 42.8936V51.0296L75.9704 52.4525V66.0605L83.4568 65.0083V72.5683L75.9704 73.6205V97.5965L66.7728 98.8891ZM88.6361 95.8165V42.5365L99.4735 41.0133C106.746 39.9913 112.379 43.8796 112.379 56.1196C112.379 63.3916 110.454 68.3422 107.388 70.8611L113.02 92.3895L103.965 93.6621L99.3309 75.0174L97.6198 75.2579V94.5539L88.6361 95.8165ZM97.6198 68.3459L99.3309 68.1054C101.826 67.7547 103.181 65.4043 103.181 57.5563C103.181 50.2123 101.826 48.8187 99.2596 49.1794L97.6198 49.4099V68.3459ZM115.861 91.9903V38.7103L134.755 36.0549V44.1909L125.058 45.5536V58.5856L131.832 57.6337V65.2657L125.058 66.2176V82.8496L135.112 81.4368V89.2848L115.861 91.9903ZM157.683 100.369C147.273 101.832 146.204 95.5739 146.204 87.6539C140.001 86.5816 136.863 79.1025 136.863 62.3985C136.863 42.5985 141.141 34.6533 149.911 33.4208C158.681 32.1883 163.03 38.921 163.03 58.721C163.03 75.497 159.465 84.2061 153.547 86.6218C153.547 91.6618 154.973 92.6133 158.752 92.0823L160.25 91.8718V100.008L157.683 100.369ZM149.911 79.7888C153.048 79.3479 153.547 74.0218 153.547 60.0538C153.547 46.0858 153.048 41.5479 149.911 41.9888C146.845 42.4197 146.346 47.0978 146.346 61.0658C146.346 75.0338 146.845 80.2197 149.911 79.7888ZM178.313 83.7172C169.329 84.9798 166.477 79.9086 166.477 69.9726V31.5966L175.675 30.304V68.104C175.675 74.368 176.174 76.2418 178.598 75.9011C180.951 75.5705 181.521 73.6903 181.521 67.4263V29.4823L190.291 28.2498V66.4098C190.291 76.4898 187.296 82.4546 178.313 83.7172ZM194.68 80.913V27.633L213.574 24.9775V33.1135L203.877 34.4763V47.5083L210.651 46.5564V54.1884L203.877 55.1403V71.7723L213.931 70.3594V78.2074L194.68 80.913ZM216.752 77.8109V24.5309L225.379 23.3185L229.443 39.0193C230.513 43.405 231.725 48.4906 232.58 53.3384L232.723 53.3183C232.367 48.1844 232.295 42.4345 232.295 38.7625V22.3465L240.209 21.2342V74.5142L232.652 75.5764L228.017 59.3797C226.734 54.8801 225.237 50.4825 224.381 45.4187L224.238 45.4388C224.595 48.8447 224.666 57.0427 224.666 59.8507V76.6987L216.752 77.8109ZM249.52 73.2057V28.0617L242.604 29.0337V20.8977L265.633 17.6611V25.7971L258.788 26.7591V71.9031L249.52 73.2057ZM268.138 70.5891V17.3091L277.335 16.0165V61.4485L286.889 60.1058V67.9538L268.138 70.5891ZM294.791 66.8432V49.2752L286.592 14.7156L295.861 13.4129L298.57 27.2881C299.069 30.386 299.711 33.9678 299.996 36.5917L300.139 36.5717C300.353 33.8056 301.066 30.1054 301.636 26.8572L304.203 12.2405L312.331 11.0982L304.06 47.9726V65.5406L294.791 66.8432ZM9.76342 178.901L18.4619 124.183L28.016 122.84L36.6433 175.124L27.3031 176.436L25.8058 164.695L19.9592 165.516L18.4619 177.679L9.76342 178.901ZM20.4583 159.038L25.3067 158.357C24.9502 155.167 23.8807 146.821 23.5955 144.269C23.3103 142.365 23.1677 140.513 22.9538 138.455L22.8825 138.466C22.6686 140.656 22.4547 142.486 22.2408 144.46C21.9556 147.164 20.8861 155.738 20.4583 159.038ZM49.9729 173.754C39.8484 175.177 38.0659 168.372 37.3529 158.68L45.9088 156.829C46.6218 164.289 47.4061 166.339 50.0442 165.968C52.1119 165.678 53.2527 164.005 53.2527 160.765C53.2527 156.229 50.0442 153.656 46.4792 150.125C42.5578 146.212 38.2085 142.144 38.2085 134.224C38.2085 126.16 42.2013 120.558 49.6164 119.516C58.5288 118.264 61.1669 123.509 61.8086 133.571L53.1814 135.575C52.7536 128.003 51.6841 127.29 49.759 127.56C48.0478 127.801 47.3348 129.557 47.3348 132.005C47.3348 137.261 50.4007 139.854 53.8231 143.117C57.8871 146.938 62.3077 150.493 62.3077 158.989C62.3077 167.485 57.8871 172.642 49.9729 173.754ZM65.5891 171.055V117.775L74.5728 116.513V139.049C75.4997 134.815 76.4979 130.93 77.6387 127.242L81.2037 115.581L89.1179 114.469L81.988 136.207L90.1874 167.598L80.9898 168.891L75.8562 147.365L74.5728 151.577V169.793L65.5891 171.055ZM91.4908 167.415V114.135L110.385 111.48V119.616L100.688 120.979V134.011L107.462 133.059V140.691L100.688 141.643V158.275L110.742 156.862V164.71L91.4908 167.415ZM113.563 164.313V111.033L122.618 109.761C133.028 108.298 138.66 111.466 138.66 134.146C138.66 156.682 132.814 161.608 122.618 163.041L113.563 164.313ZM122.761 155.173L124.115 154.982C128.678 154.341 129.249 149.797 129.249 135.469C129.249 120.925 128.678 117.045 124.044 117.696L122.761 117.877V155.173ZM171.608 170.411C161.199 171.874 160.129 165.617 160.129 157.697C153.926 156.625 150.789 149.145 150.789 132.441C150.789 112.641 155.067 104.696 163.837 103.464C172.607 102.231 176.956 108.964 176.956 128.764C176.956 145.54 173.391 154.249 167.473 156.665C167.473 161.705 168.899 162.656 172.678 162.125L174.175 161.915V170.051L171.608 170.411ZM163.837 149.832C166.974 149.391 167.473 144.065 167.473 130.097C167.473 116.129 166.974 111.591 163.837 112.032C160.771 112.463 160.272 117.141 160.272 131.109C160.272 145.077 160.771 150.263 163.837 149.832ZM192.238 153.76C183.255 155.023 180.403 149.951 180.403 140.015V101.639L189.6 100.347V138.147C189.6 144.411 190.099 146.285 192.524 145.944C194.876 145.613 195.447 143.733 195.447 137.469V99.5252L204.217 98.2927V136.453C204.217 146.533 201.222 152.498 192.238 153.76ZM208.605 150.956V97.6758L227.5 95.0204V103.156L217.803 104.519V117.551L224.577 116.599V124.231L217.803 125.183V141.815L227.856 140.402V148.25L208.605 150.956ZM241.729 146.805C231.605 148.228 229.822 141.422 229.109 131.73L237.665 129.88C238.378 137.34 239.162 139.389 241.8 139.019C243.868 138.728 245.009 137.056 245.009 133.816C245.009 129.28 241.8 126.707 238.235 123.176C234.314 119.263 229.965 115.194 229.965 107.274C229.965 99.21 233.957 93.6089 241.373 92.5667C250.285 91.3142 252.923 96.5594 253.565 106.621L244.937 108.626C244.51 101.054 243.44 100.34 241.515 100.611C239.804 100.851 239.091 102.607 239.091 105.055C239.091 110.311 242.157 112.905 245.579 116.168C249.643 119.988 254.064 123.543 254.064 132.039C254.064 140.535 249.643 145.692 241.729 146.805ZM262.122 143.435V98.2905L255.206 99.2625V91.1265L278.236 87.8899V96.0259L271.391 96.9879V142.132L262.122 143.435ZM281.097 140.768V87.4879L290.294 86.1952V139.475L281.097 140.768ZM307.201 137.603C298.431 138.836 294.154 132.093 294.154 112.293C294.154 92.4929 298.431 84.5476 307.201 83.3151C315.971 82.0826 320.249 88.8254 320.249 108.625C320.249 128.425 315.971 136.371 307.201 137.603ZM307.201 129.251C310.338 128.81 310.838 123.916 310.838 109.948C310.838 95.9801 310.338 91.4422 307.201 91.8831C304.135 92.314 303.636 96.9921 303.636 110.96C303.636 124.928 304.135 129.682 307.201 129.251ZM323.84 134.761V81.4807L332.467 80.2682L336.531 95.969C337.601 100.355 338.813 105.44 339.669 110.288L339.811 110.268C339.455 105.134 339.383 99.3842 339.383 95.7122V79.2962L347.298 78.1839V131.464L339.74 132.526L335.105 116.329C333.822 111.83 332.325 107.432 331.469 102.368L331.327 102.389C331.683 105.794 331.754 113.992 331.754 116.8V133.648L323.84 134.761ZM362.882 129.778C352.758 131.201 350.975 124.395 350.262 114.703L358.818 112.853C359.531 120.313 360.315 122.362 362.953 121.992C365.021 121.701 366.162 120.029 366.162 116.789C366.162 112.253 362.953 109.68 359.388 106.149C355.467 102.236 351.118 98.167 351.118 90.2471C351.118 82.183 355.111 76.5819 362.526 75.5398C371.438 74.2872 374.076 79.5325 374.718 89.5943L366.091 91.5988C365.663 84.0269 364.593 83.3132 362.668 83.5837C360.957 83.8242 360.244 85.5804 360.244 88.0284C360.244 93.2844 363.31 95.8775 366.732 99.1406C370.796 102.961 375.217 106.516 375.217 115.012C375.217 123.508 370.796 128.665 362.882 129.778Z"/>
</mask>
<path d="M66.7728 98.8891V45.6091L86.0949 42.8936V51.0296L75.9704 52.4525V66.0605L83.4568 65.0083V72.5683L75.9704 73.6205V97.5965L66.7728 98.8891ZM88.6361 95.8165V42.5365L99.4735 41.0133C106.746 39.9913 112.379 43.8796 112.379 56.1196C112.379 63.3916 110.454 68.3422 107.388 70.8611L113.02 92.3895L103.965 93.6621L99.3309 75.0174L97.6198 75.2579V94.5539L88.6361 95.8165ZM97.6198 68.3459L99.3309 68.1054C101.826 67.7547 103.181 65.4043 103.181 57.5563C103.181 50.2123 101.826 48.8187 99.2596 49.1794L97.6198 49.4099V68.3459ZM115.861 91.9903V38.7103L134.755 36.0549V44.1909L125.058 45.5536V58.5856L131.832 57.6337V65.2657L125.058 66.2176V82.8496L135.112 81.4368V89.2848L115.861 91.9903ZM157.683 100.369C147.273 101.832 146.204 95.5739 146.204 87.6539C140.001 86.5816 136.863 79.1025 136.863 62.3985C136.863 42.5985 141.141 34.6533 149.911 33.4208C158.681 32.1883 163.03 38.921 163.03 58.721C163.03 75.497 159.465 84.2061 153.547 86.6218C153.547 91.6618 154.973 92.6133 158.752 92.0823L160.25 91.8718V100.008L157.683 100.369ZM149.911 79.7888C153.048 79.3479 153.547 74.0218 153.547 60.0538C153.547 46.0858 153.048 41.5479 149.911 41.9888C146.845 42.4197 146.346 47.0978 146.346 61.0658C146.346 75.0338 146.845 80.2197 149.911 79.7888ZM178.313 83.7172C169.329 84.9798 166.477 79.9086 166.477 69.9726V31.5966L175.675 30.304V68.104C175.675 74.368 176.174 76.2418 178.598 75.9011C180.951 75.5705 181.521 73.6903 181.521 67.4263V29.4823L190.291 28.2498V66.4098C190.291 76.4898 187.296 82.4546 178.313 83.7172ZM194.68 80.913V27.633L213.574 24.9775V33.1135L203.877 34.4763V47.5083L210.651 46.5564V54.1884L203.877 55.1403V71.7723L213.931 70.3594V78.2074L194.68 80.913ZM216.752 77.8109V24.5309L225.379 23.3185L229.443 39.0193C230.513 43.405 231.725 48.4906 232.58 53.3384L232.723 53.3183C232.367 48.1844 232.295 42.4345 232.295 38.7625V22.3465L240.209 21.2342V74.5142L232.652 75.5764L228.017 59.3797C226.734 54.8801 225.237 50.4825 224.381 45.4187L224.238 45.4388C224.595 48.8447 224.666 57.0427 224.666 59.8507V76.6987L216.752 77.8109ZM249.52 73.2057V28.0617L242.604 29.0337V20.8977L265.633 17.6611V25.7971L258.788 26.7591V71.9031L249.52 73.2057ZM268.138 70.5891V17.3091L277.335 16.0165V61.4485L286.889 60.1058V67.9538L268.138 70.5891ZM294.791 66.8432V49.2752L286.592 14.7156L295.861 13.4129L298.57 27.2881C299.069 30.386 299.711 33.9678 299.996 36.5917L300.139 36.5717C300.353 33.8056 301.066 30.1054 301.636 26.8572L304.203 12.2405L312.331 11.0982L304.06 47.9726V65.5406L294.791 66.8432ZM9.76342 178.901L18.4619 124.183L28.016 122.84L36.6433 175.124L27.3031 176.436L25.8058 164.695L19.9592 165.516L18.4619 177.679L9.76342 178.901ZM20.4583 159.038L25.3067 158.357C24.9502 155.167 23.8807 146.821 23.5955 144.269C23.3103 142.365 23.1677 140.513 22.9538 138.455L22.8825 138.466C22.6686 140.656 22.4547 142.486 22.2408 144.46C21.9556 147.164 20.8861 155.738 20.4583 159.038ZM49.9729 173.754C39.8484 175.177 38.0659 168.372 37.3529 158.68L45.9088 156.829C46.6218 164.289 47.4061 166.339 50.0442 165.968C52.1119 165.678 53.2527 164.005 53.2527 160.765C53.2527 156.229 50.0442 153.656 46.4792 150.125C42.5578 146.212 38.2085 142.144 38.2085 134.224C38.2085 126.16 42.2013 120.558 49.6164 119.516C58.5288 118.264 61.1669 123.509 61.8086 133.571L53.1814 135.575C52.7536 128.003 51.6841 127.29 49.759 127.56C48.0478 127.801 47.3348 129.557 47.3348 132.005C47.3348 137.261 50.4007 139.854 53.8231 143.117C57.8871 146.938 62.3077 150.493 62.3077 158.989C62.3077 167.485 57.8871 172.642 49.9729 173.754ZM65.5891 171.055V117.775L74.5728 116.513V139.049C75.4997 134.815 76.4979 130.93 77.6387 127.242L81.2037 115.581L89.1179 114.469L81.988 136.207L90.1874 167.598L80.9898 168.891L75.8562 147.365L74.5728 151.577V169.793L65.5891 171.055ZM91.4908 167.415V114.135L110.385 111.48V119.616L100.688 120.979V134.011L107.462 133.059V140.691L100.688 141.643V158.275L110.742 156.862V164.71L91.4908 167.415ZM113.563 164.313V111.033L122.618 109.761C133.028 108.298 138.66 111.466 138.66 134.146C138.66 156.682 132.814 161.608 122.618 163.041L113.563 164.313ZM122.761 155.173L124.115 154.982C128.678 154.341 129.249 149.797 129.249 135.469C129.249 120.925 128.678 117.045 124.044 117.696L122.761 117.877V155.173ZM171.608 170.411C161.199 171.874 160.129 165.617 160.129 157.697C153.926 156.625 150.789 149.145 150.789 132.441C150.789 112.641 155.067 104.696 163.837 103.464C172.607 102.231 176.956 108.964 176.956 128.764C176.956 145.54 173.391 154.249 167.473 156.665C167.473 161.705 168.899 162.656 172.678 162.125L174.175 161.915V170.051L171.608 170.411ZM163.837 149.832C166.974 149.391 167.473 144.065 167.473 130.097C167.473 116.129 166.974 111.591 163.837 112.032C160.771 112.463 160.272 117.141 160.272 131.109C160.272 145.077 160.771 150.263 163.837 149.832ZM192.238 153.76C183.255 155.023 180.403 149.951 180.403 140.015V101.639L189.6 100.347V138.147C189.6 144.411 190.099 146.285 192.524 145.944C194.876 145.613 195.447 143.733 195.447 137.469V99.5252L204.217 98.2927V136.453C204.217 146.533 201.222 152.498 192.238 153.76ZM208.605 150.956V97.6758L227.5 95.0204V103.156L217.803 104.519V117.551L224.577 116.599V124.231L217.803 125.183V141.815L227.856 140.402V148.25L208.605 150.956ZM241.729 146.805C231.605 148.228 229.822 141.422 229.109 131.73L237.665 129.88C238.378 137.34 239.162 139.389 241.8 139.019C243.868 138.728 245.009 137.056 245.009 133.816C245.009 129.28 241.8 126.707 238.235 123.176C234.314 119.263 229.965 115.194 229.965 107.274C229.965 99.21 233.957 93.6089 241.373 92.5667C250.285 91.3142 252.923 96.5594 253.565 106.621L244.937 108.626C244.51 101.054 243.44 100.34 241.515 100.611C239.804 100.851 239.091 102.607 239.091 105.055C239.091 110.311 242.157 112.905 245.579 116.168C249.643 119.988 254.064 123.543 254.064 132.039C254.064 140.535 249.643 145.692 241.729 146.805ZM262.122 143.435V98.2905L255.206 99.2625V91.1265L278.236 87.8899V96.0259L271.391 96.9879V142.132L262.122 143.435ZM281.097 140.768V87.4879L290.294 86.1952V139.475L281.097 140.768ZM307.201 137.603C298.431 138.836 294.154 132.093 294.154 112.293C294.154 92.4929 298.431 84.5476 307.201 83.3151C315.971 82.0826 320.249 88.8254 320.249 108.625C320.249 128.425 315.971 136.371 307.201 137.603ZM307.201 129.251C310.338 128.81 310.838 123.916 310.838 109.948C310.838 95.9801 310.338 91.4422 307.201 91.8831C304.135 92.314 303.636 96.9921 303.636 110.96C303.636 124.928 304.135 129.682 307.201 129.251ZM323.84 134.761V81.4807L332.467 80.2682L336.531 95.969C337.601 100.355 338.813 105.44 339.669 110.288L339.811 110.268C339.455 105.134 339.383 99.3842 339.383 95.7122V79.2962L347.298 78.1839V131.464L339.74 132.526L335.105 116.329C333.822 111.83 332.325 107.432 331.469 102.368L331.327 102.389C331.683 105.794 331.754 113.992 331.754 116.8V133.648L323.84 134.761ZM362.882 129.778C352.758 131.201 350.975 124.395 350.262 114.703L358.818 112.853C359.531 120.313 360.315 122.362 362.953 121.992C365.021 121.701 366.162 120.029 366.162 116.789C366.162 112.253 362.953 109.68 359.388 106.149C355.467 102.236 351.118 98.167 351.118 90.2471C351.118 82.183 355.111 76.5819 362.526 75.5398C371.438 74.2872 374.076 79.5325 374.718 89.5943L366.091 91.5988C365.663 84.0269 364.593 83.3132 362.668 83.5837C360.957 83.8242 360.244 85.5804 360.244 88.0284C360.244 93.2844 363.31 95.8775 366.732 99.1406C370.796 102.961 375.217 106.516 375.217 115.012C375.217 123.508 370.796 128.665 362.882 129.778Z" fill="#FFEBDC"/>
<path d="M66.7728 98.8891L65.7825 99.0283V100.028L66.7728 99.8891V98.8891ZM66.7728 45.6091V44.6091L65.7825 44.7483V45.7483L66.7728 45.6091ZM86.0949 42.8936L87.0852 42.7544V41.7544L86.0949 41.8936V42.8936ZM86.0949 51.0296V52.0296L87.0852 51.8904V50.8904L86.0949 51.0296ZM75.9704 52.4525V51.4525L74.9801 51.5917V52.5917L75.9704 52.4525ZM75.9704 66.0605L74.9801 66.1997V67.1997L75.9704 67.0605V66.0605ZM83.4568 65.0083L84.4471 64.8692V63.8692L83.4568 64.0083V65.0083ZM83.4568 72.5683V73.5683L84.4471 73.4292V72.4292L83.4568 72.5683ZM75.9704 73.6205V72.6205L74.9801 72.7597V73.7597L75.9704 73.6205ZM75.9704 97.5965V98.5965L76.9607 98.4573V97.4573L75.9704 97.5965ZM66.7728 98.8891L67.7631 98.75V45.47L66.7728 45.6091L65.7825 45.7483V99.0283L66.7728 98.8891ZM66.7728 45.6091V46.6091L86.0949 43.8936V42.8936V41.8936L66.7728 44.6091V45.6091ZM86.0949 42.8936L85.1046 43.0328V51.1688L86.0949 51.0296L87.0852 50.8904V42.7544L86.0949 42.8936ZM86.0949 51.0296V50.0296L75.9704 51.4525V52.4525V53.4525L86.0949 52.0296V51.0296ZM75.9704 52.4525L74.9801 52.5917V66.1997L75.9704 66.0605L76.9607 65.9213V52.3133L75.9704 52.4525ZM75.9704 66.0605V67.0605L83.4568 66.0083V65.0083V64.0083L75.9704 65.0605V66.0605ZM83.4568 65.0083L82.4666 65.1475V72.7075L83.4568 72.5683L84.4471 72.4292V64.8692L83.4568 65.0083ZM83.4568 72.5683V71.5683L75.9704 72.6205V73.6205V74.6205L83.4568 73.5683V72.5683ZM75.9704 73.6205L74.9801 73.7597V97.7357L75.9704 97.5965L76.9607 97.4573V73.4813L75.9704 73.6205ZM75.9704 97.5965V96.5965L66.7728 97.8891V98.8891V99.8891L75.9704 98.5965V97.5965ZM88.6361 95.8165L87.6458 95.9556V96.9556L88.6361 96.8165V95.8165ZM88.6361 42.5365V41.5365L87.6458 41.6756V42.6756L88.6361 42.5365ZM107.388 70.8611L106.834 70.1098L106.256 70.5848L106.428 71.2429L107.388 70.8611ZM113.02 92.3895V93.3895L114.295 93.2104L113.98 92.0076L113.02 92.3895ZM103.965 93.6621L103.003 94.033L103.187 94.7715L103.965 94.6621V93.6621ZM99.331 75.0174L100.293 74.6464L100.11 73.9079L99.331 74.0174V75.0174ZM97.6198 75.2579V74.2579L96.6295 74.397V75.397L97.6198 75.2579ZM97.6198 94.5539V95.5539L98.61 95.4147V94.4147L97.6198 94.5539ZM97.6198 68.3459L96.6295 68.485V69.485L97.6198 69.3459V68.3459ZM97.6198 49.4099V48.4099L96.6295 48.549V49.549L97.6198 49.4099ZM88.6361 95.8165L89.6263 95.6773V42.3973L88.6361 42.5365L87.6458 42.6756V95.9556L88.6361 95.8165ZM88.6361 42.5365V43.5365L99.4735 42.0133V41.0133V40.0133L88.6361 41.5365V42.5365ZM99.4735 41.0133V42.0133C102.893 41.5328 105.817 42.2141 107.905 44.3533C110.011 46.5112 111.388 50.2779 111.388 56.2588L112.379 56.1196L113.369 55.9805C113.369 49.7213 111.93 45.4239 109.402 42.8331C106.855 40.2236 103.327 39.4718 99.4735 40.0133V41.0133ZM112.379 56.1196L111.388 56.2588C111.388 63.4211 109.484 67.9323 106.834 70.1098L107.388 70.8611L107.941 71.6123C111.423 68.7521 113.369 63.3621 113.369 55.9805L112.379 56.1196ZM107.388 70.8611L106.428 71.2429L112.061 92.7713L113.02 92.3895L113.98 92.0076L108.347 70.4793L107.388 70.8611ZM113.02 92.3895V91.3895L103.965 92.6621V93.6621V94.6621L113.02 93.3895V92.3895ZM103.965 93.6621L104.928 93.2911L100.293 74.6464L99.331 75.0174L98.3686 75.3883L103.003 94.033L103.965 93.6621ZM99.331 75.0174V74.0174L97.6198 74.2579V75.2579V76.2579L99.331 76.0174V75.0174ZM97.6198 75.2579L96.6295 75.397V94.693L97.6198 94.5539L98.61 94.4147V75.1187L97.6198 75.2579ZM97.6198 94.5539V93.5539L88.6361 94.8165V95.8165V96.8165L97.6198 95.5539V94.5539ZM97.6198 68.3459V69.3459L99.331 69.1054V68.1054V67.1054L97.6198 67.3459V68.3459ZM99.331 68.1054V69.1054C100.1 68.9973 100.859 68.7222 101.539 68.1644C102.214 67.6099 102.722 66.8491 103.101 65.9111C103.838 64.0836 104.171 61.3547 104.171 57.4171L103.181 57.5563L102.191 57.6954C102.191 61.6059 101.847 63.9761 101.283 65.3735C101.011 66.0479 100.712 66.431 100.432 66.6611C100.156 66.8878 99.8095 67.0381 99.331 67.1054V68.1054ZM103.181 57.5563L104.171 57.4171C104.171 53.7395 103.842 51.3386 103.066 49.9023C102.661 49.1512 102.118 48.6335 101.422 48.3558C100.74 48.0838 99.9957 48.076 99.2596 48.1794V49.1794V50.1794C99.807 50.1025 100.194 50.1336 100.489 50.2509C100.768 50.3626 101.046 50.5846 101.3 51.0548C101.843 52.0611 102.191 54.0291 102.191 57.6954L103.181 57.5563ZM99.2596 49.1794V48.1794L97.6198 48.4099V49.4099V50.4099L99.2596 50.1794V49.1794ZM97.6198 49.4099L96.6295 49.549V68.485L97.6198 68.3459L98.61 68.2067V49.2707L97.6198 49.4099ZM115.861 91.9903L114.87 92.1295V93.1295L115.861 92.9903V91.9903ZM115.861 38.7103V37.7103L114.87 37.8495V38.8495L115.861 38.7103ZM134.755 36.0549L135.745 35.9157V34.9157L134.755 35.0549V36.0549ZM134.755 44.1909V45.1909L135.745 45.0517V44.0517L134.755 44.1909ZM125.058 45.5536V44.5536L124.068 44.6928V45.6928L125.058 45.5536ZM125.058 58.5856L124.068 58.7248V59.7248L125.058 59.5856V58.5856ZM131.832 57.6337L132.822 57.4945V56.4945L131.832 56.6337V57.6337ZM131.832 65.2657V66.2657L132.822 66.1265V65.1265L131.832 65.2657ZM125.058 66.2176V65.2176L124.068 65.3568V66.3568L125.058 66.2176ZM125.058 82.8496L124.068 82.9888V83.9888L125.058 83.8496V82.8496ZM135.112 81.4368L136.102 81.2976V80.2976L135.112 80.4368V81.4368ZM135.112 89.2848V90.2848L136.102 90.1456V89.1456L135.112 89.2848ZM115.861 91.9903L116.851 91.8511V38.5711L115.861 38.7103L114.87 38.8495V92.1295L115.861 91.9903ZM115.861 38.7103V39.7103L134.755 37.0549V36.0549V35.0549L115.861 37.7103V38.7103ZM134.755 36.0549L133.765 36.194V44.33L134.755 44.1909L135.745 44.0517V35.9157L134.755 36.0549ZM134.755 44.1909V43.1909L125.058 44.5536V45.5536V46.5536L134.755 45.1909V44.1909ZM125.058 45.5536L124.068 45.6928V58.7248L125.058 58.5856L126.049 58.4465V45.4145L125.058 45.5536ZM125.058 58.5856V59.5856L131.832 58.6337V57.6337V56.6337L125.058 57.5856V58.5856ZM131.832 57.6337L130.841 57.7729V65.4049L131.832 65.2657L132.822 65.1265V57.4945L131.832 57.6337ZM131.832 65.2657V64.2657L125.058 65.2176V66.2176V67.2176L131.832 66.2657V65.2657ZM125.058 66.2176L124.068 66.3568V82.9888L125.058 82.8496L126.049 82.7105V66.0785L125.058 66.2176ZM125.058 82.8496V83.8496L135.112 82.4368V81.4368V80.4368L125.058 81.8496V82.8496ZM135.112 81.4368L134.121 81.5759V89.4239L135.112 89.2848L136.102 89.1456V81.2976L135.112 81.4368ZM135.112 89.2848V88.2848L115.861 90.9903V91.9903V92.9903L135.112 90.2848V89.2848ZM146.204 87.6539L147.194 87.5147V86.778L146.497 86.6576L146.204 87.6539ZM153.547 86.6218L153.294 85.6908L152.557 85.9915V86.7609L153.547 86.6218ZM160.25 91.8718L161.24 91.7327V90.7327L160.25 90.8718V91.8718ZM160.25 100.008V101.008L161.24 100.869V99.8687L160.25 100.008ZM157.683 100.369V99.3686C152.691 100.07 150.214 98.8996 148.884 96.8896C147.479 94.7639 147.194 91.4932 147.194 87.5147L146.204 87.6539L145.213 87.793C145.213 91.7346 145.463 95.5526 147.195 98.17C149.002 100.903 152.264 102.13 157.683 101.369V100.369ZM146.204 87.6539L146.497 86.6576C143.776 86.1872 141.626 84.3196 140.137 80.4142C138.637 76.478 137.854 70.5704 137.854 62.2594L136.863 62.3985L135.873 62.5377C135.873 70.9307 136.658 77.1146 138.277 81.362C139.908 85.6402 142.428 88.0483 145.91 88.6502L146.204 87.6539ZM136.863 62.3985L137.854 62.2594C137.854 52.3895 138.927 45.6537 140.982 41.2752C141.998 39.1099 143.239 37.5544 144.685 36.4679C146.133 35.3805 147.858 34.7094 149.911 34.4208V33.4208V32.4208C147.58 32.7485 145.481 33.5327 143.66 34.9004C141.838 36.2691 140.365 38.1685 139.215 40.6186C136.939 45.4707 135.873 52.6075 135.873 62.5377L136.863 62.3985ZM149.911 33.4208V34.4208C151.964 34.1322 153.695 34.3177 155.15 34.9981C156.604 35.6779 157.853 36.8844 158.878 38.763C160.949 42.5612 162.04 48.992 162.04 58.8602L163.03 58.721L164.02 58.5819C164.02 48.6501 162.937 41.8145 160.641 37.6044C159.482 35.4789 158 33.9959 156.172 33.1412C154.345 32.287 152.243 32.0931 149.911 32.4208V33.4208ZM163.03 58.721L162.04 58.8602C162.04 67.1961 161.152 73.4282 159.582 77.8324C158.017 82.2232 155.834 84.6536 153.294 85.6908L153.547 86.6218L153.801 87.5527C157.178 86.1742 159.737 83.0423 161.434 78.2807C163.126 73.5323 164.02 67.022 164.02 58.5819L163.03 58.721ZM153.547 86.6218L152.557 86.7609C152.557 89.3028 152.899 91.1525 154.001 92.2178C155.135 93.314 156.826 93.3529 158.752 93.0823V92.0823V91.0823C156.899 91.3427 155.989 91.1714 155.464 90.6646C154.908 90.1268 154.538 88.9807 154.538 86.4826L153.547 86.6218ZM158.752 92.0823V93.0823L160.25 92.8718V91.8718V90.8718L158.752 91.0823V92.0823ZM160.25 91.8718L159.259 92.011V100.147L160.25 100.008L161.24 99.8687V91.7327L160.25 91.8718ZM160.25 100.008V99.0078L157.683 99.3686V100.369V101.369L160.25 101.008V100.008ZM149.911 79.7888V80.7888C151.038 80.6304 151.954 79.9969 152.617 78.9387C153.231 77.958 153.616 76.6341 153.882 75.0249C154.416 71.7907 154.538 66.8785 154.538 59.9146L153.547 60.0538L152.557 60.1929C152.557 67.197 152.43 71.9319 151.93 74.963C151.678 76.4865 151.351 77.4498 150.989 78.0282C150.675 78.5292 150.352 78.7268 149.911 78.7888V79.7888ZM153.547 60.0538L154.538 59.9146C154.538 52.9542 154.416 48.2316 153.88 45.3037C153.614 43.8456 153.223 42.6987 152.592 41.9463C151.907 41.1302 150.989 40.8373 149.911 40.9888V41.9888V42.9888C150.401 42.9199 150.722 43.0288 151.014 43.3761C151.358 43.787 151.681 44.5649 151.931 45.9322C152.429 48.655 152.557 53.1853 152.557 60.1929L153.547 60.0538ZM149.911 41.9888V40.9888C148.842 41.1391 147.936 41.6958 147.265 42.7029C146.648 43.6298 146.266 44.8829 146.004 46.4136C145.478 49.4889 145.356 54.2437 145.356 61.205L146.346 61.0658L147.336 60.9267C147.336 53.9199 147.464 49.3517 147.954 46.4882C148.2 45.0495 148.517 44.1793 148.856 43.6713C149.141 43.2436 149.448 43.0539 149.911 42.9888V41.9888ZM146.346 61.0658L145.356 61.205C145.356 68.1697 145.478 73.0457 146.002 76.1295C146.263 77.6632 146.641 78.8774 147.241 79.6861C147.889 80.559 148.792 80.9461 149.911 80.7888V79.7888V78.7888C149.497 78.8469 149.188 78.7474 148.88 78.3326C148.524 77.8536 148.203 76.9791 147.956 75.5243C147.464 72.6308 147.336 67.93 147.336 60.9267L146.346 61.0658ZM166.477 31.5966V30.5966L165.487 30.7358V31.7358L166.477 31.5966ZM175.675 30.304L176.665 30.1648V29.1648L175.675 29.304V30.304ZM181.521 29.4823V28.4823L180.531 28.6215V29.6215L181.521 29.4823ZM190.291 28.2498L191.281 28.1106V27.1106L190.291 27.2498V28.2498ZM178.313 83.7172V82.7172C174.033 83.3187 171.429 82.3954 169.833 80.3518C168.182 78.2364 167.467 74.7492 167.467 69.8334L166.477 69.9726L165.487 70.1118C165.487 75.132 166.198 79.1484 168.219 81.7369C170.295 84.3973 173.609 85.3783 178.313 84.7172V83.7172ZM166.477 69.9726L167.467 69.8334V31.4574L166.477 31.5966L165.487 31.7358V70.1118L166.477 69.9726ZM166.477 31.5966V32.5966L175.675 31.304V30.304V29.304L166.477 30.5966V31.5966ZM175.675 30.304L174.684 30.4431V68.2431L175.675 68.104L176.665 67.9648V30.1648L175.675 30.304ZM175.675 68.104L174.684 68.2431C174.684 71.343 174.8 73.5494 175.29 74.9333C175.545 75.6555 175.933 76.2469 176.542 76.6017C177.153 76.9569 177.864 77.0042 178.598 76.9011V75.9011V74.9011C178.119 74.9684 177.86 74.9092 177.695 74.8132C177.529 74.7167 177.337 74.512 177.165 74.0253C176.799 72.9915 176.665 71.129 176.665 67.9648L175.675 68.104ZM178.598 75.9011V76.9011C179.306 76.8016 180.003 76.5684 180.608 76.0638C181.216 75.5568 181.611 74.8764 181.874 74.0944C182.378 72.6008 182.511 70.3906 182.511 67.2871L181.521 67.4263L180.531 67.5655C180.531 70.726 180.379 72.5879 180.009 73.683C179.837 74.1954 179.648 74.4385 179.487 74.5729C179.323 74.7095 179.066 74.8353 178.598 74.9011V75.9011ZM181.521 67.4263L182.511 67.2871V29.3431L181.521 29.4823L180.531 29.6215V67.5655L181.521 67.4263ZM181.521 29.4823V30.4823L190.291 29.2498V28.2498V27.2498L181.521 28.4823V29.4823ZM190.291 28.2498L189.301 28.3889V66.5489L190.291 66.4098L191.281 66.2706V28.1106L190.291 28.2498ZM190.291 66.4098L189.301 66.5489C189.301 71.5313 188.552 75.2798 186.865 77.902C185.232 80.4399 182.588 82.1163 178.313 82.7172V83.7172V84.7172C183.021 84.0555 186.366 82.1182 188.477 78.838C190.533 75.6422 191.281 71.3682 191.281 66.2706L190.291 66.4098ZM194.68 80.913L193.69 81.0521V82.0521L194.68 81.913V80.913ZM194.68 27.633V26.633L193.69 26.7721V27.7721L194.68 27.633ZM213.574 24.9775L214.564 24.8384V23.8384L213.574 23.9775V24.9775ZM213.574 33.1135V34.1135L214.564 33.9744V32.9744L213.574 33.1135ZM203.877 34.4763V33.4763L202.887 33.6155V34.6155L203.877 34.4763ZM203.877 47.5083L202.887 47.6475V48.6475L203.877 48.5083V47.5083ZM210.651 46.5564L211.641 46.4172V45.4172L210.651 45.5564V46.5564ZM210.651 54.1884V55.1884L211.641 55.0492V54.0492L210.651 54.1884ZM203.877 55.1403V54.1403L202.887 54.2795V55.2795L203.877 55.1403ZM203.877 71.7723L202.887 71.9115V72.9115L203.877 72.7723V71.7723ZM213.931 70.3594L214.921 70.2203V69.2203L213.931 69.3594V70.3594ZM213.931 78.2074V79.2074L214.921 79.0683V78.0683L213.931 78.2074ZM194.68 80.913L195.67 80.7738V27.4938L194.68 27.633L193.69 27.7721V81.0521L194.68 80.913ZM194.68 27.633V28.633L213.574 25.9775V24.9775V23.9775L194.68 26.633V27.633ZM213.574 24.9775L212.584 25.1167V33.2527L213.574 33.1135L214.564 32.9744V24.8384L213.574 24.9775ZM213.574 33.1135V32.1135L203.877 33.4763V34.4763V35.4763L213.574 34.1135V33.1135ZM203.877 34.4763L202.887 34.6155V47.6475L203.877 47.5083L204.868 47.3692V34.3372L203.877 34.4763ZM203.877 47.5083V48.5083L210.651 47.5564V46.5564V45.5564L203.877 46.5083V47.5083ZM210.651 46.5564L209.661 46.6956V54.3276L210.651 54.1884L211.641 54.0492V46.4172L210.651 46.5564ZM210.651 54.1884V53.1884L203.877 54.1403V55.1403V56.1403L210.651 55.1884V54.1884ZM203.877 55.1403L202.887 55.2795V71.9115L203.877 71.7723L204.868 71.6332V55.0012L203.877 55.1403ZM203.877 71.7723V72.7723L213.931 71.3594V70.3594V69.3594L203.877 70.7723V71.7723ZM213.931 70.3594L212.94 70.4986V78.3466L213.931 78.2074L214.921 78.0683V70.2203L213.931 70.3594ZM213.931 78.2074V77.2074L194.68 79.913V80.913V81.913L213.931 79.2074V78.2074ZM216.752 77.8109L215.762 77.9501V78.9501L216.752 78.8109V77.8109ZM216.752 24.5309V23.5309L215.762 23.6701V24.6701L216.752 24.5309ZM225.379 23.3185L226.339 22.939L226.151 22.21L225.379 22.3185V23.3185ZM229.443 39.0193L230.407 38.6522L230.403 38.6398L229.443 39.0193ZM232.58 53.3384L231.605 53.6468L231.748 54.4554L232.58 54.3384V53.3384ZM232.723 53.3183V54.3183L233.784 54.1692L233.711 53.1102L232.723 53.3183ZM232.295 22.3465V21.3465L231.305 21.4856V22.4856L232.295 22.3465ZM240.209 21.2342L241.2 21.095V20.095L240.209 20.2342V21.2342ZM240.209 74.5142V75.5142L241.2 75.375V74.375L240.209 74.5142ZM232.652 75.5764L231.698 75.9781L231.899 76.6821L232.652 76.5764V75.5764ZM228.017 59.3797L227.063 59.7807L227.063 59.7814L228.017 59.3797ZM224.381 45.4187L225.358 45.1171L225.22 44.3008L224.381 44.4187V45.4187ZM224.238 45.4388V44.4388L223.14 44.5932L223.253 45.6808L224.238 45.4388ZM224.666 76.6987V77.6987L225.656 77.5595V76.5595L224.666 76.6987ZM216.752 77.8109L217.742 77.6718V24.3918L216.752 24.5309L215.762 24.6701V77.9501L216.752 77.8109ZM216.752 24.5309V25.5309L225.379 24.3185V23.3185V22.3185L216.752 23.5309V24.5309ZM225.379 23.3185L224.419 23.698L228.483 39.3988L229.443 39.0193L230.403 38.6398L226.339 22.939L225.379 23.3185ZM229.443 39.0193L228.48 39.3863C229.55 43.7725 230.755 48.832 231.605 53.6468L232.58 53.3384L233.556 53.0299C232.695 48.1493 231.476 43.0375 230.407 38.6523L229.443 39.0193ZM232.58 53.3384V54.3384L232.723 54.3183V53.3183V52.3183L232.58 52.3384V53.3384ZM232.723 53.3183L233.711 53.1102C233.357 48.0104 233.286 42.2873 233.286 38.6233L232.295 38.7625L231.305 38.9016C231.305 42.5816 231.376 48.3585 231.735 53.5265L232.723 53.3183ZM232.295 38.7625L233.286 38.6233V22.2073L232.295 22.3465L231.305 22.4856V38.9016L232.295 38.7625ZM232.295 22.3465V23.3465L240.209 22.2342V21.2342V20.2342L232.295 21.3465V22.3465ZM240.209 21.2342L239.219 21.3734V74.6534L240.209 74.5142L241.2 74.375V21.095L240.209 21.2342ZM240.209 74.5142V73.5142L232.652 74.5764V75.5764V76.5764L240.209 75.5142V74.5142ZM232.652 75.5764L233.606 75.1746L228.971 58.978L228.017 59.3797L227.063 59.7814L231.698 75.9781L232.652 75.5764ZM228.017 59.3797L228.972 58.9787C227.673 54.4259 226.202 50.1136 225.358 45.1171L224.381 45.4187L223.404 45.7204C224.271 50.8514 225.795 55.3343 227.063 59.7807L228.017 59.3797ZM224.381 45.4187V44.4187L224.238 44.4388V45.4388V46.4388L224.381 46.4187V45.4187ZM224.238 45.4388L223.253 45.6808C223.604 49.025 223.676 57.1655 223.676 59.9898L224.666 59.8507L225.656 59.7115C225.656 56.9198 225.586 48.6643 225.223 45.1967L224.238 45.4388ZM224.666 59.8507L223.676 59.9898V76.8378L224.666 76.6987L225.656 76.5595V59.7115L224.666 59.8507ZM224.666 76.6987V75.6987L216.752 76.8109V77.8109V78.8109L224.666 77.6987V76.6987ZM249.52 73.2057L248.529 73.3449V74.3449L249.52 74.2057V73.2057ZM249.52 28.0617L250.51 27.9226V26.9226L249.52 27.0617V28.0617ZM242.604 29.0337L241.613 29.1729V30.1729L242.604 30.0337V29.0337ZM242.604 20.8977V19.8977L241.613 20.0369V21.0369L242.604 20.8977ZM265.633 17.6611L266.623 17.5219V16.5219L265.633 16.6611V17.6611ZM265.633 25.7971V26.7971L266.623 26.6579V25.6579L265.633 25.7971ZM258.789 26.7591V25.7591L257.798 25.8983V26.8983L258.789 26.7591ZM258.789 71.9031V72.9031L259.779 72.7639V71.7639L258.789 71.9031ZM249.52 73.2057L250.51 73.0666V27.9226L249.52 28.0617L248.529 28.2009V73.3449L249.52 73.2057ZM249.52 28.0617V27.0617L242.604 28.0337V29.0337V30.0337L249.52 29.0617V28.0617ZM242.604 29.0337L243.594 28.8946V20.7586L242.604 20.8977L241.613 21.0369V29.1729L242.604 29.0337ZM242.604 20.8977V21.8977L265.633 18.6611V17.6611V16.6611L242.604 19.8977V20.8977ZM265.633 17.6611L264.643 17.8003V25.9363L265.633 25.7971L266.623 25.6579V17.5219L265.633 17.6611ZM265.633 25.7971V24.7971L258.789 25.7591V26.7591V27.7591L265.633 26.7971V25.7971ZM258.789 26.7591L257.798 26.8983V72.0423L258.789 71.9031L259.779 71.7639V26.6199L258.789 26.7591ZM258.789 71.9031V70.9031L249.52 72.2057V73.2057V74.2057L258.789 72.9031V71.9031ZM268.138 70.5892L267.147 70.7283V71.7283L268.138 71.5892V70.5892ZM268.138 17.3092V16.3092L267.147 16.4483V17.4483L268.138 17.3092ZM277.335 16.0165L278.326 15.8773V14.8773L277.335 15.0165V16.0165ZM277.335 61.4485L276.345 61.5877V62.5877L277.335 62.4485V61.4485ZM286.889 60.1058L287.88 59.9666V58.9666L286.889 59.1058V60.1058ZM286.889 67.9538V68.9538L287.88 68.8146V67.8146L286.889 67.9538ZM268.138 70.5892L269.128 70.45V17.17L268.138 17.3092L267.147 17.4483V70.7283L268.138 70.5892ZM268.138 17.3092V18.3092L277.335 17.0165V16.0165V15.0165L268.138 16.3092V17.3092ZM277.335 16.0165L276.345 16.1557V61.5877L277.335 61.4485L278.326 61.3093V15.8773L277.335 16.0165ZM277.335 61.4485V62.4485L286.889 61.1058V60.1058V59.1058L277.335 60.4485V61.4485ZM286.889 60.1058L285.899 60.2449V68.0929L286.889 67.9538L287.88 67.8146V59.9666L286.889 60.1058ZM286.889 67.9538V66.9538L268.138 69.5892V70.5892V71.5892L286.889 68.9538V67.9538ZM294.791 66.8432L293.801 66.9824V67.9824L294.791 67.8432V66.8432ZM294.791 49.2752L295.782 49.136V49.0216L295.756 48.9138L294.791 49.2752ZM286.592 14.7156V13.7156L285.346 13.8907L285.627 15.077L286.592 14.7156ZM295.861 13.4129L296.833 13.0878L296.679 12.2979L295.861 12.4129V13.4129ZM298.57 27.2881L299.548 26.9936L299.546 26.9782L299.543 26.963L298.57 27.2881ZM299.996 36.5917L299.012 36.8376L299.107 37.7167L299.996 37.5917V36.5917ZM300.139 36.5717V37.5717L301.054 37.4431L301.126 36.5116L300.139 36.5717ZM301.636 26.8572L300.662 26.8153L301.636 26.8572ZM304.203 12.2405V11.2405L303.376 11.3567L303.229 12.1986L304.203 12.2405ZM312.331 11.0982L313.295 11.1904L313.58 9.92271L312.331 10.0982V11.0982ZM304.06 47.9726L303.096 47.8803L303.07 47.9964V48.1117L304.06 47.9726ZM304.06 65.5406V66.5406L305.05 66.4014V65.4014L304.06 65.5406ZM294.791 66.8432L295.782 66.704V49.136L294.791 49.2752L293.801 49.4144V66.9824L294.791 66.8432ZM294.791 49.2752L295.756 48.9138L287.557 14.3541L286.592 14.7156L285.627 15.077L293.827 49.6367L294.791 49.2752ZM286.592 14.7156V15.7156L295.861 14.4129V13.4129V12.4129L286.592 13.7156V14.7156ZM295.861 13.4129L294.888 13.7381L297.598 27.6133L298.57 27.2881L299.543 26.963L296.833 13.0878L295.861 13.4129ZM298.57 27.2881L297.592 27.5827C298.096 30.7112 298.73 34.2463 299.012 36.8376L299.996 36.5917L300.981 36.3459C300.692 33.6893 300.042 30.0607 299.548 26.9936L298.57 27.2881ZM299.996 36.5917V37.5917L300.139 37.5717V36.5717V35.5717L299.996 35.5917V36.5917ZM300.139 36.5717L301.126 36.5116C301.335 33.8119 302.033 30.1871 302.61 26.8992L301.636 26.8572L300.662 26.8153C300.098 30.0238 299.371 33.7993 299.152 36.6317L300.139 36.5717ZM301.636 26.8572L302.61 26.8992L305.177 12.2825L304.203 12.2405L303.229 12.1986L300.662 26.8153L301.636 26.8572ZM304.203 12.2405V13.2405L312.331 12.0982V11.0982V10.0982L304.203 11.2405V12.2405ZM312.331 11.0982L311.367 11.006L303.096 47.8803L304.06 47.9726L305.024 48.0648L313.295 11.1904L312.331 11.0982ZM304.06 47.9726L303.07 48.1117V65.6797L304.06 65.5406L305.05 65.4014V47.8334L304.06 47.9726ZM304.06 65.5406V64.5406L294.791 65.8432V66.8432V67.8432L304.06 66.5406V65.5406ZM9.76342 178.901L8.78624 178.877L8.59729 180.065L9.76342 179.901V178.901ZM18.4619 124.183V123.183L17.621 123.301L17.4848 124.158L18.4619 124.183ZM28.016 122.84L28.9934 122.542L28.8581 121.722L28.016 121.84V122.84ZM36.6433 175.124V176.124L37.8078 175.96L37.6207 174.825L36.6433 175.124ZM27.3031 176.436L26.3206 176.7L26.4302 177.559L27.3031 177.436V176.436ZM25.8058 164.695L26.7882 164.431L26.6787 163.572L25.8058 163.695V164.695ZM19.9592 165.516V164.516L19.0863 164.639L18.9768 165.529L19.9592 165.516ZM18.4619 177.679V178.679L19.3348 178.556L19.4444 177.666L18.4619 177.679ZM20.4583 159.038L19.4767 159.044L19.3273 160.197L20.4583 160.038V159.038ZM25.3067 158.357V159.357L26.4131 159.201L26.2909 158.108L25.3067 158.357ZM23.5955 144.269L24.5797 144.021L24.5777 144.003L24.5751 143.985L23.5955 144.269ZM22.9538 138.455L23.9388 138.214L23.8469 137.33L22.9538 137.455V138.455ZM22.8825 138.466V137.466L21.9863 137.591L21.8971 138.504L22.8825 138.466ZM22.2408 144.46L21.2566 144.488L21.2563 144.491L22.2408 144.46ZM9.76342 178.901L10.7406 178.926L19.4391 124.207L18.4619 124.183L17.4848 124.158L8.78624 178.877L9.76342 178.901ZM18.4619 124.183V125.183L28.016 123.84V122.84V121.84L18.4619 123.183V124.183ZM28.016 122.84L27.0387 123.138L35.6659 175.422L36.6433 175.124L37.6207 174.825L28.9934 122.542L28.016 122.84ZM36.6433 175.124V174.124L27.3031 175.436V176.436V177.436L36.6433 176.124V175.124ZM27.3031 176.436L28.2855 176.173L26.7882 164.431L25.8058 164.695L24.8233 164.958L26.3206 176.7L27.3031 176.436ZM25.8058 164.695V163.695L19.9592 164.516V165.516V166.516L25.8058 165.695V164.695ZM19.9592 165.516L18.9768 165.529L17.4795 177.691L18.4619 177.679L19.4444 177.666L20.9417 165.504L19.9592 165.516ZM18.4619 177.679V176.679L9.76342 177.901V178.901V179.901L18.4619 178.679V177.679ZM20.4583 159.038V160.038L25.3067 159.357V158.357V157.357L20.4583 158.038V159.038ZM25.3067 158.357L26.2909 158.108C26.1118 156.506 25.7544 153.615 25.4072 150.814C25.0591 148.005 24.7215 145.289 24.5797 144.021L23.5955 144.269L22.6113 144.518C22.7547 145.801 23.0944 148.534 23.4415 151.334C23.7894 154.141 24.145 157.018 24.3225 158.606L25.3067 158.357ZM23.5955 144.269L24.5751 143.985C24.2941 142.11 24.1561 140.305 23.9388 138.214L22.9538 138.455L21.9688 138.697C22.1793 140.722 22.3265 142.621 22.6159 144.554L23.5955 144.269ZM22.9538 138.455V137.455L22.8825 137.466V138.466V139.466L22.9538 139.455V138.455ZM22.8825 138.466L21.8971 138.504C21.684 140.687 21.4716 142.503 21.2566 144.488L22.2408 144.46L23.225 144.432C23.4378 142.468 23.6532 140.624 23.8679 138.427L22.8825 138.466ZM22.2408 144.46L21.2563 144.491C20.9726 147.18 19.9047 155.743 19.4767 159.044L20.4583 159.038L21.4399 159.032C21.8675 155.734 22.9386 147.147 23.2253 144.429L22.2408 144.46ZM37.3529 158.68L37.2789 157.693L36.2928 157.906L36.3653 158.892L37.3529 158.68ZM45.9088 156.829L46.8946 156.596L46.8026 155.633L45.8348 155.843L45.9088 156.829ZM46.4792 150.125L45.7384 150.893L45.7405 150.895L46.4792 150.125ZM61.8086 133.571L61.8982 134.554L62.8582 134.331L62.7968 133.368L61.8086 133.571ZM53.1814 135.575L52.1927 135.771L52.2506 136.796L53.271 136.559L53.1814 135.575ZM53.8231 143.117L53.0954 143.898L53.0995 143.902L53.8231 143.117ZM49.9729 173.754V172.754C47.5532 173.094 45.7051 172.932 44.2753 172.406C42.8552 171.884 41.7934 170.983 40.9796 169.746C39.3176 167.222 38.6978 163.325 38.3405 158.468L37.3529 158.68L36.3653 158.892C36.721 163.727 37.349 168.079 39.2876 171.024C40.2741 172.522 41.6008 173.662 43.3847 174.318C45.1589 174.971 47.3304 175.126 49.9729 174.754V173.754ZM37.3529 158.68L37.427 159.667L45.9829 157.816L45.9088 156.829L45.8348 155.843L37.2789 157.693L37.3529 158.68ZM45.9088 156.829L44.923 157.063C45.277 160.766 45.6584 163.297 46.341 164.849C46.6928 165.649 47.1584 166.274 47.8192 166.646C48.4881 167.022 49.2485 167.08 50.0442 166.968V165.968V164.968C49.5208 165.042 49.1939 164.982 48.9515 164.846C48.701 164.705 48.4314 164.42 48.1682 163.821C47.6209 162.576 47.2536 160.352 46.8946 156.596L45.9088 156.829ZM50.0442 165.968V166.968C51.3503 166.785 52.4784 166.128 53.2346 164.933C53.9473 163.806 54.2429 162.335 54.2429 160.626L53.2527 160.765L52.2624 160.904C52.2624 162.435 51.9876 163.42 51.613 164.013C51.2819 164.536 50.8057 164.861 50.0442 164.968V165.968ZM53.2527 160.765L54.2429 160.626C54.2429 158.093 53.3385 156.134 52.018 154.386C50.7237 152.673 48.9584 151.079 47.2179 149.355L46.4792 150.125L45.7405 150.895C47.565 152.702 49.1865 154.161 50.3876 155.751C51.5626 157.306 52.2624 158.902 52.2624 160.904L53.2527 160.765ZM46.4792 150.125L47.22 149.357C43.2687 145.415 39.1988 141.575 39.1988 134.084L38.2085 134.224L37.2182 134.363C37.2182 142.712 41.8468 147.01 45.7384 150.893L46.4792 150.125ZM38.2085 134.224L39.1988 134.084C39.1988 130.206 40.1593 127.056 41.8836 124.782C43.5888 122.533 46.1452 121.004 49.6164 120.516V119.516V118.516C45.6725 119.071 42.5249 120.863 40.3799 123.692C38.254 126.495 37.2182 130.177 37.2182 134.363L38.2085 134.224ZM49.6164 119.516V120.516C53.8403 119.923 56.381 120.878 58.0029 122.988C59.69 125.184 60.5013 128.771 60.8203 133.773L61.8086 133.571L62.7968 133.368C62.4742 128.309 61.6456 124.242 59.6251 121.613C57.5394 118.899 54.3049 117.857 49.6164 118.516V119.516ZM61.8086 133.571L61.7189 132.588L53.0917 134.592L53.1814 135.575L53.271 136.559L61.8982 134.554L61.8086 133.571ZM53.1814 135.575L54.17 135.38C53.957 131.609 53.5818 129.346 52.9228 128.066C52.5741 127.388 52.1152 126.921 51.5061 126.684C50.918 126.454 50.2997 126.484 49.759 126.56V127.56V128.56C50.1808 128.501 50.4181 128.519 50.5854 128.584C50.7315 128.641 50.9278 128.775 51.1405 129.188C51.6045 130.09 51.9779 131.97 52.1927 135.771L53.1814 135.575ZM49.759 127.56V126.56C48.5072 126.736 47.5861 127.51 47.0375 128.595C46.528 129.602 46.3445 130.851 46.3445 132.144L47.3348 132.005L48.3251 131.866C48.3251 130.711 48.4982 129.858 48.7729 129.315C49.0086 128.849 49.2996 128.625 49.759 128.56V127.56ZM47.3348 132.005L46.3445 132.144C46.3445 137.861 49.7406 140.699 53.0954 143.898L53.8231 143.117L54.5507 142.337C51.0608 139.009 48.3251 136.661 48.3251 131.866L47.3348 132.005ZM53.8231 143.117L53.0995 143.902C57.1978 147.755 61.3174 151.079 61.3174 159.128L62.3077 158.989L63.2979 158.849C63.2979 149.906 58.5764 146.121 54.5466 142.333L53.8231 143.117ZM62.3077 158.989L61.3174 159.128C61.3174 163.209 60.257 166.333 58.3949 168.547C56.5382 170.754 53.7448 172.224 49.9729 172.754V173.754V174.754C54.1152 174.172 57.4891 172.507 59.8214 169.734C62.1481 166.967 63.2979 163.264 63.2979 158.849L62.3077 158.989ZM65.5891 171.055L64.5988 171.195V172.195L65.5891 172.055V171.055ZM65.5891 117.775V116.775L64.5988 116.915V117.915L65.5891 117.775ZM74.5728 116.513L75.5631 116.374V115.374L74.5728 115.513V116.513ZM74.5728 139.049L73.5826 139.188L75.5383 139.136L74.5728 139.049ZM77.6387 127.242L78.5801 127.42L78.5811 127.417L77.6387 127.242ZM81.2037 115.581V114.581L80.4826 114.682L80.2612 115.406L81.2037 115.581ZM89.1179 114.469L90.0534 114.665L90.51 113.273L89.1179 113.469V114.469ZM81.9879 136.207L81.0525 136.01L80.9549 136.308L81.0283 136.588L81.9879 136.207ZM90.1874 167.598V168.598L91.4611 168.419L91.1471 167.217L90.1874 167.598ZM80.9898 168.891L80.0253 169.254L80.2037 170.002L80.9898 169.891V168.891ZM75.8562 147.365L76.8206 147.002L76.0085 143.597L74.9134 147.191L75.8562 147.365ZM74.5728 151.577L73.6301 151.403L73.5826 151.559V151.716L74.5728 151.577ZM74.5728 169.793V170.793L75.5631 170.654V169.654L74.5728 169.793ZM65.5891 171.055L66.5794 170.916V117.636L65.5891 117.775L64.5988 117.915V171.195L65.5891 171.055ZM65.5891 117.775V118.775L74.5728 117.513V116.513V115.513L65.5891 116.775V117.775ZM74.5728 116.513L73.5826 116.652V139.188L74.5728 139.049L75.5631 138.91V116.374L74.5728 116.513ZM74.5728 139.049L75.5383 139.136C76.46 134.925 77.4505 131.072 78.58 127.42L77.6387 127.242L76.6973 127.064C75.5453 130.789 74.5394 134.704 73.6073 138.962L74.5728 139.049ZM77.6387 127.242L78.5811 127.417L82.1461 115.756L81.2037 115.581L80.2612 115.406L76.6962 127.067L77.6387 127.242ZM81.2037 115.581V116.581L89.1179 115.469V114.469V113.469L81.2037 114.581V115.581ZM89.1179 114.469L88.1824 114.272L81.0525 136.01L81.9879 136.207L82.9234 136.403L90.0534 114.665L89.1179 114.469ZM81.9879 136.207L81.0283 136.588L89.2277 167.98L90.1874 167.598L91.1471 167.217L82.9476 135.825L81.9879 136.207ZM90.1874 167.598V166.598L80.9898 167.891V168.891V169.891L90.1874 168.598V167.598ZM80.9898 168.891L81.9542 168.529L76.8206 147.002L75.8562 147.365L74.8918 147.727L80.0253 169.254L80.9898 168.891ZM75.8562 147.365L74.9134 147.191L73.6301 151.403L74.5728 151.577L75.5156 151.75L76.799 147.538L75.8562 147.365ZM74.5728 151.577L73.5826 151.716V169.932L74.5728 169.793L75.5631 169.654V151.438L74.5728 151.577ZM74.5728 169.793V168.793L65.5891 170.055V171.055V172.055L74.5728 170.793V169.793ZM91.4908 167.415L90.5005 167.554V168.554L91.4908 168.415V167.415ZM91.4908 114.135V113.135L90.5005 113.274V114.274L91.4908 114.135ZM110.385 111.48L111.375 111.341V110.341L110.385 110.48V111.48ZM110.385 119.616V120.616L111.375 120.477V119.477L110.385 119.616ZM100.688 120.979V119.979L99.6982 120.118V121.118L100.688 120.979ZM100.688 134.011L99.6982 134.15V135.15L100.688 135.011V134.011ZM107.462 133.059L108.452 132.919V131.919L107.462 132.059V133.059ZM107.462 140.691V141.691L108.452 141.551V140.551L107.462 140.691ZM100.688 141.643V140.643L99.6982 140.782V141.782L100.688 141.643ZM100.688 158.275L99.6982 158.414V159.414L100.688 159.275V158.275ZM110.742 156.862L111.732 156.723V155.723L110.742 155.862V156.862ZM110.742 164.71V165.71L111.732 165.571V164.571L110.742 164.71ZM91.4908 167.415L92.4811 167.276V113.996L91.4908 114.135L90.5005 114.274V167.554L91.4908 167.415ZM91.4908 114.135V115.135L110.385 112.48V111.48V110.48L91.4908 113.135V114.135ZM110.385 111.48L109.395 111.619V119.755L110.385 119.616L111.375 119.477V111.341L110.385 111.48ZM110.385 119.616V118.616L100.688 119.979V120.979V121.979L110.385 120.616V119.616ZM100.688 120.979L99.6982 121.118V134.15L100.688 134.011L101.679 133.871V120.839L100.688 120.979ZM100.688 134.011V135.011L107.462 134.059V133.059V132.059L100.688 133.011V134.011ZM107.462 133.059L106.472 133.198V140.83L107.462 140.691L108.452 140.551V132.919L107.462 133.059ZM107.462 140.691V139.691L100.688 140.643V141.643V142.643L107.462 141.691V140.691ZM100.688 141.643L99.6982 141.782V158.414L100.688 158.275L101.679 158.135V141.503L100.688 141.643ZM100.688 158.275V159.275L110.742 157.862V156.862V155.862L100.688 157.275V158.275ZM110.742 156.862L109.751 157.001V164.849L110.742 164.71L111.732 164.571V156.723L110.742 156.862ZM110.742 164.71V163.71L91.4908 166.415V167.415V168.415L110.742 165.71V164.71ZM113.563 164.313L112.573 164.452V165.452L113.563 165.313V164.313ZM113.563 111.033V110.033L112.573 110.172V111.172L113.563 111.033ZM122.761 155.173L121.77 155.312V156.312L122.761 156.173V155.173ZM122.761 117.877V116.877L121.77 117.016V118.016L122.761 117.877ZM113.563 164.313L114.553 164.174V110.894L113.563 111.033L112.573 111.172V164.452L113.563 164.313ZM113.563 111.033V112.033L122.618 110.761V109.761V108.761L113.563 110.033V111.033ZM122.618 109.761V110.761C127.718 110.044 131.311 110.51 133.737 113.595C136.25 116.788 137.67 122.96 137.67 134.285L138.66 134.146L139.651 134.007C139.651 122.652 138.255 115.9 135.348 112.205C132.356 108.401 127.928 108.014 122.618 108.761V109.761ZM138.66 134.146L137.67 134.285C137.67 145.53 136.198 152.112 133.659 156.036C131.201 159.834 127.597 161.341 122.618 162.041V163.041V164.041C127.834 163.307 132.252 161.635 135.267 156.978C138.199 152.447 139.651 145.298 139.651 134.007L138.66 134.146ZM122.618 163.041V162.041L113.563 163.313V164.313V165.313L122.618 164.041V163.041ZM122.761 155.173V156.173L124.115 155.982V154.982V153.982L122.761 154.173V155.173ZM124.115 154.982V155.982C125.423 155.798 126.582 155.311 127.511 154.321C128.413 153.361 128.977 152.057 129.354 150.463C130.103 147.308 130.239 142.454 130.239 135.33L129.249 135.469L128.259 135.608C128.259 142.811 128.11 147.394 127.432 150.253C127.097 151.667 126.663 152.513 126.174 153.034C125.713 153.524 125.089 153.845 124.115 153.982V154.982ZM129.249 135.469L130.239 135.33C130.239 128.102 130.103 123.35 129.343 120.498C128.957 119.052 128.378 117.955 127.449 117.298C126.504 116.629 125.34 116.514 124.044 116.696V117.696V118.696C125.065 118.553 125.71 118.679 126.175 119.008C126.657 119.35 127.09 120.01 127.426 121.27C128.109 123.832 128.259 128.292 128.259 135.608L129.249 135.469ZM124.044 117.696V116.696L122.761 116.877V117.877V118.877L124.044 118.696V117.696ZM122.761 117.877L121.77 118.016V155.312L122.761 155.173L123.751 155.033V117.737L122.761 117.877ZM160.129 157.697L161.119 157.558V156.821L160.423 156.7L160.129 157.697ZM167.473 156.665L167.219 155.734L166.483 156.034V156.804L167.473 156.665ZM174.175 161.915L175.165 161.776V160.776L174.175 160.915V161.915ZM174.175 170.051V171.051L175.165 170.912V169.912L174.175 170.051ZM171.608 170.411V169.411C166.617 170.113 164.14 168.942 162.81 166.933C161.404 164.807 161.119 161.536 161.119 157.558L160.129 157.697L159.139 157.836C159.139 161.777 159.389 165.596 161.12 168.213C162.928 170.946 166.19 172.173 171.608 171.411V170.411ZM160.129 157.697L160.423 156.7C157.702 156.23 155.552 154.363 154.063 150.457C152.563 146.521 151.779 140.613 151.779 132.302L150.789 132.441L149.799 132.581C149.799 140.974 150.584 147.158 152.203 151.405C153.834 155.683 156.354 158.091 159.836 158.693L160.129 157.697ZM150.789 132.441L151.779 132.302C151.779 122.432 152.853 115.697 154.907 111.318C155.923 109.153 157.164 107.597 158.611 106.511C160.058 105.423 161.783 104.752 163.837 104.464V103.464V102.464C161.505 102.791 159.407 103.576 157.586 104.943C155.764 106.312 154.291 108.211 153.141 110.661C150.864 115.514 149.799 122.65 149.799 132.581L150.789 132.441ZM163.837 103.464V104.464C165.89 104.175 167.62 104.361 169.076 105.041C170.529 105.721 171.779 106.927 172.803 108.806C174.875 112.604 175.966 119.035 175.966 128.903L176.956 128.764L177.946 128.625C177.946 118.693 176.862 111.857 174.567 107.647C173.407 105.522 171.925 104.039 170.097 103.184C168.27 102.33 166.168 102.136 163.837 102.464V103.464ZM176.956 128.764L175.966 128.903C175.966 137.239 175.077 143.471 173.508 147.875C171.943 152.266 169.76 154.697 167.219 155.734L167.473 156.665L167.727 157.596C171.104 156.217 173.663 153.085 175.36 148.324C177.052 143.575 177.946 137.065 177.946 128.625L176.956 128.764ZM167.473 156.665L166.483 156.804C166.483 159.346 166.825 161.195 167.927 162.261C169.06 163.357 170.752 163.396 172.678 163.125V162.125V161.125C170.825 161.386 169.914 161.214 169.39 160.707C168.834 160.17 168.463 159.024 168.463 156.525L167.473 156.665ZM172.678 162.125V163.125L174.175 162.915V161.915V160.915L172.678 161.125V162.125ZM174.175 161.915L173.185 162.054V170.19L174.175 170.051L175.165 169.912V161.776L174.175 161.915ZM174.175 170.051V169.051L171.608 169.411V170.411V171.411L174.175 171.051V170.051ZM163.837 149.832V150.832C164.964 150.673 165.88 150.04 166.542 148.982C167.156 148.001 167.542 146.677 167.808 145.068C168.341 141.834 168.463 136.921 168.463 129.957L167.473 130.097L166.483 130.236C166.483 137.24 166.355 141.975 165.855 145.006C165.604 146.529 165.277 147.493 164.915 148.071C164.601 148.572 164.278 148.77 163.837 148.832V149.832ZM167.473 130.097L168.463 129.957C168.463 122.997 168.342 118.274 167.806 115.347C167.539 113.889 167.149 112.742 166.518 111.989C165.833 111.173 164.915 110.88 163.837 111.032V112.032V113.032C164.327 112.963 164.648 113.072 164.939 113.419C165.284 113.83 165.607 114.608 165.857 115.975C166.355 118.698 166.483 123.228 166.483 130.236L167.473 130.097ZM163.837 112.032V111.032C162.767 111.182 161.862 111.739 161.191 112.746C160.574 113.673 160.191 114.926 159.929 116.457C159.403 119.532 159.282 124.287 159.282 131.248L160.272 131.109L161.262 130.97C161.262 123.963 161.39 119.395 161.88 116.531C162.126 115.092 162.443 114.222 162.782 113.714C163.066 113.286 163.373 113.097 163.837 113.032V112.032ZM160.272 131.109L159.282 131.248C159.282 138.213 159.404 143.089 159.928 146.172C160.189 147.706 160.567 148.92 161.167 149.729C161.815 150.602 162.717 150.989 163.837 150.832V149.832V148.832C163.423 148.89 163.114 148.79 162.806 148.375C162.45 147.897 162.129 147.022 161.881 145.567C161.389 142.674 161.262 137.973 161.262 130.97L160.272 131.109ZM180.403 101.639V100.639L179.412 100.779V101.779L180.403 101.639ZM189.6 100.347L190.591 100.208V99.2077L189.6 99.3468V100.347ZM195.447 99.5252V98.5252L194.457 98.6643V99.6643L195.447 99.5252ZM204.217 98.2927L205.207 98.1535V97.1535L204.217 97.2927V98.2927ZM192.238 153.76V152.76C187.959 153.362 185.354 152.438 183.759 150.395C182.108 148.279 181.393 144.792 181.393 139.876L180.403 140.015L179.412 140.155C179.412 145.175 180.124 149.191 182.144 151.78C184.221 154.44 187.534 155.421 192.238 154.76V153.76ZM180.403 140.015L181.393 139.876V101.5L180.403 101.639L179.412 101.779V140.155L180.403 140.015ZM180.403 101.639V102.639L189.6 101.347V100.347V99.3468L180.403 100.639V101.639ZM189.6 100.347L188.61 100.486V138.286L189.6 138.147L190.591 138.008V100.208L189.6 100.347ZM189.6 138.147L188.61 138.286C188.61 141.386 188.726 143.592 189.215 144.976C189.471 145.698 189.858 146.29 190.468 146.645C191.078 147 191.79 147.047 192.524 146.944V145.944V144.944C192.045 145.011 191.785 144.952 191.62 144.856C191.455 144.76 191.263 144.555 191.09 144.068C190.724 143.034 190.591 141.172 190.591 138.008L189.6 138.147ZM192.524 145.944V146.944C193.232 146.844 193.929 146.611 194.534 146.107C195.141 145.6 195.536 144.919 195.8 144.137C196.304 142.644 196.437 140.433 196.437 137.33L195.447 137.469L194.457 137.608C194.457 140.769 194.305 142.631 193.935 143.726C193.762 144.238 193.573 144.481 193.412 144.616C193.249 144.752 192.992 144.878 192.524 144.944V145.944ZM195.447 137.469L196.437 137.33V99.386L195.447 99.5252L194.457 99.6643V137.608L195.447 137.469ZM195.447 99.5252V100.525L204.217 99.2927V98.2927V97.2927L195.447 98.5252V99.5252ZM204.217 98.2927L203.226 98.4318V136.592L204.217 136.453L205.207 136.313V98.1535L204.217 98.2927ZM204.217 136.453L203.226 136.592C203.226 141.574 202.478 145.323 200.791 147.945C199.158 150.483 196.514 152.159 192.238 152.76V153.76V154.76C196.947 154.098 200.292 152.161 202.402 148.881C204.458 145.685 205.207 141.411 205.207 136.313L204.217 136.453ZM208.605 150.956L207.615 151.095V152.095L208.605 151.956V150.956ZM208.605 97.6758V96.6758L207.615 96.815V97.815L208.605 97.6758ZM227.5 95.0204L228.49 94.8813V93.8813L227.5 94.0204V95.0204ZM227.5 103.156V104.156L228.49 104.017V103.017L227.5 103.156ZM217.803 104.519V103.519L216.813 103.658V104.658L217.803 104.519ZM217.803 117.551L216.813 117.69V118.69L217.803 118.551V117.551ZM224.577 116.599L225.567 116.46V115.46L224.577 115.599V116.599ZM224.577 124.231V125.231L225.567 125.092V124.092L224.577 124.231ZM217.803 125.183V124.183L216.813 124.322V125.322L217.803 125.183ZM217.803 141.815L216.813 141.954V142.954L217.803 142.815V141.815ZM227.856 140.402L228.847 140.263V139.263L227.856 139.402V140.402ZM227.856 148.25V149.25L228.847 149.111V148.111L227.856 148.25ZM208.605 150.956L209.596 150.817V97.5367L208.605 97.6758L207.615 97.815V151.095L208.605 150.956ZM208.605 97.6758V98.6758L227.5 96.0204V95.0204V94.0204L208.605 96.6758V97.6758ZM227.5 95.0204L226.51 95.1596V103.296L227.5 103.156L228.49 103.017V94.8813L227.5 95.0204ZM227.5 103.156V102.156L217.803 103.519V104.519V105.519L227.5 104.156V103.156ZM217.803 104.519L216.813 104.658V117.69L217.803 117.551L218.793 117.412V104.38L217.803 104.519ZM217.803 117.551V118.551L224.577 117.599V116.599V115.599L217.803 116.551V117.551ZM224.577 116.599L223.586 116.738V124.37L224.577 124.231L225.567 124.092V116.46L224.577 116.599ZM224.577 124.231V123.231L217.803 124.183V125.183V126.183L224.577 125.231V124.231ZM217.803 125.183L216.813 125.322V141.954L217.803 141.815L218.793 141.676V125.044L217.803 125.183ZM217.803 141.815V142.815L227.856 141.402V140.402V139.402L217.803 140.815V141.815ZM227.856 140.402L226.866 140.541V148.389L227.856 148.25L228.847 148.111V140.263L227.856 140.402ZM227.856 148.25V147.25L208.605 149.956V150.956V151.956L227.856 149.25V148.25ZM229.109 131.73L229.035 130.743L228.049 130.957L228.121 131.942L229.109 131.73ZM237.665 129.88L238.651 129.646L238.559 128.684L237.591 128.893L237.665 129.88ZM238.235 123.176L237.495 123.943L237.497 123.945L238.235 123.176ZM253.565 106.621L253.654 107.605L254.614 107.381L254.553 106.419L253.565 106.621ZM244.937 108.626L243.949 108.821L244.007 109.846L245.027 109.609L244.937 108.626ZM245.579 116.168L244.852 116.948L244.856 116.952L245.579 116.168ZM241.729 146.805V145.805C239.309 146.145 237.461 145.983 236.031 145.457C234.611 144.934 233.55 144.033 232.736 142.797C231.074 140.272 230.454 136.375 230.097 131.518L229.109 131.73L228.121 131.942C228.477 136.777 229.105 141.129 231.044 144.074C232.03 145.573 233.357 146.712 235.141 147.368C236.915 148.021 239.086 148.176 241.729 147.805V146.805ZM229.109 131.73L229.183 132.717L237.739 130.867L237.665 129.88L237.591 128.893L229.035 130.743L229.109 131.73ZM237.665 129.88L236.679 130.113C237.033 133.817 237.415 136.347 238.097 137.9C238.449 138.7 238.915 139.324 239.575 139.696C240.244 140.073 241.005 140.13 241.8 140.019V139.019V138.019C241.277 138.092 240.95 138.033 240.708 137.896C240.457 137.755 240.188 137.47 239.924 136.871C239.377 135.627 239.01 133.403 238.651 129.646L237.665 129.88ZM241.8 139.019V140.019C243.106 139.835 244.234 139.179 244.991 137.983C245.703 136.857 245.999 135.386 245.999 133.677L245.009 133.816L244.019 133.955C244.019 135.486 243.744 136.471 243.369 137.063C243.038 137.586 242.562 137.912 241.8 138.019V139.019ZM245.009 133.816L245.999 133.677C245.999 131.143 245.095 129.184 243.774 127.436C242.48 125.723 240.715 124.13 238.974 122.406L238.235 123.176L237.497 123.945C239.321 125.753 240.943 127.211 242.144 128.801C243.319 130.356 244.019 131.952 244.019 133.955L245.009 133.816ZM238.235 123.176L238.976 122.408C235.025 118.465 230.955 114.625 230.955 107.135L229.965 107.274L228.974 107.413C228.974 115.763 233.603 120.06 237.495 123.943L238.235 123.176ZM229.965 107.274L230.955 107.135C230.955 103.257 231.915 100.106 233.64 97.8323C235.345 95.5838 237.901 94.0546 241.373 93.5667V92.5667V91.5667C237.429 92.121 234.281 93.9135 232.136 96.742C230.01 99.5454 228.974 103.227 228.974 107.413L229.965 107.274ZM241.373 92.5667V93.5667C245.596 92.9731 248.137 93.9281 249.759 96.0387C251.446 98.2343 252.257 101.821 252.576 106.824L253.565 106.621L254.553 106.419C254.23 101.36 253.402 97.2928 251.381 94.6635C249.296 91.9492 246.061 90.9078 241.373 91.5667V92.5667ZM253.565 106.621L253.475 105.638L244.848 107.642L244.937 108.626L245.027 109.609L253.654 107.605L253.565 106.621ZM244.937 108.626L245.926 108.43C245.713 104.659 245.338 102.396 244.679 101.116C244.33 100.438 243.871 99.9714 243.262 99.734C242.674 99.5049 242.056 99.5347 241.515 99.6107V100.611V101.611C241.937 101.551 242.174 101.569 242.341 101.634C242.488 101.691 242.684 101.825 242.897 102.239C243.361 103.14 243.734 105.02 243.949 108.821L244.937 108.626ZM241.515 100.611V99.6107C240.263 99.7866 239.342 100.561 238.794 101.645C238.284 102.652 238.101 103.902 238.101 105.195L239.091 105.055L240.081 104.916C240.081 103.761 240.254 102.908 240.529 102.365C240.765 101.899 241.056 101.675 241.515 101.611V100.611ZM239.091 105.055L238.101 105.195C238.101 110.912 241.497 113.749 244.852 116.948L245.579 116.168L246.307 115.387C242.817 112.06 240.081 109.711 240.081 104.916L239.091 105.055ZM245.579 116.168L244.856 116.952C248.954 120.805 253.074 124.129 253.074 132.178L254.064 132.039L255.054 131.9C255.054 122.957 250.333 119.172 246.303 115.383L245.579 116.168ZM254.064 132.039L253.074 132.178C253.074 136.26 252.013 139.383 250.151 141.597C248.294 143.805 245.501 145.275 241.729 145.805V146.805V147.805C245.871 147.222 249.245 145.557 251.578 142.784C253.904 140.018 255.054 136.315 255.054 131.9L254.064 132.039ZM262.122 143.435L261.132 143.574V144.574L262.122 144.435V143.435ZM262.122 98.2905L263.113 98.1514V97.1514L262.122 97.2905V98.2905ZM255.206 99.2625L254.216 99.4017V100.402L255.206 100.263V99.2625ZM255.206 91.1265V90.1265L254.216 90.2657V91.2657L255.206 91.1265ZM278.236 87.8899L279.226 87.7508V86.7508L278.236 86.8899V87.8899ZM278.236 96.0259V97.0259L279.226 96.8867V95.8867L278.236 96.0259ZM271.391 96.9879V95.9879L270.401 96.1271V97.1271L271.391 96.9879ZM271.391 142.132V143.132L272.381 142.993V141.993L271.391 142.132ZM262.122 143.435L263.113 143.295V98.1514L262.122 98.2905L261.132 98.4297V143.574L262.122 143.435ZM262.122 98.2905V97.2905L255.206 98.2625V99.2625V100.263L262.122 99.2905V98.2905ZM255.206 99.2625L256.197 99.1234V90.9874L255.206 91.1265L254.216 91.2657V99.4017L255.206 99.2625ZM255.206 91.1265V92.1265L278.236 88.8899V87.8899V86.8899L255.206 90.1265V91.1265ZM278.236 87.8899L277.246 88.0291V96.1651L278.236 96.0259L279.226 95.8867V87.7508L278.236 87.8899ZM278.236 96.0259V95.0259L271.391 95.9879V96.9879V97.9879L278.236 97.0259V96.0259ZM271.391 96.9879L270.401 97.1271V142.271L271.391 142.132L272.381 141.993V96.8487L271.391 96.9879ZM271.391 142.132V141.132L262.122 142.435V143.435V144.435L271.391 143.132V142.132ZM281.097 140.768L280.107 140.907V141.907L281.097 141.768V140.768ZM281.097 87.4879V86.4879L280.107 86.627V87.627L281.097 87.4879ZM290.294 86.1952L291.285 86.056V85.056L290.294 85.1952V86.1952ZM290.294 139.475V140.475L291.285 140.336V139.336L290.294 139.475ZM281.097 140.768L282.087 140.629V87.3487L281.097 87.4879L280.107 87.627V140.907L281.097 140.768ZM281.097 87.4879V88.4879L290.294 87.1952V86.1952V85.1952L281.097 86.4879V87.4879ZM290.294 86.1952L289.304 86.3344V139.614L290.294 139.475L291.285 139.336V86.056L290.294 86.1952ZM290.294 139.475V138.475L281.097 139.768V140.768V141.768L290.294 140.475V139.475ZM307.201 137.603V136.603C305.148 136.892 303.423 136.705 301.975 136.025C300.529 135.345 299.288 134.138 298.272 132.259C296.217 128.458 295.144 122.024 295.144 112.154L294.154 112.293L293.163 112.432C293.163 122.362 294.229 129.2 296.506 133.412C297.655 135.539 299.128 137.024 300.95 137.88C302.771 138.736 304.87 138.931 307.201 138.603V137.603ZM294.154 112.293L295.144 112.154C295.144 102.284 296.217 95.5481 298.272 91.1695C299.288 89.0042 300.529 87.4487 301.975 86.3622C303.423 85.2748 305.148 84.6037 307.201 84.3151V83.3151V82.3151C304.87 82.6428 302.771 83.427 300.95 84.7947C299.128 86.1634 297.655 88.0628 296.506 90.5129C294.229 95.365 293.163 102.502 293.163 112.432L294.154 112.293ZM307.201 83.3151V84.3151C309.255 84.0265 310.98 84.2128 312.427 84.8932C313.874 85.5731 315.115 86.7799 316.131 88.6596C318.185 92.4606 319.259 98.8947 319.259 108.765L320.249 108.625L321.239 108.486C321.239 98.556 320.174 91.7187 317.897 87.5065C316.747 85.3796 315.274 83.8942 313.452 83.0377C311.631 82.1818 309.533 81.9874 307.201 82.3151V83.3151ZM320.249 108.625L319.259 108.765C319.259 118.634 318.185 125.37 316.131 129.749C315.115 131.914 313.874 133.47 312.427 134.556C310.98 135.643 309.255 136.315 307.201 136.603V137.603V138.603C309.533 138.275 311.631 137.491 313.452 136.123C315.274 134.755 316.747 132.855 317.897 130.405C320.174 125.553 321.239 118.416 321.239 108.486L320.249 108.625ZM307.201 129.251V130.251C308.296 130.097 309.214 129.519 309.891 128.493C310.516 127.547 310.905 126.268 311.171 124.709C311.706 121.579 311.828 116.771 311.828 109.809L310.838 109.948L309.847 110.087C309.847 117.094 309.72 121.716 309.221 124.635C308.97 126.102 308.646 127.002 308.295 127.533C307.996 127.986 307.675 128.185 307.201 128.251V129.251ZM310.838 109.948L311.828 109.809C311.828 102.848 311.706 98.1259 311.17 95.198C310.904 93.7399 310.513 92.593 309.882 91.8406C309.198 91.0245 308.28 90.7316 307.201 90.8831V91.8831V92.8831C307.692 92.8142 308.012 92.9232 308.304 93.2704C308.648 93.6813 308.971 94.4592 309.221 95.8265C309.719 98.5493 309.847 103.08 309.847 110.087L310.838 109.948ZM307.201 91.8831V90.8831C306.132 91.0334 305.227 91.5901 304.556 92.5972C303.938 93.5241 303.556 94.7772 303.294 96.3079C302.768 99.3832 302.646 104.138 302.646 111.099L303.636 110.96L304.627 110.821C304.627 103.814 304.754 99.246 305.244 96.3825C305.49 94.9438 305.808 94.0736 306.146 93.5657C306.431 93.1379 306.738 92.9483 307.201 92.8831V91.8831ZM303.636 110.96L302.646 111.099C302.646 118.062 302.768 122.834 303.293 125.814C303.555 127.296 303.936 128.464 304.547 129.236C305.21 130.074 306.115 130.404 307.201 130.251V129.251V128.251C306.755 128.314 306.447 128.211 306.155 127.842C305.81 127.407 305.491 126.595 305.245 125.197C304.754 122.415 304.627 117.827 304.627 110.821L303.636 110.96ZM323.84 134.761L322.85 134.9V135.9L323.84 135.761V134.761ZM323.84 81.4807V80.4807L322.85 80.6198V81.6198L323.84 81.4807ZM332.467 80.2682L333.428 79.8887L333.239 79.1598L332.467 79.2682V80.2682ZM336.531 95.969L337.495 95.602L337.492 95.5895L336.531 95.969ZM339.669 110.288L338.693 110.597L338.836 111.405L339.669 111.288V110.288ZM339.811 110.268V111.268L340.873 111.119L340.799 110.06L339.811 110.268ZM339.383 79.2962V78.2962L338.393 78.4354V79.4354L339.383 79.2962ZM347.298 78.1839L348.288 78.0448V77.0448L347.298 77.1839V78.1839ZM347.298 131.464V132.464L348.288 132.325V131.325L347.298 131.464ZM339.74 132.526L338.786 132.928L338.987 133.632L339.74 133.526V132.526ZM335.105 116.329L334.151 116.73L334.151 116.731L335.105 116.329ZM331.469 102.368L332.446 102.067L332.308 101.251L331.469 101.368V102.368ZM331.327 102.389V101.389L330.228 101.543L330.342 102.631L331.327 102.389ZM331.754 133.648V134.648L332.745 134.509V133.509L331.754 133.648ZM323.84 134.761L324.83 134.621V81.3415L323.84 81.4807L322.85 81.6198V134.9L323.84 134.761ZM323.84 81.4807V82.4807L332.467 81.2682V80.2682V79.2682L323.84 80.4807V81.4807ZM332.467 80.2682L331.507 80.6477L335.571 96.3485L336.531 95.969L337.492 95.5895L333.428 79.8887L332.467 80.2682ZM336.531 95.969L335.568 96.336C336.638 100.722 337.843 105.782 338.693 110.597L339.669 110.288L340.644 109.98C339.783 105.099 338.564 99.9872 337.495 95.602L336.531 95.969ZM339.669 110.288V111.288L339.811 111.268V110.268V109.268L339.669 109.288V110.288ZM339.811 110.268L340.799 110.06C340.445 104.96 340.374 99.2371 340.374 95.573L339.383 95.7122L338.393 95.8514C338.393 99.5313 338.465 105.308 338.823 110.476L339.811 110.268ZM339.383 95.7122L340.374 95.573V79.157L339.383 79.2962L338.393 79.4354V95.8514L339.383 95.7122ZM339.383 79.2962V80.2962L347.298 79.1839V78.1839V77.1839L339.383 78.2962V79.2962ZM347.298 78.1839L346.307 78.3231V131.603L347.298 131.464L348.288 131.325V78.0448L347.298 78.1839ZM347.298 131.464V130.464L339.74 131.526V132.526V133.526L347.298 132.464V131.464ZM339.74 132.526L340.694 132.124L336.06 115.928L335.105 116.329L334.151 116.731L338.786 132.928L339.74 132.526ZM335.105 116.329L336.06 115.928C334.761 111.376 333.29 107.063 332.446 102.067L331.469 102.368L330.492 102.67C331.359 107.801 332.883 112.284 334.151 116.73L335.105 116.329ZM331.469 102.368V101.368L331.327 101.389V102.389V103.389L331.469 103.368V102.368ZM331.327 102.389L330.342 102.631C330.692 105.975 330.764 114.115 330.764 116.94L331.754 116.8L332.745 116.661C332.745 113.87 332.675 105.614 332.312 102.146L331.327 102.389ZM331.754 116.8L330.764 116.94V133.788L331.754 133.648L332.745 133.509V116.661L331.754 116.8ZM331.754 133.648V132.648L323.84 133.761V134.761V135.761L331.754 134.648V133.648ZM350.262 114.703L350.188 113.717L349.202 113.93L349.275 114.915L350.262 114.703ZM358.818 112.853L359.804 112.619L359.712 111.657L358.744 111.866L358.818 112.853ZM359.388 106.149L358.648 106.916L358.65 106.919L359.388 106.149ZM374.718 89.5943L374.807 90.5776L375.767 90.3545L375.706 89.3917L374.718 89.5943ZM366.091 91.5988L365.102 91.7942L365.16 92.8191L366.18 92.582L366.091 91.5988ZM366.732 99.1406L366.005 99.9211L366.009 99.925L366.732 99.1406ZM362.882 129.778V128.778C360.462 129.118 358.614 128.956 357.185 128.43C355.764 127.907 354.703 127.006 353.889 125.77C352.227 123.245 351.607 119.348 351.25 114.491L350.262 114.703L349.275 114.915C349.63 119.75 350.258 124.102 352.197 127.047C353.183 128.546 354.51 129.685 356.294 130.341C358.068 130.994 360.24 131.149 362.882 130.778V129.778ZM350.262 114.703L350.336 115.69L358.892 113.84L358.818 112.853L358.744 111.866L350.188 113.717L350.262 114.703ZM358.818 112.853L357.832 113.086C358.186 116.79 358.568 119.321 359.25 120.873C359.602 121.673 360.068 122.297 360.728 122.669C361.397 123.046 362.158 123.103 362.953 122.992V121.992V120.992C362.43 121.065 362.103 121.006 361.861 120.869C361.61 120.728 361.341 120.443 361.077 119.844C360.53 118.6 360.163 116.376 359.804 112.619L358.818 112.853ZM362.953 121.992V122.992C364.26 122.808 365.388 122.152 366.144 120.956C366.857 119.83 367.152 118.359 367.152 116.65L366.162 116.789L365.172 116.928C365.172 118.459 364.897 119.444 364.522 120.036C364.191 120.559 363.715 120.885 362.953 120.992V121.992ZM366.162 116.789L367.152 116.65C367.152 114.116 366.248 112.157 364.927 110.41C363.633 108.696 361.868 107.103 360.127 105.379L359.388 106.149L358.65 106.919C360.474 108.726 362.096 110.184 363.297 111.774C364.472 113.329 365.172 114.925 365.172 116.928L366.162 116.789ZM359.388 106.149L360.129 105.381C356.178 101.438 352.108 97.5983 352.108 90.1079L351.118 90.247L350.128 90.3862C350.128 98.7358 354.756 103.033 358.648 106.916L359.388 106.149ZM351.118 90.247L352.108 90.1079C352.108 86.2299 353.069 83.0791 354.793 80.8053C356.498 78.5568 359.054 77.0276 362.526 76.5398V75.5398V74.5398C358.582 75.0941 355.434 76.8865 353.289 79.7151C351.163 82.5184 350.128 86.2002 350.128 90.3862L351.118 90.247ZM362.526 75.5398V76.5398C366.75 75.9461 369.29 76.9011 370.912 79.0118C372.599 81.2074 373.411 84.7942 373.73 89.7969L374.718 89.5943L375.706 89.3917C375.383 84.3325 374.555 80.2658 372.534 77.6365C370.449 74.9222 367.214 73.8808 362.526 74.5398V75.5398ZM374.718 89.5943L374.628 88.611L366.001 90.6155L366.091 91.5988L366.18 92.582L374.807 90.5776L374.718 89.5943ZM366.091 91.5988L367.079 91.4033C366.866 87.6325 366.491 85.3695 365.832 84.089C365.483 83.4113 365.024 82.9445 364.415 82.7071C363.827 82.4779 363.209 82.5077 362.668 82.5837V83.5837V84.5837C363.09 84.5244 363.327 84.542 363.495 84.6072C363.641 84.6642 363.837 84.7983 364.05 85.2117C364.514 86.1133 364.887 87.9931 365.102 91.7942L366.091 91.5988ZM362.668 83.5837V82.5837C361.416 82.7597 360.495 83.5339 359.947 84.6183C359.437 85.6255 359.254 86.8749 359.254 88.1676L360.244 88.0284L361.234 87.8893C361.234 86.734 361.407 85.8813 361.682 85.3382C361.918 84.8724 362.209 84.6483 362.668 84.5837V83.5837ZM360.244 88.0284L359.254 88.1676C359.254 93.8847 362.65 96.7225 366.005 99.9211L366.732 99.1406L367.46 98.36C363.97 95.0326 361.234 92.6842 361.234 87.8893L360.244 88.0284ZM366.732 99.1406L366.009 99.925C370.107 103.778 374.227 107.103 374.227 115.151L375.217 115.012L376.207 114.873C376.207 105.93 371.486 102.145 367.456 98.3561L366.732 99.1406ZM375.217 115.012L374.227 115.151C374.227 119.233 373.166 122.356 371.304 124.57C369.447 126.778 366.654 128.248 362.882 128.778V129.778V130.778C367.024 130.196 370.398 128.53 372.731 125.757C375.057 122.991 376.207 119.288 376.207 114.873L375.217 115.012Z" fill="black" mask="url(#path-1-outside-1_6877_6921)"/>
</svg>
